<svg width="18" height="20" viewBox="0 0 18 20" fill="none" xmlns="http://www.w3.org/2000/svg">
<path fill-rule="evenodd" clip-rule="evenodd" d="M6.00008 0.000166735C4.90513 0.000166735 4.00005 0.822921 4.00005 1.81836C3.99726 2.00083 4.07504 2.17664 4.21594 2.30662C4.35684 2.43661 4.54936 2.50986 4.75008 2.50986C4.9508 2.50986 5.14315 2.43662 5.28423 2.30662C5.42513 2.17663 5.50291 2.00082 5.50012 1.81836C5.50012 1.55472 5.71008 1.36386 6.00007 1.36386L16 1.3637C16.29 1.3637 16.4999 1.55457 16.4999 1.8182V14.5453C16.4999 14.8089 16.29 14.9998 16 14.9998C15.7993 14.9972 15.6057 15.0679 15.4627 15.196C15.3197 15.3243 15.2393 15.4991 15.2393 15.6816C15.2393 15.8641 15.3197 16.0391 15.4627 16.1672C15.6057 16.2953 15.7993 16.366 16 16.3634C17.0949 16.3634 18 15.5407 18 14.5453V1.81819C18 0.822795 17.0951 0 16 0L6.00008 0.000166735ZM2.00003 3.63655C0.90508 3.63655 0 4.45931 0 5.45474V18.1818C0 19.1772 0.904902 20 2.00003 20L11.9999 19.9997C13.0949 19.9997 14 19.1771 14 18.1815V5.45443C14 4.45903 13.0951 3.63623 11.9999 3.63623L2.00003 3.63655ZM2.00003 5.00025L11.9999 5.00009C12.2899 5.00009 12.4999 5.19096 12.4999 5.45459V18.1817C12.4999 18.4453 12.2899 18.6361 11.9999 18.6361H2.00003C1.71002 18.6361 1.50007 18.4453 1.50007 18.1817V5.45459C1.50007 5.19095 1.71003 5.00009 2.00003 5.00009V5.00025Z" fill="#01AB6C"/>
</svg>
