<svg width="24" height="24" viewBox="0 0 24 24" fill="none" xmlns="http://www.w3.org/2000/svg">
<path d="M14.0379 18.1938C14.1373 18.1938 14.2369 18.169 14.3363 18.1192C14.7094 17.945 14.8588 17.5222 14.6846 17.1491C14.6846 17.1491 13.3164 14.0148 13.0678 12.8705C12.9683 12.4724 12.9185 11.4029 12.8936 10.9054C12.8936 10.7312 12.993 10.582 13.1424 10.5323L16.202 9.61197C16.5751 9.51254 16.7991 9.08949 16.6995 8.71645C16.6001 8.34339 16.177 8.11939 15.804 8.21898C15.804 8.21898 12.9682 9.13933 11.9482 9.13933C10.9533 9.13933 8.14225 8.24381 8.14225 8.24381C7.76919 8.14438 7.34614 8.31843 7.2219 8.69148C7.09749 9.08953 7.32133 9.51238 7.71937 9.61184L10.779 10.5322C10.9283 10.582 11.0527 10.7312 11.0279 10.9053C11.003 11.4027 10.9532 12.4725 10.8536 12.8703C10.6048 14.0147 9.23681 17.1489 9.23681 17.1489C9.0626 17.522 9.23681 17.9451 9.58506 18.1191C9.68449 18.1689 9.78409 18.1937 9.88352 18.1937C10.1572 18.1937 10.4308 18.0445 10.5302 17.7708L11.998 14.7858L13.391 17.7959C13.5154 18.0445 13.7643 18.1939 14.0379 18.1939L14.0379 18.1938Z" fill="white"/>
<path d="M13.3914 7.02483C13.3914 7.79419 12.7678 8.41782 11.9985 8.41782C11.2291 8.41782 10.6055 7.79419 10.6055 7.02483C10.6055 6.25546 11.2291 5.63184 11.9985 5.63184C12.7678 5.63184 13.3914 6.25546 13.3914 7.02483Z" fill="white"/>
<path d="M22 12C22 6.47761 17.5224 2 12 2C6.47761 2 2 6.47761 2 12C2 17.5224 6.47761 22 12 22C17.5224 22 22 17.5224 22 12ZM2.8209 12C2.8209 6.95025 6.92528 2.8209 12 2.8209C17.0746 2.8209 21.1791 6.95029 21.1791 12C21.1791 17.0497 17.0497 21.1791 12 21.1791C6.95029 21.1791 2.8209 17.0497 2.8209 12Z" fill="white" stroke="white" stroke-width="0.8"/>
</svg>
