<svg width="24" height="24" viewBox="0 0 24 24" fill="none" xmlns="http://www.w3.org/2000/svg">
<path d="M4.00026 2.00007C2.9037 2.00007 2 2.90354 2 3.99982V9.33398C2 10.1953 2.54693 10.8933 3.23452 11.1775C3.92211 11.4615 4.80287 11.3541 5.41186 10.7452L6.15809 9.99919H12.0011C13.0977 9.99919 14.0014 9.09573 14.0014 7.99945V3.99997C14.0014 2.90369 13.0977 2.00023 12.0011 2.00023H8.00061C7.82217 1.9977 7.65012 2.06688 7.52303 2.19217C7.39593 2.31745 7.32434 2.48841 7.32434 2.66681C7.32434 2.84521 7.39593 3.01617 7.52303 3.14145C7.65013 3.26674 7.82218 3.33592 8.00061 3.3334H12.0011C12.382 3.3334 12.6679 3.61922 12.6679 3.99998V7.99946C12.6679 8.38021 12.382 8.66604 12.0011 8.66604H5.88187C5.70506 8.66604 5.53539 8.73627 5.41038 8.86125L4.46889 9.80265C4.24118 10.0303 3.9849 10.045 3.74483 9.94579C3.50477 9.84655 3.33331 9.65565 3.33331 9.33398V3.99982C3.33331 3.61906 3.61921 3.33324 4.00006 3.33324H7.82373C8.00218 3.33576 8.87291 2.62528 9 2.5C9.1271 2.37472 8.5 2.84505 8.5 2.66665C8.5 2.48825 7.95083 2.31745 7.82373 2.19217C7.69663 2.06689 8.00217 1.99754 7.82373 2.00007L4.00026 2.00007ZM19.9425 7.3366C19.4338 7.35178 18.9507 7.55607 18.5895 7.91733C16.1469 10.3588 14.2426 11.3322 10.6704 11.3322H8.00218C6.90531 11.3322 5.99925 12.2328 5.99925 13.3293V15.9969C5.99925 17.0935 6.90531 17.9993 8.00218 17.9993H10.6704C11.9671 17.9993 13.0402 18.1313 14.0029 18.4107V19.9977C14.0029 20.3785 13.7132 20.6668 13.3323 20.6668H10.6704C10.2895 20.6668 10.0011 18.3801 10.0011 17.9993C10.0011 17.1103 8.66626 17.1103 8.66626 17.9993C8.66626 19.0956 9.5738 22 10.6704 22H13.3323C14.4289 22 15.3365 21.094 15.3365 19.9977V18.9354C16.449 19.4842 17.4641 20.2841 18.5894 21.409C19.1995 22.0187 20.081 22.1327 20.7695 21.8478C21.4578 21.5627 22 20.8601 22 19.9977V9.33398C22 8.21523 21.0608 7.30388 19.9425 7.3366ZM19.983 8.66455C20.3671 8.65458 20.6717 8.94993 20.6717 9.33379V19.9976C20.6717 20.3225 20.4975 20.5128 20.2577 20.6121C20.0179 20.7113 19.7596 20.6987 19.5298 20.4688C16.9523 17.8925 14.5067 16.666 10.6704 16.666H8.00219C7.6261 16.666 7.33278 16.3727 7.33278 15.9968V13.3291C7.33278 12.9533 7.62612 12.6652 8.00219 12.6652H10.6704C14.5067 12.6652 16.9523 11.4387 19.5298 8.86225C19.6495 8.74262 19.8118 8.6696 19.983 8.66455Z" fill="white"/>
<path d="M5 5C5 4.72386 5.22386 4.5 5.5 4.5H10.5C10.7761 4.5 11 4.72386 11 5C11 5.27614 10.7761 5.5 10.5 5.5H5.5C5.22386 5.5 5 5.27614 5 5Z" fill="white"/>
<path d="M5 7C5 6.72386 5.22386 6.5 5.5 6.5H10.5C10.7761 6.5 11 6.72386 11 7C11 7.27614 10.7761 7.5 10.5 7.5H5.5C5.22386 7.5 5 7.27614 5 7Z" fill="white"/>
<path d="M4.00026 2.00007C2.9037 2.00007 2 2.90354 2 3.99982V9.33398C2 10.1953 2.54693 10.8933 3.23452 11.1775C3.92211 11.4615 4.80287 11.3541 5.41186 10.7452L6.15809 9.99919H12.0011C13.0977 9.99919 14.0014 9.09573 14.0014 7.99945V3.99997C14.0014 2.90369 13.0977 2.00023 12.0011 2.00023H8.00061C7.82217 1.9977 7.65012 2.06688 7.52303 2.19217C7.39593 2.31745 7.32434 2.48841 7.32434 2.66681C7.32434 2.84521 7.39593 3.01617 7.52303 3.14145C7.65013 3.26674 7.82218 3.33592 8.00061 3.3334H12.0011C12.382 3.3334 12.6679 3.61922 12.6679 3.99998V7.99946C12.6679 8.38021 12.382 8.66604 12.0011 8.66604H5.88187C5.70506 8.66604 5.53539 8.73627 5.41038 8.86125L4.46889 9.80265C4.24118 10.0303 3.9849 10.045 3.74483 9.94579C3.50477 9.84655 3.33331 9.65565 3.33331 9.33398V3.99982C3.33331 3.61906 3.61921 3.33324 4.00006 3.33324H7.82373C8.00218 3.33576 8.87291 2.62528 9 2.5C9.1271 2.37472 8.5 2.84505 8.5 2.66665C8.5 2.48825 7.95083 2.31745 7.82373 2.19217C7.69663 2.06689 8.00217 1.99754 7.82373 2.00007L4.00026 2.00007ZM19.9425 7.3366C19.4338 7.35178 18.9507 7.55607 18.5895 7.91733C16.1469 10.3588 14.2426 11.3322 10.6704 11.3322H8.00218C6.90531 11.3322 5.99925 12.2328 5.99925 13.3293V15.9969C5.99925 17.0935 6.90531 17.9993 8.00218 17.9993H10.6704C11.9671 17.9993 13.0402 18.1313 14.0029 18.4107V19.9977C14.0029 20.3785 13.7132 20.6668 13.3323 20.6668H10.6704C10.2895 20.6668 10.0011 18.3801 10.0011 17.9993C10.0011 17.1103 8.66626 17.1103 8.66626 17.9993C8.66626 19.0956 9.5738 22 10.6704 22H13.3323C14.4289 22 15.3365 21.094 15.3365 19.9977V18.9354C16.449 19.4842 17.4641 20.2841 18.5894 21.409C19.1995 22.0187 20.081 22.1327 20.7695 21.8478C21.4578 21.5627 22 20.8601 22 19.9977V9.33398C22 8.21523 21.0608 7.30388 19.9425 7.3366ZM19.983 8.66455C20.3671 8.65458 20.6717 8.94993 20.6717 9.33379V19.9976C20.6717 20.3225 20.4975 20.5128 20.2577 20.6121C20.0179 20.7113 19.7596 20.6987 19.5298 20.4688C16.9523 17.8925 14.5067 16.666 10.6704 16.666H8.00219C7.6261 16.666 7.33278 16.3727 7.33278 15.9968V13.3291C7.33278 12.9533 7.62612 12.6652 8.00219 12.6652H10.6704C14.5067 12.6652 16.9523 11.4387 19.5298 8.86225C19.6495 8.74262 19.8118 8.6696 19.983 8.66455Z" stroke="white"/>
<path d="M5 5C5 4.72386 5.22386 4.5 5.5 4.5H10.5C10.7761 4.5 11 4.72386 11 5C11 5.27614 10.7761 5.5 10.5 5.5H5.5C5.22386 5.5 5 5.27614 5 5Z" stroke="white"/>
<path d="M5 7C5 6.72386 5.22386 6.5 5.5 6.5H10.5C10.7761 6.5 11 6.72386 11 7C11 7.27614 10.7761 7.5 10.5 7.5H5.5C5.22386 7.5 5 7.27614 5 7Z" stroke="white"/>
</svg>
