<svg width="24" height="24" viewBox="0 0 24 24" fill="none" xmlns="http://www.w3.org/2000/svg">
<path d="M15.9154 7.33806C15.9154 7.6644 15.6666 7.92081 15.3499 7.92081H10.2154C9.89874 7.92081 9.64993 7.6644 9.64993 7.33806C9.64993 7.01173 9.89874 6.75531 10.2154 6.75531H15.3499C15.6442 6.75531 15.9154 7.01173 15.9154 7.33806ZM15.3499 10.0863H5.98564C5.66898 10.0863 5.42017 10.3427 5.42017 10.6691C5.42017 10.9954 5.66898 11.2518 5.98564 11.2518H15.3499C15.6666 11.2518 15.9154 10.9954 15.9154 10.6691C15.9152 10.3427 15.644 10.0863 15.3499 10.0863ZM13.088 14.9138C13.3143 14.4943 13.5856 14.0979 13.9023 13.7483H5.98564C5.66898 13.7483 5.42017 14.0047 5.42017 14.3311C5.42017 14.6574 5.66898 14.9138 5.98564 14.9138H13.088ZM3 7.17489V19.5292C3 20.9044 4.06309 22 5.39758 22H14.5357C14.5357 22 13.7439 21.2774 13.45 20.8345H5.39762C4.69647 20.8345 4.13099 20.2518 4.13099 19.5292V7.52454H6.14409C7.45599 7.52454 8.54167 6.40571 8.54167 5.05373V3.16566H16.0512C16.7523 3.16566 17.3178 3.74841 17.3178 4.47098V11.0002C17.4761 10.9767 17.819 11 18 11C18.2035 11 18.2225 10.9767 18.4261 11V4.47082C18.4261 3.09557 17.363 2 16.0285 2L8.17968 2.00016C8.04399 2.00016 7.9083 2.02341 7.77262 2.07008C7.63693 2.11675 7.5238 2.20991 7.4334 2.30325L3.31673 6.38233C3.2036 6.47549 3.13576 6.61549 3.06791 6.75532C3.02263 6.87191 3 7.03507 3 7.17489Z" fill="white"/>
<path d="M19.5918 17.0088C19.5548 17.0045 19.5195 17.0029 19.4826 17H19.4827C18.9402 17.451 18.2352 17.7066 17.4999 17.7189C16.7647 17.7066 16.0598 17.451 15.5173 17C15.482 17.0029 15.445 17.0043 15.4081 17.0088C14.3641 17.1065 13.4516 17.691 13 18.5515C13.4559 19.6087 14.2201 20.8262 15.4498 21.4941C16.0712 21.8254 16.7787 22 17.4992 22C18.2196 22 18.9272 21.8254 19.5485 21.4941C20.7798 20.8249 21.5439 19.6072 22 18.5501C21.5481 17.69 20.6356 17.1058 19.5918 17.0088H19.5918Z" fill="white"/>
<circle cx="17.5" cy="14.5" r="2.5" fill="white"/>
</svg>
