<svg width="24" height="24" viewBox="0 0 24 24" fill="none" xmlns="http://www.w3.org/2000/svg">
<path d="M22 12C22 6.47761 17.5224 2 12 2C6.47761 2 2 6.47761 2 12C2 17.5224 6.47761 22 12 22C17.5224 22 22 17.5224 22 12ZM2.8209 12C2.8209 6.95025 6.92528 2.8209 12 2.8209C17.0746 2.8209 21.1791 6.95029 21.1791 12C21.1791 17.0497 17.0497 21.1791 12 21.1791C6.95029 21.1791 2.8209 17.0497 2.8209 12Z" fill="white" stroke="white" stroke-width="0.8"/>
<path d="M11.256 13.048V12.652C11.256 12.46 11.276 12.284 11.316 12.124C11.356 11.956 11.416 11.796 11.496 11.644C11.584 11.492 11.696 11.34 11.832 11.188C11.976 11.036 12.152 10.872 12.36 10.696C12.576 10.504 12.744 10.328 12.864 10.168C12.984 10.008 13.044 9.812 13.044 9.58C13.044 9.34 12.952 9.128 12.768 8.944C12.592 8.76 12.348 8.668 12.036 8.668C11.868 8.668 11.716 8.696 11.58 8.752C11.444 8.808 11.324 8.884 11.22 8.98C11.116 9.076 11.028 9.184 10.956 9.304C10.892 9.424 10.844 9.548 10.812 9.676L9.432 9.1C9.496 8.876 9.596 8.652 9.732 8.428C9.876 8.204 10.052 8.004 10.26 7.828C10.476 7.644 10.728 7.496 11.016 7.384C11.304 7.272 11.628 7.216 11.988 7.216C12.372 7.216 12.724 7.276 13.044 7.396C13.364 7.508 13.636 7.668 13.86 7.876C14.092 8.076 14.272 8.316 14.4 8.596C14.528 8.876 14.592 9.176 14.592 9.496C14.592 9.728 14.564 9.936 14.508 10.12C14.452 10.304 14.376 10.476 14.28 10.636C14.184 10.796 14.072 10.948 13.944 11.092C13.816 11.228 13.68 11.364 13.536 11.5C13.4 11.628 13.284 11.744 13.188 11.848C13.1 11.952 13.028 12.056 12.972 12.16C12.924 12.256 12.888 12.36 12.864 12.472C12.84 12.584 12.828 12.712 12.828 12.856V13.048H11.256ZM12.024 16.072C11.736 16.072 11.492 15.972 11.292 15.772C11.092 15.564 10.992 15.316 10.992 15.028C10.992 14.74 11.092 14.496 11.292 14.296C11.492 14.096 11.736 13.996 12.024 13.996C12.312 13.996 12.556 14.096 12.756 14.296C12.964 14.496 13.068 14.74 13.068 15.028C13.068 15.316 12.964 15.564 12.756 15.772C12.556 15.972 12.312 16.072 12.024 16.072Z" fill="white"/>
</svg>
