<svg width="24" height="24" viewBox="0 0 24 24" fill="none" xmlns="http://www.w3.org/2000/svg">
<path d="M4.85714 2C3.28665 2 2 3.28665 2 4.85714V19.1429C2 20.7133 3.28665 22 4.85714 22H12C12.1894 22 12.3712 21.9247 12.5051 21.7908C12.639 21.6569 12.7143 21.4751 12.7143 21.2857C12.7143 21.0963 12.639 20.9145 12.5051 20.7806C12.3712 20.6467 12.1894 20.5714 12 20.5714H4.85714C4.05343 20.5714 3.42857 19.9466 3.42857 19.1429V4.85714C3.42857 4.05343 4.05343 3.42857 4.85714 3.42857H14.8571C15.6609 3.42857 16.2857 4.05343 16.2857 4.85714V6.28571C16.2857 6.47513 16.361 6.65689 16.4949 6.79082C16.6288 6.92474 16.8106 7 17 7C17.1894 7 17.3712 6.92474 17.5051 6.79082C17.639 6.65689 17.7143 6.47513 17.7143 6.28571V4.85714C17.7143 3.28665 16.4276 2 14.8571 2H4.85714Z" fill="white"/>
<path d="M17 7.71436C14.247 7.71436 12 9.96134 12 12.7144C12 14.4093 12.8541 15.9095 14.1513 16.8144V21.2858C14.1513 21.4591 14.2146 21.6265 14.3289 21.7566C14.4434 21.8869 14.6012 21.971 14.7731 21.9935C14.945 22.016 15.1191 21.9752 15.2631 21.8787L17 20.7166L18.737 21.8787C18.8809 21.9752 19.055 22.016 19.2269 21.9935C19.3988 21.971 19.5566 21.8869 19.6711 21.7566C19.7854 21.6265 19.8487 21.4591 19.8487 21.2858V16.8144C21.1459 15.9094 22.0001 14.4092 22.0001 12.7144C22.0001 9.96134 19.7531 7.71436 17 7.71436H17ZM17 9.14293C18.9809 9.14293 20.5714 10.7335 20.5714 12.7144C20.5714 14.6952 18.9809 16.2858 17 16.2858C15.0191 16.2858 13.4286 14.6952 13.4286 12.7144C13.4286 10.7335 15.0191 9.14293 17 9.14293ZM15.5799 17.505C16.0304 17.6392 16.5069 17.7143 17 17.7143C17.4931 17.7143 17.9696 17.6392 18.4201 17.505V19.9492L17.3975 19.2642H17.3976C17.28 19.1855 17.1416 19.1434 17 19.1434C16.8584 19.1434 16.72 19.1855 16.6023 19.2642L15.5797 19.9492L15.5799 17.505Z" fill="white"/>
<path d="M6.28431 5.57129C6.09498 5.57129 5.91329 5.64655 5.77941 5.78047C5.64554 5.9144 5.57031 6.09616 5.57031 6.28557C5.57031 6.47499 5.64554 6.65675 5.77941 6.79068C5.91329 6.9246 6.09498 6.99986 6.28431 6.99986H12.286C12.4753 6.99986 12.657 6.9246 12.7909 6.79068C12.9248 6.65675 13 6.47499 13 6.28557C13 6.09616 12.9248 5.9144 12.7909 5.78047C12.657 5.64655 12.4753 5.57129 12.286 5.57129H6.28431Z" fill="white"/>
<path d="M6.2846 8.42871C6.09519 8.42871 5.91342 8.50397 5.7795 8.63789C5.64557 8.77182 5.57031 8.95358 5.57031 9.143C5.57031 9.33241 5.64557 9.51417 5.7795 9.6481C5.91342 9.78203 6.09519 9.85728 6.2846 9.85728H10.5703C10.7597 9.85728 10.9415 9.78203 11.0754 9.6481C11.2093 9.51417 11.2846 9.33241 11.2846 9.143C11.2846 8.95358 11.2093 8.77182 11.0754 8.63789C10.9415 8.50397 10.7597 8.42871 10.5703 8.42871H6.2846Z" fill="white"/>
<path d="M6.2846 11.2856C6.09519 11.2856 5.91342 11.3609 5.7795 11.4948C5.64557 11.6288 5.57031 11.8105 5.57031 11.9999C5.57031 12.1893 5.64557 12.3711 5.7795 12.505C5.91342 12.639 6.09519 12.7142 6.2846 12.7142H8.42746C8.61687 12.7142 8.79863 12.639 8.93256 12.505C9.06648 12.3711 9.14174 12.1893 9.14174 11.9999C9.14174 11.8105 9.06648 11.6288 8.93256 11.4948C8.79863 11.3609 8.61687 11.2856 8.42746 11.2856H6.2846Z" fill="white"/>
</svg>
