<svg width="20" height="20" viewBox="0 0 20 20" fill="none" xmlns="http://www.w3.org/2000/svg">
<path d="M13.1313 15.3279V13.3854C13.1313 13.1203 13.0946 12.8686 12.9694 12.6325C12.7622 12.2449 12.3392 12.0288 11.9205 12.0222C11.7738 12.0199 11.627 12.0222 11.4802 12.0222H9.39972H6.95877C6.50987 12.0222 6.06096 12.0288 5.61205 12.0222C5.59694 12.0222 5.58184 12.0222 5.56457 12.0199C5.64011 12.0311 5.7178 12.0422 5.79334 12.0511C5.76313 12.0467 5.73723 12.04 5.70917 12.0311C5.77823 12.06 5.8473 12.0912 5.91636 12.1202C5.8883 12.109 5.86672 12.0957 5.84082 12.0801C5.89909 12.1269 5.95736 12.1736 6.01564 12.2204C5.98542 12.1959 5.95952 12.1692 5.93578 12.138C5.98111 12.1981 6.02643 12.2583 6.07175 12.3184C6.05664 12.2939 6.04369 12.2694 6.0329 12.2405C6.06096 12.3118 6.09118 12.383 6.11923 12.4543C6.1106 12.4254 6.10412 12.3986 6.09981 12.3674C6.1106 12.4454 6.12139 12.5256 6.13002 12.6036C6.12139 12.4276 6.12786 12.2494 6.12786 12.0712V10.8438V8.06371C6.12786 7.84318 6.11923 7.62041 6.13002 7.40212C6.11923 7.48009 6.10844 7.56028 6.09981 7.63825C6.10412 7.60706 6.1106 7.58033 6.11923 7.55137C6.09118 7.62265 6.06096 7.69394 6.0329 7.76522C6.04369 7.73626 6.05664 7.71399 6.07175 7.68725C6.02643 7.7474 5.98111 7.80754 5.93578 7.86769C5.95952 7.8365 5.98542 7.80977 6.01564 7.78527C5.95736 7.83205 5.89909 7.87883 5.84082 7.92561C5.86456 7.91002 5.8883 7.89665 5.91636 7.88551C5.8473 7.91447 5.77823 7.94566 5.70917 7.97462C5.73723 7.96571 5.76313 7.95902 5.79334 7.95457C5.7178 7.96571 5.64011 7.97684 5.56457 7.98575C5.94657 7.96793 6.3329 7.98353 6.71488 7.98353H9.11266H11.3097H11.873C11.9939 7.98353 12.1082 7.97462 12.2269 7.94566C12.7687 7.81423 13.1248 7.29074 13.1312 6.7294C13.1399 6.06113 13.1312 5.39505 13.1312 4.72678C13.1312 4.69114 13.1312 4.6555 13.1355 4.61986C13.1248 4.69782 13.114 4.77802 13.1053 4.85598C13.1096 4.82925 13.1161 4.80475 13.1269 4.78024C13.0989 4.85153 13.0686 4.92281 13.0406 4.99409C13.0514 4.96959 13.0622 4.94954 13.0773 4.92727C13.032 4.98741 12.9866 5.04756 12.9413 5.1077C12.9607 5.08097 12.9823 5.0587 13.0082 5.03642C12.9499 5.0832 12.8917 5.12998 12.8334 5.17676C12.8593 5.15671 12.8874 5.14112 12.9176 5.12775C12.8485 5.15671 12.7794 5.1879 12.7104 5.21686C12.7341 5.20795 12.7557 5.20349 12.7794 5.19681C12.7039 5.20795 12.6262 5.21908 12.5507 5.228C12.583 5.22354 12.6154 5.22354 12.6478 5.228C12.5722 5.21686 12.4946 5.20572 12.419 5.19681C12.4449 5.20126 12.4665 5.20795 12.4902 5.21686C12.4212 5.1879 12.3521 5.15671 12.283 5.12775C12.3154 5.14335 12.3456 5.16117 12.3737 5.18344C12.3154 5.13667 12.2572 5.08988 12.1989 5.04311C12.4082 5.22131 12.6154 5.40175 12.8247 5.57997C13.3211 6.00543 13.8197 6.43313 14.3161 6.85863C14.9182 7.37546 15.5204 7.89224 16.1225 8.40903C16.6383 8.85009 17.1519 9.29339 17.6677 9.73445C17.9116 9.94385 18.1619 10.1466 18.3994 10.3626C18.4231 10.3849 18.4447 10.4072 18.4641 10.4339C18.4188 10.3738 18.3735 10.3136 18.3281 10.2535C18.3433 10.278 18.3562 10.3003 18.367 10.3292C18.3389 10.2579 18.3087 10.1867 18.2807 10.1154C18.2893 10.1421 18.2958 10.1688 18.3001 10.1956C18.2893 10.1176 18.2785 10.0374 18.2699 9.95945C18.272 9.9884 18.272 10.0129 18.2699 10.0419C18.2807 9.9639 18.2915 9.88371 18.3001 9.80574C18.2958 9.8347 18.2893 9.8592 18.2807 9.88593C18.3087 9.81465 18.3389 9.74337 18.367 9.67208C18.3562 9.69882 18.3433 9.72332 18.3281 9.74782C18.3735 9.68768 18.4188 9.62753 18.4641 9.56739C18.408 9.64313 18.326 9.70104 18.2569 9.76119C18.108 9.88816 17.9612 10.0151 17.8123 10.1421C17.3202 10.5631 16.8282 10.9864 16.3361 11.4074C15.734 11.9242 15.1318 12.441 14.5297 12.9556C14.0096 13.4011 13.4895 13.8466 12.9693 14.2944C12.7147 14.5127 12.46 14.7287 12.2075 14.947C12.2032 14.9492 12.1988 14.9537 12.1967 14.9559C12.2549 14.9092 12.3132 14.8624 12.3715 14.8156C12.3434 14.8379 12.3132 14.8557 12.2808 14.8713C12.3499 14.8423 12.419 14.8111 12.488 14.7822C12.4643 14.7911 12.4406 14.7978 12.4168 14.8022C12.4924 14.7911 12.57 14.78 12.6456 14.771C12.6132 14.7755 12.5808 14.7755 12.5485 14.771C12.624 14.7822 12.7017 14.7933 12.7772 14.8022C12.7535 14.7978 12.7319 14.7911 12.7082 14.7822C12.7772 14.8111 12.8463 14.8423 12.9154 14.8713C12.8851 14.8579 12.8592 14.8423 12.8312 14.8223C12.8895 14.8691 12.9477 14.9158 13.006 14.9626C12.9801 14.9403 12.9585 14.9181 12.9391 14.8913C12.9844 14.9515 13.0297 15.0116 13.0751 15.0718C13.06 15.0495 13.0492 15.0294 13.0384 15.0049C13.0664 15.0762 13.0967 15.1475 13.1247 15.2188C13.1161 15.1921 13.1096 15.1698 13.1031 15.1431C13.1139 15.221 13.1247 15.3012 13.1333 15.3792C13.1333 15.3658 13.1312 15.3458 13.1312 15.3279C13.1226 15.094 13.0405 14.8646 12.8787 14.6975C12.7298 14.5438 12.4837 14.4257 12.2679 14.4369C11.8147 14.4569 11.3852 14.8289 11.4046 15.3279C11.4219 15.7623 11.6183 16.1521 11.9809 16.3816C12.3046 16.5865 12.706 16.611 13.0513 16.4595C13.2067 16.3905 13.3362 16.2925 13.4657 16.1811C13.6082 16.0586 13.7506 15.9361 13.893 15.8135C14.4844 15.3056 15.0757 14.8 15.6649 14.2921C16.3901 13.6706 17.113 13.0491 17.8382 12.4276C18.3562 11.982 18.8741 11.5388 19.3943 11.0932C19.4806 11.0197 19.5734 10.9507 19.6533 10.8705C20.1108 10.3982 20.1238 9.55617 19.6274 9.10399C19.5972 9.07726 19.5669 9.05276 19.5367 9.02602C19.0943 8.6451 18.6497 8.26643 18.2073 7.88549C17.4972 7.27734 16.7893 6.66923 16.0793 6.06108C15.4361 5.50865 14.7929 4.95619 14.1498 4.40596C13.9577 4.24112 13.7678 4.0785 13.5757 3.91366C13.5325 3.87579 13.4872 3.83792 13.4441 3.80005C13.1894 3.58174 12.898 3.41022 12.5505 3.44363C12.1426 3.48373 11.7757 3.67976 11.5664 4.05622C11.4585 4.25002 11.4088 4.47056 11.4067 4.69333C11.4045 4.83367 11.4067 4.97401 11.4067 5.11211V6.47986C11.4067 6.5801 11.4088 6.68034 11.4045 6.77835C11.4153 6.70039 11.4261 6.62019 11.4347 6.54223C11.4304 6.57341 11.4239 6.60014 11.4153 6.6291C11.4434 6.55782 11.4736 6.48654 11.5016 6.41525C11.4908 6.44421 11.4779 6.46649 11.4628 6.49322C11.5081 6.43307 11.5534 6.37293 11.5988 6.31278C11.575 6.34397 11.5491 6.3707 11.5189 6.3952C11.5772 6.34842 11.6354 6.30164 11.6937 6.25486C11.67 6.27046 11.6462 6.28382 11.6182 6.29496C11.6872 6.266 11.7563 6.23481 11.8254 6.20586C11.7973 6.21477 11.7714 6.22145 11.7412 6.22591C11.8167 6.21477 11.8944 6.20363 11.97 6.19472C11.5534 6.21477 11.1326 6.19695 10.7182 6.19695H8.15641H5.99605C5.8644 6.19695 5.73059 6.19472 5.59896 6.19695C4.93422 6.21031 4.42272 6.74937 4.4033 7.42881C4.40114 7.47336 4.4033 7.51791 4.4033 7.56246V9.66532V12.1068C4.4033 12.2605 4.40114 12.4142 4.4033 12.5657C4.41625 13.2518 4.94069 13.7798 5.60113 13.7976C5.64213 13.7998 5.68314 13.7976 5.72414 13.7976H7.53706H10.1614H11.8599C11.8966 13.7976 11.9333 13.7976 11.9722 13.7998C11.8966 13.7887 11.8189 13.7775 11.7434 13.7686C11.7736 13.7731 11.7995 13.7797 11.8276 13.7887C11.7585 13.7597 11.6895 13.7285 11.6204 13.6995C11.6484 13.7107 11.67 13.724 11.6959 13.7396C11.6377 13.6929 11.5794 13.6461 11.5211 13.5993C11.5513 13.6238 11.5772 13.6505 11.601 13.6817C11.5556 13.6216 11.5103 13.5614 11.465 13.5013C11.4801 13.5258 11.4931 13.5503 11.5038 13.5793C11.4758 13.508 11.4456 13.4367 11.4175 13.3654C11.4262 13.3944 11.4326 13.4211 11.4369 13.4523C11.4262 13.3743 11.4154 13.2941 11.4067 13.2162C11.4175 13.4545 11.4089 13.6951 11.4089 13.9357V15.0628V15.3235C11.4089 15.7891 11.806 16.2368 12.2722 16.2145C12.7362 16.1967 13.1312 15.8269 13.1312 15.3279L13.1313 15.3279Z" fill="white"/>
<path d="M9.89317 17.7202H7.41769H3.58688C3.24372 17.7202 2.88761 17.7469 2.54664 17.7002C2.62218 17.7113 2.69987 17.7224 2.77541 17.7313C2.61139 17.7068 2.45384 17.6623 2.30061 17.5977C2.36967 17.6266 2.43874 17.6578 2.5078 17.6868C2.35025 17.6177 2.20349 17.5286 2.06536 17.4217C2.12364 17.4685 2.18191 17.5153 2.24018 17.562C2.10637 17.4529 1.98551 17.3304 1.88192 17.1923C1.92724 17.2524 1.97256 17.3126 2.01789 17.3727C1.91429 17.2324 1.82796 17.0809 1.76106 16.916C1.78912 16.9873 1.81933 17.0586 1.84739 17.1299C1.7848 16.9717 1.74163 16.8091 1.7179 16.6398C1.72869 16.7178 1.73948 16.798 1.74811 16.876C1.72437 16.6844 1.72869 16.4906 1.72869 16.2968V15.3634V12.1802V8.29298V4.95377C1.72869 4.43919 1.72653 3.92461 1.72869 3.41226C1.72869 3.31647 1.73516 3.22069 1.74811 3.12713C1.73732 3.20509 1.72653 3.28529 1.7179 3.36325C1.74164 3.19396 1.7848 3.03134 1.84739 2.87319C1.81933 2.94447 1.78911 3.01576 1.76106 3.08704C1.82796 2.92443 1.91429 2.77295 2.01789 2.63038C1.97256 2.69053 1.92724 2.75067 1.88192 2.81082C1.98767 2.67271 2.10637 2.54796 2.24018 2.44103C2.18191 2.48781 2.12364 2.53459 2.06536 2.58137C2.20133 2.47445 2.34809 2.38534 2.5078 2.31629C2.43874 2.34525 2.36967 2.37643 2.30061 2.40539C2.45384 2.34079 2.61139 2.29624 2.77541 2.27174C2.69987 2.28288 2.62218 2.29401 2.54664 2.30292C2.83584 2.26283 3.13584 2.28288 3.42504 2.28288H5.10413H8.98892H9.89321C10.3443 2.28288 10.7781 1.87302 10.7565 1.39183C10.7349 0.90845 10.3766 0.50079 9.89321 0.50079H9.09899H7.22999H5.06316H3.34307C2.9028 0.50079 2.46037 0.482969 2.02871 0.616627C0.839526 0.981957 0.00647216 2.12694 0 3.4078V3.98251V5.34357V7.24819V9.44237V11.7078V13.7884V15.4435V16.4259C0 17.0452 0.114383 17.6689 0.464022 18.188C0.852502 18.7671 1.40501 19.2082 2.06975 19.3975C2.33952 19.4733 2.62225 19.5 2.9028 19.5H4.12652H6.16817H8.28105H9.69036H9.89107C10.3422 19.5 10.7759 19.0901 10.7544 18.609C10.7349 18.1278 10.3767 17.7202 9.89325 17.7202L9.89317 17.7202Z" fill="white"/>
</svg>
