<svg width="24" height="22" viewBox="0 0 24 22" fill="none" xmlns="http://www.w3.org/2000/svg">
<path d="M21.5118 1.81922H20.0052V0.625162C20.0052 0.281323 19.7239 0 19.38 0C19.0362 0 18.7549 0.281323 18.7549 0.625162V1.81922H12.6283V0.625162C12.6283 0.281323 12.347 0 12.0031 0C11.6593 0 11.378 0.281323 11.378 0.625162V1.81922H5.18885V0.625162C5.18885 0.281323 4.90752 0 4.56368 0C4.21984 0 3.93852 0.281323 3.93852 0.625162V1.81922H2.4944C1.11904 1.81922 0 2.97577 0 4.35113V18.8861C0 20.2678 1.11279 21.3868 2.4944 21.3868H21.5056C22.8872 21.3868 24 20.2678 24 18.8924V4.35113C24.0062 2.97577 22.8872 1.81922 21.5118 1.81922ZM22.7559 18.8861C22.7559 19.5738 22.2058 20.1302 21.5181 20.1365H2.4944C1.80672 20.1365 1.25032 19.5801 1.25032 18.8924V4.35113C1.25032 3.6572 1.80672 3.06955 2.4944 3.06955H3.93852V3.97603C3.93852 4.31987 4.21984 4.60119 4.56368 4.60119C4.90752 4.60119 5.18885 4.31987 5.18885 3.97603V3.06955H11.378V3.97603C11.378 4.31987 11.6593 4.60119 12.0031 4.60119C12.347 4.60119 12.6283 4.31987 12.6283 3.97603V3.06955H18.7549V3.97603C18.7549 4.31987 19.0362 4.60119 19.38 4.60119C19.7239 4.60119 20.0052 4.31987 20.0052 3.97603V3.06955H21.5118C22.2058 3.06955 22.7559 3.66345 22.7559 4.35113V18.8861Z" fill="#01AB6C"/>
<path d="M10.3589 7.1331H9.2649C8.92106 7.1331 8.63974 7.41442 8.63974 7.75826C8.63974 8.1021 8.92106 8.38342 9.2649 8.38342H10.3589C10.7028 8.38342 10.9841 8.1021 10.9841 7.75826C10.9841 7.41442 10.7028 7.1331 10.3589 7.1331Z" fill="#01AB6C"/>
<path d="M14.7101 7.1331H13.616C13.2722 7.1331 12.9909 7.41442 12.9909 7.75826C12.9909 8.1021 13.2722 8.38342 13.616 8.38342H14.7101C15.0539 8.38342 15.3352 8.1021 15.3352 7.75826C15.3352 7.41442 15.0602 7.1331 14.7101 7.1331Z" fill="#01AB6C"/>
<path d="M19.0987 7.1331H18.0047C17.6608 7.1331 17.3795 7.41442 17.3795 7.75826C17.3795 8.1021 17.6608 8.38342 18.0047 8.38342H19.0987C19.4425 8.38342 19.7239 8.1021 19.7239 7.75826C19.7239 7.41442 19.4425 7.1331 19.0987 7.1331Z" fill="#01AB6C"/>
<path d="M10.3589 11.4467H9.2649C8.92106 11.4467 8.63974 11.728 8.63974 12.0719C8.63974 12.4157 8.92106 12.697 9.2649 12.697H10.3589C10.7028 12.697 10.9841 12.4157 10.9841 12.0719C10.9841 11.728 10.7028 11.4467 10.3589 11.4467Z" fill="#01AB6C"/>
<path d="M5.97655 11.4467H4.87626C4.53243 11.4467 4.2511 11.728 4.2511 12.0719C4.2511 12.4157 4.53243 12.697 4.87626 12.697H5.9703C6.31414 12.697 6.59546 12.4157 6.59546 12.0719C6.59546 11.728 6.32039 11.4467 5.97655 11.4467Z" fill="#01AB6C"/>
<path d="M14.7101 11.4467H13.616C13.2722 11.4467 12.9909 11.728 12.9909 12.0719C12.9909 12.4157 13.2722 12.697 13.616 12.697H14.7101C15.0539 12.697 15.3352 12.4157 15.3352 12.0719C15.3352 11.728 15.0602 11.4467 14.7101 11.4467Z" fill="#01AB6C"/>
<path d="M19.0987 11.4467H18.0047C17.6608 11.4467 17.3795 11.728 17.3795 12.0719C17.3795 12.4157 17.6608 12.697 18.0047 12.697H19.0987C19.4425 12.697 19.7239 12.4157 19.7239 12.0719C19.7239 11.728 19.4425 11.4467 19.0987 11.4467Z" fill="#01AB6C"/>
<path d="M10.3589 15.6978H9.2649C8.92106 15.6978 8.63974 15.9791 8.63974 16.323C8.63974 16.6668 8.92106 16.9481 9.2649 16.9481H10.3589C10.7028 16.9481 10.9841 16.6668 10.9841 16.323C10.9841 15.9791 10.7028 15.6978 10.3589 15.6978Z" fill="#01AB6C"/>
<path d="M5.97655 15.6978H4.87626C4.53243 15.6978 4.2511 15.9791 4.2511 16.323C4.2511 16.6668 4.53243 16.9481 4.87626 16.9481H5.9703C6.31414 16.9481 6.59546 16.6668 6.59546 16.323C6.59546 15.9791 6.32039 15.6978 5.97655 15.6978Z" fill="#01AB6C"/>
<path d="M14.7101 15.6978H13.616C13.2722 15.6978 12.9909 15.9791 12.9909 16.323C12.9909 16.6668 13.2722 16.9481 13.616 16.9481H14.7101C15.0539 16.9481 15.3352 16.6668 15.3352 16.323C15.3352 15.9791 15.0602 15.6978 14.7101 15.6978Z" fill="#01AB6C"/>
</svg>
