<svg width="64" height="64" viewBox="0 0 64 64" fill="none" xmlns="http://www.w3.org/2000/svg">
<path d="M10 47H4V61H10V47Z" fill="#CFCFD9"/>
<path d="M20 41H14V61H20V41Z" fill="#CFCFD9"/>
<path d="M30 35H24V61H30V35Z" fill="#CFCFD9"/>
<path d="M40 31H34V61H40V31Z" fill="#CFCFD9"/>
<path d="M50 26H44V61H50V26Z" fill="#CFCFD9"/>
<path d="M60 19H54V61H60V19Z" fill="#CFCFD9"/>
<path d="M58 19H54V59H58V19Z" fill="#D9DAE2"/>
<path d="M48 26H44V59H48V26Z" fill="#D9DAE2"/>
<path d="M38 31H34V59H38V31Z" fill="#D9DAE2"/>
<path d="M28 35H24V59H28V35Z" fill="#D9DAE2"/>
<path d="M18 41H14V59H18V41Z" fill="#D9DAE2"/>
<path d="M8 47H4V59H8V47Z" fill="#D9DAE2"/>
<path d="M52.9991 3L54.3131 5.663L57.2521 6.09L55.1261 8.163L55.6281 11.09L52.9991 9.708L50.3701 11.09L50.8721 8.163L48.7461 6.09L51.6851 5.663L52.9991 3Z" fill="#94C7F2"/>
<path d="M38 11L41 14L34 21H21L6 36L9 39L23 25H36L44 17L47 20V11H38Z" fill="#008E5A"/>
<path d="M41 14L34 21H21L6 36L9 39L23 25H36L41 20C41.394 19.6061 41.7066 19.1384 41.9199 18.6236C42.1331 18.1089 42.2429 17.5572 42.2429 17C42.2429 16.4428 42.1331 15.8911 41.9199 15.3764C41.7066 14.8616 41.394 14.3939 41 14Z" fill="#01AB6C"/>
<path d="M5 52V48H9L5 52Z" fill="white"/>
<path d="M15 46V42H19L15 46Z" fill="white"/>
<path d="M25 40V36H29L25 40Z" fill="white"/>
<path d="M35 36V32H39L35 36Z" fill="white"/>
<path d="M45 31V27H49L45 31Z" fill="white"/>
<path d="M55 24V20H59L55 24Z" fill="white"/>
<path d="M10 62H4C3.73478 62 3.48043 61.8946 3.29289 61.7071C3.10536 61.5196 3 61.2652 3 61V47C3 46.7348 3.10536 46.4804 3.29289 46.2929C3.48043 46.1054 3.73478 46 4 46H10C10.2652 46 10.5196 46.1054 10.7071 46.2929C10.8946 46.4804 11 46.7348 11 47V61C11 61.2652 10.8946 61.5196 10.7071 61.7071C10.5196 61.8946 10.2652 62 10 62ZM5 60H9V48H5V60Z" fill="black"/>
<path d="M20 62H14C13.7348 62 13.4804 61.8946 13.2929 61.7071C13.1054 61.5196 13 61.2652 13 61V41C13 40.7348 13.1054 40.4804 13.2929 40.2929C13.4804 40.1054 13.7348 40 14 40H20C20.2652 40 20.5196 40.1054 20.7071 40.2929C20.8946 40.4804 21 40.7348 21 41V61C21 61.2652 20.8946 61.5196 20.7071 61.7071C20.5196 61.8946 20.2652 62 20 62ZM15 60H19V42H15V60Z" fill="black"/>
<path d="M30 62H24C23.7348 62 23.4804 61.8946 23.2929 61.7071C23.1054 61.5196 23 61.2652 23 61V35C23 34.7348 23.1054 34.4804 23.2929 34.2929C23.4804 34.1054 23.7348 34 24 34H30C30.2652 34 30.5196 34.1054 30.7071 34.2929C30.8946 34.4804 31 34.7348 31 35V61C31 61.2652 30.8946 61.5196 30.7071 61.7071C30.5196 61.8946 30.2652 62 30 62ZM25 60H29V36H25V60Z" fill="black"/>
<path d="M40 62H34C33.7348 62 33.4804 61.8946 33.2929 61.7071C33.1054 61.5196 33 61.2652 33 61V31C33 30.7348 33.1054 30.4804 33.2929 30.2929C33.4804 30.1054 33.7348 30 34 30H40C40.2652 30 40.5196 30.1054 40.7071 30.2929C40.8946 30.4804 41 30.7348 41 31V61C41 61.2652 40.8946 61.5196 40.7071 61.7071C40.5196 61.8946 40.2652 62 40 62ZM35 60H39V32H35V60Z" fill="black"/>
<path d="M50 62H44C43.7348 62 43.4804 61.8946 43.2929 61.7071C43.1054 61.5196 43 61.2652 43 61V26C43 25.7348 43.1054 25.4804 43.2929 25.2929C43.4804 25.1054 43.7348 25 44 25H50C50.2652 25 50.5196 25.1054 50.7071 25.2929C50.8946 25.4804 51 25.7348 51 26V61C51 61.2652 50.8946 61.5196 50.7071 61.7071C50.5196 61.8946 50.2652 62 50 62ZM45 60H49V27H45V60Z" fill="black"/>
<path d="M60 62H54C53.7348 62 53.4804 61.8946 53.2929 61.7071C53.1054 61.5196 53 61.2652 53 61V19C53 18.7348 53.1054 18.4804 53.2929 18.2929C53.4804 18.1054 53.7348 18 54 18H60C60.2652 18 60.5196 18.1054 60.7071 18.2929C60.8946 18.4804 61 18.7348 61 19V61C61 61.2652 60.8946 61.5196 60.7071 61.7071C60.5196 61.8946 60.2652 62 60 62ZM55 60H59V20H55V60Z" fill="black"/>
<path d="M55.6279 12.0899C55.4657 12.0897 55.3059 12.0506 55.1619 11.9759L52.9989 10.8379L50.8359 11.9759C50.6707 12.0628 50.4844 12.1017 50.2982 12.0883C50.112 12.0748 49.9333 12.0095 49.7823 11.8997C49.6313 11.7899 49.514 11.64 49.4438 11.467C49.3736 11.2941 49.3532 11.1049 49.3849 10.9209L49.7989 8.5119L48.0489 6.8059C47.9153 6.67594 47.8206 6.51122 47.7756 6.33033C47.7307 6.14944 47.7371 5.95958 47.7943 5.78217C47.8515 5.60476 47.9572 5.44687 48.0993 5.32631C48.2415 5.20575 48.4145 5.12733 48.5989 5.0999L51.0159 4.7479L52.0989 2.5579C52.1908 2.40197 52.3218 2.27272 52.4789 2.18293C52.6361 2.09313 52.8139 2.0459 52.9949 2.0459C53.1759 2.0459 53.3538 2.09313 53.5109 2.18293C53.668 2.27272 53.799 2.40197 53.8909 2.5579L54.9739 4.7489L57.3989 5.0999C57.5835 5.12671 57.7569 5.2046 57.8995 5.32478C58.0422 5.44496 58.1483 5.60263 58.2061 5.77999C58.2638 5.95734 58.2708 6.14731 58.2262 6.32842C58.1817 6.50953 58.0873 6.67457 57.9539 6.8049L56.1989 8.5119L56.6119 10.9209C56.6365 11.0644 56.6295 11.2115 56.5913 11.352C56.5532 11.4925 56.4848 11.6229 56.391 11.7343C56.2972 11.8456 56.1802 11.9351 56.0483 11.9965C55.9163 12.0579 55.7725 12.0898 55.6269 12.0899H55.6279ZM52.9989 8.7079C53.1613 8.70783 53.3212 8.7473 53.4649 8.8229L54.2999 9.2619L54.1409 8.3319C54.1134 8.17217 54.1252 8.00816 54.1752 7.85399C54.2252 7.69982 54.3119 7.56011 54.4279 7.4469L55.1029 6.7889L54.1699 6.6529C54.0094 6.6295 53.8569 6.56738 53.7257 6.47191C53.5945 6.37643 53.4885 6.25048 53.4169 6.1049L52.9989 5.2589L52.5809 6.1049C52.5093 6.25048 52.4033 6.37643 52.2721 6.47191C52.1409 6.56738 51.9885 6.6295 51.8279 6.6529L50.8949 6.7889L51.5699 7.4469C51.6859 7.56011 51.7726 7.69982 51.8226 7.85399C51.8726 8.00816 51.8844 8.17217 51.8569 8.3319L51.6979 9.2619L52.5329 8.8229C52.6766 8.7473 52.8365 8.70783 52.9989 8.7079Z" fill="white"/>
</svg>
