<svg width="50" height="55" viewBox="0 0 50 55" fill="none" xmlns="http://www.w3.org/2000/svg">
<path d="M7.8125 40.3906H3.125V52.4219H7.8125V40.3906Z" fill="white"/>
<path d="M15.625 35.2344H10.9375V52.4219H15.625V35.2344Z" fill="white"/>
<path d="M23.4375 30.0781H18.75V52.4219H23.4375V30.0781Z" fill="white"/>
<path d="M31.25 26.6406H26.5625V52.4219H31.25V26.6406Z" fill="white"/>
<path d="M39.0664 22.3438H34.3789V52.4219H39.0664V22.3438Z" fill="white"/>
<path d="M46.875 16.3281H42.1875V52.4219H46.875V16.3281Z" fill="white"/>
<path d="M45.3125 16.3281H42.1875V50.7031H45.3125V16.3281Z" fill="white"/>
<path d="M37.5039 22.3438H34.3789V50.7031H37.5039V22.3438Z" fill="white"/>
<path d="M29.6875 26.6406H26.5625V50.7031H29.6875V26.6406Z" fill="white"/>
<path d="M21.875 30.0781H18.75V50.7031H21.875V30.0781Z" fill="white"/>
<path d="M14.0625 35.2344H10.9375V50.7031H14.0625V35.2344Z" fill="white"/>
<path d="M6.25 40.3906H3.125V50.7031H6.25V40.3906Z" fill="white"/>
<path d="M29.6875 9.45312L32.0313 12.0312L26.5625 18.0469H16.4063L4.6875 30.9375L7.03125 33.5156L17.9688 21.4844H28.125L34.375 14.6094L36.7188 17.1875V9.45312H29.6875Z" fill="white"/>
<path d="M32.0313 12.0312L26.5625 18.0469H16.4062L4.6875 30.9375L7.03125 33.5156L17.9688 21.4844H28.125L32.0313 17.1875C32.3391 16.849 32.5833 16.4471 32.7499 16.0047C32.9165 15.5623 33.0023 15.0882 33.0023 14.6094C33.0023 14.1306 32.9165 13.6564 32.7499 13.2141C32.5833 12.7717 32.3391 12.3698 32.0313 12.0312Z" fill="white"/>
<path d="M3.91016 44.6875V41.25H7.03516L3.91016 44.6875Z" fill="white"/>
<path d="M11.7188 39.5312V36.0938H14.8438L11.7188 39.5312Z" fill="white"/>
<path d="M19.5312 34.375V30.9375H22.6562L19.5312 34.375Z" fill="white"/>
<path d="M27.3438 30.9375V27.5H30.4687L27.3438 30.9375Z" fill="white"/>
<path d="M35.1562 26.6406V23.2031H38.2813L35.1562 26.6406Z" fill="white"/>
<path d="M42.9688 20.625V17.1875H46.0938L42.9688 20.625Z" fill="white"/>
<path d="M7.81641 53.2812H3.12891C2.92171 53.2812 2.72299 53.1907 2.57648 53.0295C2.42997 52.8684 2.34766 52.6498 2.34766 52.4219V40.3906C2.34766 40.1627 2.42997 39.9441 2.57648 39.783C2.72299 39.6218 2.92171 39.5312 3.12891 39.5312H7.81641C8.02361 39.5312 8.22232 39.6218 8.36883 39.783C8.51535 39.9441 8.59766 40.1627 8.59766 40.3906V52.4219C8.59766 52.6498 8.51535 52.8684 8.36883 53.0295C8.22232 53.1907 8.02361 53.2812 7.81641 53.2812ZM3.91016 51.5625H7.03516V41.25H3.91016V51.5625Z" fill="white"/>
<path d="M15.625 53.2812H10.9375C10.7303 53.2812 10.5316 53.1907 10.3851 53.0295C10.2386 52.8684 10.1562 52.6498 10.1562 52.4219V35.2344C10.1562 35.0065 10.2386 34.7879 10.3851 34.6267C10.5316 34.4655 10.7303 34.375 10.9375 34.375H15.625C15.8322 34.375 16.0309 34.4655 16.1774 34.6267C16.3239 34.7879 16.4062 35.0065 16.4062 35.2344V52.4219C16.4062 52.6498 16.3239 52.8684 16.1774 53.0295C16.0309 53.1907 15.8322 53.2812 15.625 53.2812ZM11.7188 51.5625H14.8438V36.0938H11.7188V51.5625Z" fill="white"/>
<path d="M23.4414 53.2812H18.7539C18.5467 53.2812 18.348 53.1907 18.2015 53.0295C18.055 52.8684 17.9727 52.6498 17.9727 52.4219V30.0781C17.9727 29.8502 18.055 29.6316 18.2015 29.4705C18.348 29.3093 18.5467 29.2188 18.7539 29.2188H23.4414C23.6486 29.2188 23.8473 29.3093 23.9938 29.4705C24.1403 29.6316 24.2227 29.8502 24.2227 30.0781V52.4219C24.2227 52.6498 24.1403 52.8684 23.9938 53.0295C23.8473 53.1907 23.6486 53.2812 23.4414 53.2812ZM19.5352 51.5625H22.6602V30.9375H19.5352V51.5625Z" fill="white"/>
<path d="M31.2539 53.2813H26.5664C26.3592 53.2813 26.1605 53.1907 26.014 53.0295C25.8675 52.8684 25.7852 52.6498 25.7852 52.4219V26.6406C25.7852 26.4127 25.8675 26.1941 26.014 26.033C26.1605 25.8718 26.3592 25.7812 26.5664 25.7812H31.2539C31.4611 25.7812 31.6598 25.8718 31.8063 26.033C31.9528 26.1941 32.0352 26.4127 32.0352 26.6406V52.4219C32.0352 52.6498 31.9528 52.8684 31.8063 53.0295C31.6598 53.1907 31.4611 53.2813 31.2539 53.2813ZM27.3477 51.5625H30.4727V27.5H27.3477V51.5625Z" fill="white"/>
<path d="M39.0625 53.2813H34.375C34.1678 53.2813 33.9691 53.1907 33.8226 53.0296C33.6761 52.8684 33.5938 52.6498 33.5938 52.4219V22.3438C33.5938 22.1158 33.6761 21.8972 33.8226 21.7361C33.9691 21.5749 34.1678 21.4844 34.375 21.4844H39.0625C39.2697 21.4844 39.4684 21.5749 39.6149 21.7361C39.7614 21.8972 39.8438 22.1158 39.8438 22.3438V52.4219C39.8438 52.6498 39.7614 52.8684 39.6149 53.0296C39.4684 53.1907 39.2697 53.2813 39.0625 53.2813ZM35.1562 51.5625H38.2812V23.2031H35.1562V51.5625Z" fill="white"/>
<path d="M46.875 53.2813H42.1875C41.9803 53.2813 41.7816 53.1907 41.6351 53.0295C41.4886 52.8684 41.4062 52.6498 41.4062 52.4219V16.3281C41.4062 16.1002 41.4886 15.8816 41.6351 15.7205C41.7816 15.5593 41.9803 15.4688 42.1875 15.4688H46.875C47.0822 15.4688 47.2809 15.5593 47.4274 15.7205C47.5739 15.8816 47.6562 16.1002 47.6562 16.3281V52.4219C47.6562 52.6498 47.5739 52.8684 47.4274 53.0295C47.2809 53.1907 47.0822 53.2813 46.875 53.2813ZM42.9688 51.5625H46.0938V17.1875H42.9688V51.5625Z" fill="white"/>
<path d="M43.4623 10.3894C43.3356 10.3892 43.2108 10.3556 43.0983 10.2914L41.4084 9.31344L39.7186 10.2914C39.5895 10.3661 39.444 10.3996 39.2985 10.388C39.153 10.3764 39.0134 10.3203 38.8955 10.2259C38.7775 10.1316 38.6859 10.0028 38.631 9.85411C38.5762 9.70546 38.5602 9.54287 38.585 9.38477L38.9084 7.31453L37.5413 5.84844C37.4369 5.73676 37.3629 5.5952 37.3278 5.43975C37.2926 5.28429 37.2977 5.12113 37.3424 4.96867C37.3871 4.81621 37.4696 4.68052 37.5807 4.57692C37.6917 4.47331 37.8269 4.40592 37.9709 4.38234L39.8592 4.07984L40.7053 2.19781C40.7771 2.06381 40.8794 1.95274 41.0022 1.87557C41.125 1.7984 41.2639 1.75781 41.4053 1.75781C41.5467 1.75781 41.6857 1.7984 41.8084 1.87557C41.9312 1.95274 42.0335 2.06381 42.1053 2.19781L42.9514 4.0807L44.8459 4.38234C44.9901 4.40538 45.1256 4.47232 45.237 4.5756C45.3485 4.67888 45.4314 4.81438 45.4765 4.9668C45.5216 5.11921 45.5271 5.28246 45.4923 5.43811C45.4575 5.59375 45.3838 5.73558 45.2795 5.84758L43.9084 7.31453L44.2311 9.38477C44.2503 9.50807 44.2448 9.6345 44.215 9.75523C44.1852 9.87596 44.1318 9.98808 44.0585 10.0837C43.9852 10.1794 43.8939 10.2563 43.7907 10.3091C43.6876 10.3619 43.5753 10.3893 43.4616 10.3894H43.4623ZM41.4084 7.48297C41.5353 7.48291 41.6602 7.51683 41.7725 7.5818L42.4248 7.95906L42.3006 7.15984C42.2792 7.02258 42.2884 6.88163 42.3274 6.74914C42.3665 6.61665 42.4342 6.49659 42.5248 6.3993L43.0522 5.83383L42.3233 5.71695C42.1979 5.69684 42.0788 5.64346 41.9763 5.56141C41.8738 5.47937 41.791 5.37112 41.735 5.24602L41.4084 4.51898L41.0819 5.24602C41.0259 5.37112 40.9431 5.47937 40.8406 5.56141C40.7381 5.64346 40.619 5.69684 40.4936 5.71695L39.7647 5.83383L40.292 6.3993C40.3826 6.49659 40.4504 6.61665 40.4895 6.74914C40.5285 6.88163 40.5377 7.02258 40.5163 7.15984L40.392 7.95906L41.0444 7.5818C41.1566 7.51683 41.2816 7.48291 41.4084 7.48297Z" fill="white"/>
</svg>
