<svg width="207" height="207" viewBox="0 0 207 207" fill="none" xmlns="http://www.w3.org/2000/svg">
<circle opacity="0.1" cx="103.5" cy="103.5" r="103.5" fill="#01AB6C"/>
<circle opacity="0.2" cx="103.5" cy="103.5" r="72.7792" fill="#01AB6C"/>
<circle cx="103.501" cy="103.501" r="44.2527" fill="#01AB6C"/>
<g clip-path="url(#clip0_2347_59777)">
<path d="M114.837 102.402H92.8931C92.4081 102.402 91.943 102.595 91.6 102.938C91.2571 103.281 91.0645 103.746 91.0645 104.231C91.0645 107.626 92.4131 110.882 94.8136 113.282C97.2141 115.683 100.47 117.031 103.865 117.031C107.26 117.031 110.515 115.683 112.916 113.282C115.317 110.882 116.665 107.626 116.665 104.231C116.665 103.746 116.473 103.281 116.13 102.938C115.787 102.595 115.322 102.402 114.837 102.402Z" fill="#CACACA"/>
<path d="M130.292 25.1684C126.513 21.5616 122.033 18.7697 117.13 16.966C112.228 15.1623 107.007 14.3853 101.791 14.6831C94.1148 15.0933 86.7387 17.7994 80.6186 22.451C74.4985 27.1025 69.9164 33.4849 67.4662 40.7711C65.0161 48.0574 64.8108 55.9116 66.8769 63.3159C68.943 70.7202 73.1852 77.3333 79.054 82.2982C80.5301 83.5513 81.7151 85.1114 82.5261 86.8696C83.3372 88.6279 83.7548 90.5419 83.7499 92.4782V99.5513C83.7499 104.022 86.5934 106.059 89.2358 106.059H118.494C119.949 106.059 121.344 105.481 122.373 104.453C123.402 103.424 123.98 102.028 123.98 100.573V92.491C123.947 90.5935 124.333 88.7121 125.109 86.9803C125.885 85.2485 127.033 83.7087 128.471 82.4701C132.631 79.0024 136.01 74.693 138.385 69.8253C140.76 64.9577 142.077 59.6423 142.25 54.2289C142.423 48.8155 141.447 43.427 139.387 38.4178C137.328 33.4086 134.23 28.8925 130.299 25.1666L130.292 25.1684Z" fill="white"/>
<path d="M103.864 51.2014C118.003 51.2014 129.465 39.7396 129.465 25.6007C129.465 11.4618 118.003 0 103.864 0C89.7255 0 78.2637 11.4618 78.2637 25.6007C78.2637 39.7396 89.7255 51.2014 103.864 51.2014Z" fill="#01AB6C"/>
<path d="M103.865 45.716C114.974 45.716 123.98 36.7103 123.98 25.6012C123.98 14.492 114.974 5.48633 103.865 5.48633C92.7557 5.48633 83.75 14.492 83.75 25.6012C83.75 36.7103 92.7557 45.716 103.865 45.716Z" fill="#CACACA"/>
<path d="M113.009 21.9439C113.004 20.8133 112.65 19.7118 111.996 18.7901C111.341 17.8683 110.418 17.1713 109.352 16.7945V14.6294C109.352 14.1444 109.159 13.6793 108.816 13.3364C108.473 12.9934 108.008 12.8008 107.523 12.8008C107.038 12.8008 106.573 12.9934 106.23 13.3364C105.887 13.6793 105.694 14.1444 105.694 14.6294V16.458H103.866V14.6294C103.866 14.1444 103.673 13.6793 103.33 13.3364C102.987 12.9934 102.522 12.8008 102.037 12.8008C101.552 12.8008 101.087 12.9934 100.744 13.3364C100.401 13.6793 100.209 14.1444 100.209 14.6294V16.458H96.5513C96.0663 16.458 95.6012 16.6507 95.2582 16.9936C94.9153 17.3365 94.7227 17.8017 94.7227 18.2866C94.7227 18.7716 94.9153 19.2367 95.2582 19.5797C95.6012 19.9226 96.0663 20.1153 96.5513 20.1153H98.3799V31.087H96.5513C96.0663 31.087 95.6012 31.2797 95.2582 31.6226C94.9153 31.9655 94.7227 32.4306 94.7227 32.9156C94.7227 33.4006 94.9153 33.8657 95.2582 34.2087C95.6012 34.5516 96.0663 34.7442 96.5513 34.7442H100.209V36.5729C100.209 37.0578 100.401 37.523 100.744 37.8659C101.087 38.2088 101.552 38.4015 102.037 38.4015C102.522 38.4015 102.987 38.2088 103.33 37.8659C103.673 37.523 103.866 37.0578 103.866 36.5729V34.7442H105.694V36.5729C105.694 37.0578 105.887 37.523 106.23 37.8659C106.573 38.2088 107.038 38.4015 107.523 38.4015C108.008 38.4015 108.473 38.2088 108.816 37.8659C109.159 37.523 109.352 37.0578 109.352 36.5729V34.4078C110.203 34.1132 110.968 33.6116 111.577 32.948C112.187 32.2844 112.622 31.4797 112.843 30.6063C113.064 29.7329 113.065 28.8183 112.845 27.9445C112.625 27.0708 112.191 26.2656 111.583 25.6011C112.496 24.6015 113.004 23.2978 113.009 21.9439ZM102.037 20.1153H107.523C108.008 20.1153 108.473 20.3079 108.816 20.6509C109.159 20.9938 109.352 21.4589 109.352 21.9439C109.352 22.4289 109.159 22.894 108.816 23.2369C108.473 23.5799 108.008 23.7725 107.523 23.7725H102.037V20.1153ZM107.523 31.087H102.037V27.4298H107.523C108.008 27.4298 108.473 27.6224 108.816 27.9653C109.159 28.3083 109.352 28.7734 109.352 29.2584C109.352 29.7434 109.159 30.2085 108.816 30.5514C108.473 30.8943 108.008 31.087 107.523 31.087Z" fill="#01AB6C"/>
<path d="M105.694 0.0731449V7.31449C105.694 7.79947 105.502 8.26458 105.159 8.60752C104.816 8.95045 104.351 9.14311 103.866 9.14311C103.381 9.14311 102.916 8.95045 102.573 8.60752C102.23 8.26458 102.037 7.79947 102.037 7.31449V0.0731449C102.641 0.0182862 103.244 0 103.866 0C104.487 0 105.091 0.0182862 105.694 0.0731449Z" fill="#CACACA"/>
<path d="M123.213 8.85055L118.092 13.9707C117.745 14.309 117.279 14.4991 116.794 14.501C116.31 14.4957 115.845 14.3061 115.496 13.9707C115.153 13.6254 114.961 13.1588 114.961 12.6724C114.961 12.186 115.153 11.7193 115.496 11.374L120.616 6.25391C121.544 7.05428 122.412 7.92219 123.213 8.85055Z" fill="#CACACA"/>
<path d="M129.465 25.6001C129.465 26.2218 129.447 26.8253 129.392 27.4287H122.151C121.666 27.4287 121.201 27.2361 120.858 26.8931C120.515 26.5502 120.322 26.0851 120.322 25.6001C120.322 25.1151 120.515 24.65 120.858 24.3071C121.201 23.9641 121.666 23.7715 122.151 23.7715H129.392C129.447 24.3749 129.465 24.9784 129.465 25.6001Z" fill="#CACACA"/>
<path d="M123.212 42.3513C122.411 43.2796 121.543 44.1475 120.615 44.9479L115.495 39.8278C115.15 39.4834 114.957 39.0164 114.957 38.5295C114.957 38.0425 115.15 37.5755 115.495 37.2311C115.839 36.8868 116.306 36.6934 116.793 36.6934C117.28 36.6934 117.747 36.8868 118.091 37.2311L123.212 42.3513Z" fill="#CACACA"/>
<path d="M105.694 43.8872V51.1286C105.091 51.1834 104.487 51.2017 103.866 51.2017C103.244 51.2017 102.641 51.1834 102.037 51.1286V43.8872C102.037 43.4022 102.23 42.9371 102.573 42.5942C102.916 42.2513 103.381 42.0586 103.866 42.0586C104.351 42.0586 104.816 42.2513 105.159 42.5942C105.502 42.9371 105.694 43.4022 105.694 43.8872Z" fill="#CACACA"/>
<path d="M92.2356 39.8278L87.1155 44.9296C86.1844 44.1449 85.3219 43.2823 84.5371 42.3513L89.639 37.2311C89.9833 36.8868 90.4503 36.6934 90.9373 36.6934C91.4243 36.6934 91.8913 36.8868 92.2356 37.2311C92.5799 37.5755 92.7734 38.0425 92.7734 38.5295C92.7734 39.0164 92.5799 39.4834 92.2356 39.8278Z" fill="#CACACA"/>
<path d="M87.4068 25.6001C87.4068 26.0851 87.2141 26.5502 86.8712 26.8931C86.5283 27.2361 86.0631 27.4287 85.5782 27.4287H78.3368C78.282 26.8253 78.2637 26.2218 78.2637 25.6001C78.2637 24.9784 78.282 24.3749 78.3368 23.7715H85.5782C86.0631 23.7715 86.5283 23.9641 86.8712 24.3071C87.2141 24.65 87.4068 25.1151 87.4068 25.6001Z" fill="#CACACA"/>
<path d="M92.2344 13.9707C91.8847 14.3061 91.4205 14.4957 90.936 14.501C90.4509 14.4991 89.9855 14.309 89.6377 13.9707L84.5176 8.85055C85.318 7.92219 86.1859 7.05428 87.1142 6.25391L92.2344 11.374C92.577 11.7193 92.7692 12.186 92.7692 12.6724C92.7692 13.1588 92.577 13.6254 92.2344 13.9707Z" fill="#CACACA"/>
<path d="M107.523 96.9172C107.038 96.9172 106.573 96.7245 106.23 96.3816C105.887 96.0387 105.694 95.5735 105.694 95.0886V71.3165H102.037V95.0886C102.037 95.5735 101.845 96.0387 101.502 96.3816C101.159 96.7245 100.694 96.9172 100.209 96.9172C99.7236 96.9172 99.2585 96.7245 98.9155 96.3816C98.5726 96.0387 98.3799 95.5735 98.3799 95.0886V71.3165H94.7227C93.276 71.3165 91.8618 70.8875 90.659 70.0838C89.4561 69.28 88.5186 68.1377 87.965 66.8011C87.4114 65.4646 87.2665 63.9939 87.5488 62.575C87.831 61.1561 88.5276 59.8528 89.5506 58.8299C90.5735 57.8069 91.8768 57.1103 93.2957 56.828C94.7146 56.5458 96.1853 56.6907 97.5218 57.2443C98.8584 57.7979 100.001 58.7354 100.804 59.9383C101.608 61.1411 102.037 62.5553 102.037 64.002V67.6592H105.694V64.002C105.694 62.5553 106.123 61.1411 106.927 59.9383C107.731 58.7354 108.873 57.7979 110.21 57.2443C111.546 56.6907 113.017 56.5458 114.436 56.828C115.855 57.1103 117.158 57.8069 118.181 58.8299C119.204 59.8528 119.901 61.1561 120.183 62.575C120.465 63.9939 120.32 65.4646 119.767 66.8011C119.213 68.1377 118.275 69.28 117.073 70.0838C115.87 70.8875 114.456 71.3165 113.009 71.3165H109.352V95.0886C109.352 95.5735 109.159 96.0387 108.816 96.3816C108.473 96.7245 108.008 96.9172 107.523 96.9172ZM109.352 67.6592H113.009C113.732 67.6592 114.439 67.4447 115.041 67.0429C115.642 66.641 116.111 66.0698 116.388 65.4016C116.665 64.7333 116.737 63.9979 116.596 63.2885C116.455 62.5791 116.106 61.9274 115.595 61.4159C115.083 60.9045 114.432 60.5561 113.722 60.415C113.013 60.2739 112.278 60.3463 111.609 60.6231C110.941 60.8999 110.37 61.3687 109.968 61.9701C109.566 62.5716 109.352 63.2787 109.352 64.002V67.6592ZM94.7227 60.3447C93.7527 60.3447 92.8225 60.7301 92.1366 61.4159C91.4508 62.1018 91.0655 63.032 91.0655 64.002C91.0655 64.972 91.4508 65.9022 92.1366 66.5881C92.8225 67.2739 93.7527 67.6592 94.7227 67.6592H98.3799V64.002C98.3799 63.032 97.9946 62.1018 97.3088 61.4159C96.6229 60.7301 95.6927 60.3447 94.7227 60.3447Z" fill="#01AB6C"/>
<path d="M158.724 54.8584H147.752C147.267 54.8584 146.802 54.6658 146.459 54.3228C146.116 53.9799 145.924 53.5148 145.924 53.0298C145.924 52.5448 146.116 52.0797 146.459 51.7368C146.802 51.3938 147.267 51.2012 147.752 51.2012H158.724C159.209 51.2012 159.674 51.3938 160.017 51.7368C160.36 52.0797 160.553 52.5448 160.553 53.0298C160.553 53.5148 160.36 53.9799 160.017 54.3228C159.674 54.6658 159.209 54.8584 158.724 54.8584Z" fill="#01AB6C"/>
<path d="M147.752 45.7148C147.352 45.7151 146.963 45.5843 146.645 45.3424C146.326 45.1006 146.096 44.761 145.989 44.3757C145.882 43.9905 145.904 43.5807 146.052 43.2093C146.2 42.8378 146.465 42.5251 146.808 42.3191L155.951 36.8332C156.157 36.7043 156.387 36.6178 156.626 36.5786C156.866 36.5394 157.111 36.5484 157.348 36.6051C157.584 36.6617 157.806 36.7648 158.002 36.9084C158.198 37.052 158.364 37.2332 158.489 37.4414C158.614 37.6496 158.696 37.8807 158.731 38.1211C158.766 38.3615 158.752 38.6064 158.692 38.8416C158.631 39.0768 158.524 39.2974 158.376 39.4907C158.229 39.684 158.045 39.8461 157.835 39.9674L148.692 45.4533C148.408 45.6245 148.083 45.7149 147.752 45.7148Z" fill="#01AB6C"/>
<path d="M156.895 69.4874C156.563 69.4876 156.238 69.3971 155.955 69.2259L146.812 63.7401C146.405 63.4858 146.115 63.0823 146.004 62.6162C145.892 62.1501 145.968 61.6589 146.214 61.2481C146.461 60.8373 146.86 60.5398 147.323 60.4197C147.787 60.2996 148.28 60.3664 148.695 60.6058L157.838 66.0917C158.181 66.2977 158.447 66.6105 158.595 66.9819C158.743 67.3534 158.765 67.7631 158.658 68.1484C158.551 68.5337 158.32 68.8732 158.002 69.1151C157.684 69.3569 157.295 69.4877 156.895 69.4874Z" fill="#01AB6C"/>
<path d="M59.9781 54.8584H49.0064C48.5214 54.8584 48.0563 54.6658 47.7133 54.3228C47.3704 53.9799 47.1777 53.5148 47.1777 53.0298C47.1777 52.5448 47.3704 52.0797 47.7133 51.7368C48.0563 51.3938 48.5214 51.2012 49.0064 51.2012H59.9781C60.4631 51.2012 60.9282 51.3938 61.2711 51.7368C61.6141 52.0797 61.8067 52.5448 61.8067 53.0298C61.8067 53.5148 61.6141 53.9799 61.2711 54.3228C60.9282 54.6658 60.4631 54.8584 59.9781 54.8584Z" fill="#01AB6C"/>
<path d="M59.9787 45.716C59.6474 45.7161 59.3224 45.6257 59.0388 45.4545L49.8957 39.9686C49.4894 39.7144 49.1992 39.3108 49.0875 38.8447C48.9758 38.3787 49.0515 37.8874 49.2984 37.4766C49.5452 37.0658 49.9435 36.7683 50.4074 36.6482C50.8714 36.5281 51.364 36.5949 51.7792 36.8343L60.9223 42.3202C61.265 42.5263 61.5307 42.839 61.6787 43.2104C61.8267 43.5819 61.8489 43.9916 61.7418 44.3769C61.6348 44.7622 61.4044 45.1017 61.086 45.3436C60.7675 45.5854 60.3786 45.7162 59.9787 45.716Z" fill="#01AB6C"/>
<path d="M50.8357 69.4874C50.4359 69.4877 50.0469 69.3569 49.7285 69.1151C49.4101 68.8732 49.1797 68.5337 49.0726 68.1484C48.9656 67.7631 48.9877 67.3534 49.1358 66.9819C49.2838 66.6105 49.5495 66.2977 49.8922 66.0917L59.0353 60.6058C59.4505 60.3664 59.943 60.2996 60.407 60.4197C60.871 60.5398 61.2692 60.8373 61.5161 61.2481C61.763 61.6589 61.8387 62.1501 61.727 62.6162C61.6152 63.0823 61.325 63.4858 60.9188 63.7401L51.7756 69.2259C51.492 69.3971 51.167 69.4876 50.8357 69.4874Z" fill="#01AB6C"/>
<path d="M83.75 95.0879V99.5516C83.75 104.023 86.5935 106.06 89.2359 106.06H118.494C119.949 106.06 121.344 105.482 122.373 104.453C123.402 103.424 123.98 102.029 123.98 100.574V95.0879H83.75Z" fill="#01AB6C"/>
<path d="M127.636 96.917H80.0923C79.6073 96.917 79.1422 96.7244 78.7993 96.3814C78.4563 96.0385 78.2637 95.5734 78.2637 95.0884C78.2637 94.6034 78.4563 94.1383 78.7993 93.7954C79.1422 93.4524 79.6073 93.2598 80.0923 93.2598H127.636C128.121 93.2598 128.587 93.4524 128.929 93.7954C129.272 94.1383 129.465 94.6034 129.465 95.0884C129.465 95.5734 129.272 96.0385 128.929 96.3814C128.587 96.7244 128.121 96.917 127.636 96.917Z" fill="#CACACA"/>
</g>
<defs>
<clipPath id="clip0_2347_59777">
<rect width="117.032" height="117.032" fill="white" transform="translate(45.3496)"/>
</clipPath>
</defs>
</svg>
