<svg width="130" height="73" viewBox="0 0 130 73" fill="none" xmlns="http://www.w3.org/2000/svg">
<path d="M24.7911 53.0576C24.2993 53.0884 23.9382 53.1498 23.7077 53.242C23.4926 53.3342 23.3466 53.511 23.2698 53.7722C23.1929 54.0334 23.1545 54.456 23.1545 55.0399V66.4727C23.1545 67.0567 23.1929 67.4792 23.2698 67.7405C23.362 68.0017 23.5156 68.1784 23.7308 68.2706C23.9459 68.3628 24.2993 68.4243 24.7911 68.455V68.916C23.8537 68.8699 22.4937 68.8469 20.7112 68.8469C18.8518 68.8469 17.4842 68.8699 16.6083 68.916V68.455C17.1615 68.4243 17.561 68.3628 17.8069 68.2706C18.0681 68.1784 18.2449 68.0017 18.3371 67.7405C18.4293 67.4792 18.4754 67.0567 18.4754 66.4727V54.6942L12.9203 68.893H12.5515L6.05143 54.0949V64.3982C6.05143 65.5354 6.09753 66.3575 6.18973 66.8646C6.28193 67.3563 6.4817 67.7174 6.78903 67.9479C7.11173 68.1784 7.64188 68.3474 8.37948 68.455V68.916C7.74945 68.8699 6.88891 68.8469 5.79788 68.8469C4.98345 68.8469 4.34574 68.8699 3.88474 68.916V68.455C4.3611 68.3474 4.71453 68.1861 4.94503 67.971C5.17553 67.7405 5.3292 67.3947 5.40603 66.9337C5.48287 66.4727 5.52128 65.7812 5.52128 64.8592V55.0399C5.52128 54.456 5.47518 54.0334 5.38298 53.7722C5.30615 53.511 5.16017 53.3342 4.94503 53.242C4.7299 53.1498 4.37647 53.0884 3.88474 53.0576V52.5966C4.34574 52.6427 4.98345 52.6658 5.79788 52.6658C7.64188 52.6658 9.23233 52.6427 10.5692 52.5966L14.9257 62.3929L18.7059 52.6658H20.7112C22.4937 52.6658 23.8537 52.6427 24.7911 52.5966V53.0576ZM31.621 56.6304C33.5111 56.6304 34.971 57.1298 36.0005 58.1286C37.0301 59.1121 37.5449 60.7179 37.5449 62.9461C37.5449 65.1742 37.0301 66.7801 36.0005 67.7635C34.971 68.747 33.5111 69.2387 31.621 69.2387C29.7309 69.2387 28.2711 68.747 27.2416 67.7635C26.212 66.7801 25.6972 65.1742 25.6972 62.9461C25.6972 60.7179 26.212 59.1121 27.2416 58.1286C28.2711 57.1298 29.7309 56.6304 31.621 56.6304ZM31.621 57.0914C31.1293 57.0914 30.7375 57.5754 30.4455 58.5435C30.1535 59.5116 30.0075 60.9791 30.0075 62.9461C30.0075 64.913 30.1535 66.3805 30.4455 67.3486C30.7375 68.3013 31.1293 68.7777 31.621 68.7777C32.1128 68.7777 32.5046 68.3013 32.7966 67.3486C33.0886 66.3805 33.2345 64.913 33.2345 62.9461C33.2345 60.9791 33.0886 59.5116 32.7966 58.5435C32.5046 57.5754 32.1128 57.0914 31.621 57.0914ZM44.9018 56.6304C46.7919 56.6304 48.2517 57.1298 49.2813 58.1286C50.3108 59.1121 50.8256 60.7179 50.8256 62.9461C50.8256 65.1742 50.3108 66.7801 49.2813 67.7635C48.2517 68.747 46.7919 69.2387 44.9018 69.2387C43.0117 69.2387 41.5519 68.747 40.5223 67.7635C39.4927 66.7801 38.9779 65.1742 38.9779 62.9461C38.9779 60.7179 39.4927 59.1121 40.5223 58.1286C41.5519 57.1298 43.0117 56.6304 44.9018 56.6304ZM44.9018 57.0914C44.4101 57.0914 44.0182 57.5754 43.7262 58.5435C43.4343 59.5116 43.2883 60.9791 43.2883 62.9461C43.2883 64.913 43.4343 66.3805 43.7262 67.3486C44.0182 68.3013 44.4101 68.7777 44.9018 68.7777C45.3935 68.7777 45.7854 68.3013 46.0773 67.3486C46.3693 66.3805 46.5153 64.913 46.5153 62.9461C46.5153 60.9791 46.3693 59.5116 46.0773 58.5435C45.7854 57.5754 45.3935 57.0914 44.9018 57.0914ZM61.1329 56.6304C62.3623 56.6304 63.2305 56.9377 63.7376 57.5524C63.9681 57.829 64.1371 58.2055 64.2447 58.6818C64.3522 59.1428 64.406 59.7575 64.406 60.5258V66.7724C64.406 67.4024 64.4982 67.8404 64.6826 68.0862C64.8824 68.3167 65.2204 68.432 65.6968 68.432V68.916C64.0372 68.8545 62.9616 68.8238 62.4698 68.8238C61.9474 68.8238 60.8563 68.8545 59.1967 68.916V68.432C59.5963 68.432 59.8729 68.3167 60.0265 68.0862C60.1802 67.8404 60.257 67.4024 60.257 66.7724V59.2811C60.257 58.7894 60.1648 58.4283 59.9804 58.1978C59.8114 57.9519 59.5271 57.829 59.1276 57.829C58.6819 57.829 58.2901 57.9903 57.952 58.313C57.6293 58.6204 57.468 59.0122 57.468 59.4886V66.7724C57.468 67.4024 57.5448 67.8404 57.6985 68.0862C57.8521 68.3167 58.1287 68.432 58.5283 68.432V68.916C56.9916 68.8545 55.9774 68.8238 55.4857 68.8238C54.9632 68.8238 53.8107 68.8545 52.0282 68.916V68.432C52.5046 68.432 52.8349 68.3167 53.0193 68.0862C53.2191 67.8404 53.319 67.4024 53.319 66.7724V59.4655C53.319 58.7587 53.2191 58.2439 53.0193 57.9212C52.8349 57.5985 52.5046 57.4371 52.0282 57.4371V56.9531C52.5199 56.9992 52.9963 57.0222 53.4573 57.0222C55.0554 57.0222 56.3923 56.9147 57.468 56.6995V58.3591C58.1595 57.2066 59.3811 56.6304 61.1329 56.6304ZM83.1456 67.994C82.6846 68.455 82.1775 68.7777 81.6243 68.9621C81.0711 69.1465 80.4257 69.2387 79.6881 69.2387C78.6278 69.2387 77.8057 69.0543 77.2218 68.6855C76.6379 68.3013 76.2767 67.656 76.1384 66.7493L75.7927 64.4443C75.639 63.3687 75.4239 62.5542 75.1473 62.001C74.8861 61.4478 74.4865 61.1712 73.9487 61.1712H72.9115V66.4727C72.9115 67.0567 72.9499 67.4792 73.0267 67.7405C73.1189 68.0017 73.2726 68.1784 73.4877 68.2706C73.7028 68.3628 74.0563 68.4243 74.548 68.455V68.916C73.6567 68.8699 72.3736 68.8469 70.6987 68.8469C68.8393 68.8469 67.4717 68.8699 66.5958 68.916V68.455C67.0875 68.4243 67.4409 68.3628 67.6561 68.2706C67.8866 68.1784 68.0402 68.0017 68.1171 67.7405C68.1939 67.4792 68.2323 67.0567 68.2323 66.4727V55.0399C68.2323 54.456 68.1862 54.0334 68.094 53.7722C68.0172 53.511 67.8712 53.3342 67.6561 53.242C67.4409 53.1498 67.0875 53.0884 66.5958 53.0576V52.5966C67.4717 52.6427 68.7932 52.6658 70.5604 52.6658L73.2111 52.6427C73.5184 52.6274 73.8719 52.6197 74.2714 52.6197C76.6071 52.6197 78.3436 52.9501 79.4807 53.6108C80.6332 54.2716 81.2094 55.2781 81.2094 56.6304C81.2094 57.7829 80.7792 58.7663 79.9186 59.5808C79.0581 60.3952 77.6136 60.8946 75.5852 61.079C77.1526 61.1866 78.3359 61.4862 79.1349 61.978C79.934 62.4543 80.4257 63.1612 80.6101 64.0986L81.0942 66.4958C81.2018 67.0643 81.3324 67.4562 81.486 67.6713C81.6397 67.8865 81.8548 67.994 82.1314 67.994C82.408 67.994 82.6462 67.8941 82.846 67.6944L83.1456 67.994ZM74.1562 53.0576C73.8027 53.0576 73.5338 53.1114 73.3494 53.219C73.1804 53.3266 73.0651 53.5186 73.0037 53.7952C72.9422 54.0718 72.9115 54.4867 72.9115 55.0399V60.7102H73.5338C74.6248 60.7102 75.3701 60.3798 75.7696 59.7191C76.1692 59.0429 76.3689 58.0979 76.3689 56.8839C76.3689 55.6239 76.1922 54.6711 75.8388 54.0257C75.5007 53.3803 74.9398 53.0576 74.1562 53.0576ZM86.2736 50.8909C87.0727 50.8909 87.6873 51.06 88.1176 51.398C88.5632 51.7361 88.786 52.2278 88.786 52.8732C88.786 53.5186 88.5632 54.0104 88.1176 54.3484C87.6873 54.6865 87.0727 54.8555 86.2736 54.8555C85.4592 54.8555 84.8368 54.6865 84.4065 54.3484C83.9763 54.0104 83.7611 53.5186 83.7611 52.8732C83.7611 52.2278 83.9763 51.7361 84.4065 51.398C84.8368 51.06 85.4592 50.8909 86.2736 50.8909ZM88.4864 66.7724C88.4864 67.4024 88.5786 67.8404 88.763 68.0862C88.9628 68.3167 89.3008 68.432 89.7772 68.432V68.916C88.1176 68.8545 87.0266 68.8238 86.5041 68.8238C85.9816 68.8238 84.8291 68.8545 83.0466 68.916V68.432C83.523 68.432 83.8533 68.3167 84.0377 68.0862C84.2375 67.8404 84.3374 67.4024 84.3374 66.7724V59.4655C84.3374 58.7587 84.2375 58.2439 84.0377 57.9212C83.8533 57.5985 83.523 57.4371 83.0466 57.4371V56.9531C83.5383 56.9992 84.0147 57.0222 84.4757 57.0222C86.0738 57.0222 87.4107 56.9147 88.4864 56.6995V66.7724ZM102.549 66.3805C102.549 67.0874 102.641 67.6022 102.825 67.9249C103.025 68.2476 103.363 68.4089 103.839 68.4089V68.893C103.363 68.8469 102.887 68.8238 102.41 68.8238C100.812 68.8238 99.4753 68.9314 98.3997 69.1465V67.51C98.077 68.1093 97.6928 68.5472 97.2472 68.8238C96.8169 69.1004 96.2637 69.2387 95.5876 69.2387C94.1738 69.2387 93.0367 68.7162 92.1762 67.6713C91.3156 66.611 90.8854 65.0052 90.8854 62.8539C90.8854 60.8101 91.3387 59.2658 92.2453 58.2208C93.1673 57.1605 94.4197 56.6304 96.0025 56.6304C96.9859 56.6304 97.785 56.8225 98.3997 57.2066V53.6569C98.3997 52.9501 98.2998 52.4353 98.1 52.1126C97.9156 51.7899 97.5852 51.6285 97.1089 51.6285V51.1445C97.5852 51.1906 98.0616 51.2136 98.538 51.2136C100.136 51.2136 101.473 51.1061 102.549 50.8909V66.3805ZM96.7401 68.0401C97.1857 68.0401 97.5699 67.8865 97.8926 67.5791C98.2306 67.2564 98.3997 66.8569 98.3997 66.3805V57.6907C98.0616 57.4909 97.7005 57.391 97.3163 57.391C96.5941 57.391 96.0563 57.852 95.7028 58.774C95.3648 59.6807 95.1957 61.0637 95.1957 62.923C95.1957 64.8131 95.334 66.1423 95.6106 66.9107C95.8872 67.6636 96.2637 68.0401 96.7401 68.0401ZM111.893 66.7263C113.014 66.7263 113.944 66.2115 114.682 65.1819L115.073 65.3202C114.735 66.3959 114.159 67.3179 113.345 68.0862C112.546 68.8545 111.516 69.2387 110.256 69.2387C108.642 69.2387 107.352 68.7393 106.384 67.7405C105.416 66.7416 104.931 65.1435 104.931 62.9461C104.931 60.8408 105.469 59.2658 106.545 58.2208C107.636 57.1605 109.073 56.6304 110.855 56.6304C113.76 56.6304 115.212 58.3514 115.212 61.7936H109.265C109.249 61.978 109.242 62.2546 109.242 62.6234C109.242 64.0986 109.495 65.1512 110.002 65.7812C110.525 66.4113 111.155 66.7263 111.893 66.7263ZM110.694 57.1605C109.833 57.1605 109.326 58.5589 109.173 61.3556H111.846C111.862 60.1263 111.77 59.1198 111.57 58.3361C111.385 57.5524 111.093 57.1605 110.694 57.1605ZM124.482 56.6304C125.235 56.6304 125.772 56.8609 126.095 57.3219C126.433 57.7829 126.602 58.3284 126.602 58.9584C126.602 59.6499 126.402 60.2031 126.003 60.618C125.619 61.0176 125.112 61.2173 124.482 61.2173C123.821 61.2173 123.314 61.0713 122.96 60.7794C122.607 60.472 122.43 60.0648 122.43 59.5577C122.43 58.6511 122.822 57.9365 123.606 57.4141C123.329 57.4141 123.083 57.4679 122.868 57.5754C122.484 57.7445 122.161 58.0211 121.9 58.4052C121.639 58.774 121.508 59.1812 121.508 59.6269V66.5419C121.508 67.2641 121.654 67.7635 121.946 68.0401C122.253 68.3013 122.768 68.432 123.49 68.432V68.916C123.291 68.916 123.122 68.9083 122.983 68.893C121.37 68.8469 120.294 68.8238 119.756 68.8238C119.28 68.8238 118.212 68.8469 116.552 68.893C116.429 68.9083 116.268 68.916 116.068 68.916V68.432C116.545 68.432 116.875 68.3167 117.06 68.0862C117.259 67.8404 117.359 67.4024 117.359 66.7724V59.4655C117.359 58.7587 117.259 58.2439 117.06 57.9212C116.875 57.5985 116.545 57.4371 116.068 57.4371V56.9531C116.56 56.9992 117.036 57.0222 117.497 57.0222C119.096 57.0222 120.432 56.9147 121.508 56.6995V58.3591C122.092 57.2066 123.083 56.6304 124.482 56.6304Z" fill="#01AB6C"/>
<g clip-path="url(#clip0_2347_59773)">
<path d="M66.1757 3.133C65.9798 3.01876 65.757 2.95857 65.5302 2.95857C65.3034 2.95857 65.0807 3.01876 64.8847 3.133C62.5448 4.50804 60.6407 6.51599 59.3919 8.92565C58.143 11.3353 57.6001 14.0487 57.8256 16.7533L58.0148 18.9616L55.0871 20.7512C54.3138 21.1247 53.7017 21.7654 53.364 22.5549C53.0262 23.3445 52.9856 24.2297 53.2495 25.0469L54.7886 30.5704C54.8425 30.7639 54.9412 30.942 55.0766 31.0904C55.212 31.2387 55.3805 31.3531 55.5683 31.4242C55.7561 31.4954 55.9581 31.5214 56.1578 31.5001C56.3575 31.4788 56.5494 31.4109 56.718 31.3017L60.0968 29.1158C60.5786 30.0689 61.1482 30.9751 61.7982 31.8225C61.9178 31.978 62.0716 32.1039 62.2476 32.1905C62.4236 32.2771 62.6171 32.3222 62.8133 32.3221L68.4275 32.3221C68.5956 32.3222 68.7622 32.2891 68.9175 32.2248C69.0729 32.1605 69.2141 32.0662 69.333 31.9473C69.3591 31.9212 69.3838 31.8938 69.4081 31.865C70.1048 31.0308 70.7122 30.1259 71.2205 29.1652L74.5227 31.3017C74.6914 31.4108 74.8833 31.4787 75.083 31.4999C75.2827 31.5212 75.4846 31.4951 75.6724 31.424C75.8602 31.3528 76.0286 31.2385 76.1641 31.0902C76.2995 30.9419 76.3982 30.7639 76.4522 30.5705L77.9939 25.0398C78.1892 24.2397 78.1253 23.3983 77.8114 22.6368C77.4975 21.8754 76.9499 21.2333 76.2475 20.8033L73.1437 18.9106L73.2339 16.7604C73.4684 14.0537 72.9295 11.3361 71.68 8.92365C70.4305 6.51121 68.5218 4.50313 66.1757 3.133ZM56.7879 28.2059L55.6981 24.2979C55.616 24.0407 55.6353 23.7619 55.7522 23.5185C55.8691 23.2752 56.0747 23.0858 56.3268 22.9892L58.2587 21.811L58.369 23.0984C58.4798 24.3251 58.7254 25.536 59.1014 26.709L56.7879 28.2059ZM75.5246 24.3594L74.4524 28.2054L72.2483 26.7792C72.6435 25.5977 72.885 24.3702 72.9669 23.1271L73.0211 21.8348L74.8937 22.9768C75.1272 23.1155 75.3127 23.3223 75.4255 23.5693C75.5382 23.8164 75.5728 24.0921 75.5246 24.3594ZM70.6793 16.5907L70.4092 22.9932C70.2307 25.4559 69.3277 27.8107 67.8139 29.7614L63.4597 29.7614C62.0154 27.7322 61.1386 25.3545 60.9197 22.8734L60.6351 19.5494C60.6339 19.4975 60.6295 19.4459 60.6218 19.3946L60.3785 16.5526C60.2045 14.4573 60.5898 12.3533 61.4948 10.4555C62.3999 8.55766 63.7925 6.93405 65.5302 5.75043C67.2793 6.93193 68.6795 8.5608 69.5852 10.4674C70.4908 12.3739 70.8686 14.4884 70.6793 16.5907ZM64.2624 11.8452C63.9937 12.1138 63.8108 12.4561 63.7367 12.8287C63.6625 13.2013 63.7006 13.5875 63.846 13.9385C63.9914 14.2895 64.2375 14.5895 64.5534 14.8006C64.8693 15.0116 65.2407 15.1243 65.6206 15.1243C66.0005 15.1243 66.3719 15.0116 66.6877 14.8006C67.0036 14.5895 67.2498 14.2895 67.3952 13.9385C67.5406 13.5875 67.5786 13.2013 67.5045 12.8287C67.4304 12.4561 67.2475 12.1138 66.9788 11.8452C66.8005 11.6668 66.5887 11.5253 66.3557 11.4288C66.1226 11.3322 65.8728 11.2826 65.6206 11.2826C65.3683 11.2826 65.1185 11.3322 64.8855 11.4288C64.6524 11.5253 64.4407 11.6668 64.2623 11.8452L64.2624 11.8452Z" fill="white"/>
</g>
<defs>
<clipPath id="clip0_2347_59773">
<rect width="30.7333" height="30.7333" fill="white" transform="translate(43.8438 21.7324) rotate(-45)"/>
</clipPath>
</defs>
</svg>
