<svg width="138" height="138" viewBox="0 0 138 138" fill="none" xmlns="http://www.w3.org/2000/svg">
<g clip-path="url(#clip0_3159_46717)">
<path d="M138 51.3691V129.41H33.0618C31.3042 129.41 29.8824 127.986 29.8824 126.231V40.6181C29.8824 38.8605 31.3042 37.4387 33.0618 37.4387H71.6185C72.4597 37.4387 73.2678 37.7718 73.8648 38.3688L82.7555 47.2596C83.3525 47.8566 84.1606 48.1898 85.0045 48.1898H134.821C136.576 48.19 138 49.6145 138 51.3691Z" fill="#756F6F"/>
<path d="M87.3457 63.6908C91.6261 63.6908 95.0961 60.2208 95.0961 55.9404C95.0961 51.66 91.6261 48.19 87.3457 48.19C83.0653 48.19 79.5953 51.66 79.5953 55.9404C79.5953 60.2208 83.0653 63.6908 87.3457 63.6908Z" fill="#5B5555"/>
<path d="M58.8958 74.2351C60.2952 75.6318 59.3069 78.0252 57.3272 78.0252H32.8537C31.8513 78.0252 30.86 77.9751 29.8827 77.8808V40.6181C29.8827 38.8605 31.3045 37.4387 33.0621 37.4387H60.6925C61.9809 40.7733 62.689 44.3999 62.689 48.19C62.689 56.4285 59.3486 63.8864 53.9507 69.287L58.8958 74.2351Z" fill="#5B5555"/>
<path d="M138 51.3691V129.41H127.443V51.3691C127.443 49.6142 126.021 48.1898 124.264 48.1898H134.82C136.576 48.19 138 49.6145 138 51.3691Z" fill="#5B5555"/>
<path d="M105.575 89.5429L138 129.411H31.3931C30.4363 129.411 29.5307 128.98 28.9269 128.238L0.718598 93.5543C-0.970823 91.477 0.507286 88.3696 3.18481 88.3696H103.109C104.066 88.3696 104.972 88.8006 105.575 89.5429Z" fill="#00945D"/>
<path d="M138 129.41H124.328L91.9048 89.5429C91.2994 88.8014 90.3943 88.3683 89.4391 88.3683H103.109C104.067 88.3683 104.972 88.8014 105.574 89.5429L138 129.41Z" fill="#01AB6C"/>
<path d="M113.857 120.059H85.8077C84.9406 120.059 84.1234 119.654 83.5981 118.964L76.4097 109.519C75.714 108.605 76.366 107.29 77.5145 107.29H105.564C106.431 107.29 107.248 107.695 107.773 108.385L114.962 117.83C115.657 118.744 115.006 120.059 113.857 120.059Z" fill="#F8F3F1"/>
<path d="M113.857 120.059H104.833C105.982 120.059 106.635 118.745 105.938 117.829L98.7493 108.386C98.2245 107.694 97.4081 107.289 96.5418 107.289H105.563C106.432 107.289 107.249 107.694 107.773 108.386L114.962 117.829C115.656 118.745 115.007 120.059 113.857 120.059Z" fill="#EFE2DD"/>
<path d="M69 122.141H56.2587C55.1086 122.141 54.1763 121.209 54.1763 120.059C54.1763 118.909 55.1086 117.977 56.2587 117.977H69C70.1501 117.977 71.0824 118.909 71.0824 120.059C71.0824 121.209 70.1501 122.141 69 122.141Z" fill="#F8F3F1"/>
<path d="M64.3503 115.234H58.9422C57.7921 115.234 56.8598 114.302 56.8598 113.152C56.8598 112.002 57.7921 111.069 58.9422 111.069H64.3503C65.5004 111.069 66.4328 112.002 66.4328 113.152C66.433 114.302 65.5007 115.234 64.3503 115.234Z" fill="#F8F3F1"/>
<path d="M62.6884 38.4246C62.6884 21.9471 49.3307 8.58942 32.8534 8.58942C16.3913 8.58942 3.01794 21.9628 3.01794 38.4249C3.01821 54.9024 16.3756 68.2599 32.8532 68.2599H57.3266C59.3052 68.2599 60.2963 65.8675 58.8972 64.4684L53.9499 59.5211C59.3492 54.1224 62.6884 46.6634 62.6884 38.4246Z" fill="#01AB6C"/>
<path d="M58.8958 64.4695C60.2952 65.8689 59.3069 68.2596 57.3272 68.2596H47.2645C49.2415 68.2596 50.2328 65.8689 48.8331 64.4695L45.7653 61.4C44.7449 60.379 44.6802 58.7495 45.6106 57.6457C49.9873 52.4546 52.626 45.7465 52.626 38.4244C52.626 23.6638 41.9054 11.4047 27.8248 9.01394C29.1873 8.78025 30.5808 8.64117 31.9988 8.60101C48.6841 8.13095 62.4067 21.2264 62.6844 37.916C62.8248 46.3553 59.4589 54.0124 53.9505 59.5211L58.8958 64.4695Z" fill="#00945D"/>
<path d="M38.7433 38.4249L44.2932 32.875C45.9198 31.2484 45.9198 28.6113 44.2932 26.9849C42.6668 25.3583 40.0295 25.3583 38.4031 26.9849L32.8532 32.5348L27.3035 26.9846C25.6772 25.358 23.0398 25.358 21.4135 26.9846C19.7869 28.611 19.7869 31.2481 21.4135 32.8747L26.9634 38.4246L21.4135 43.9745C19.7869 45.6012 19.7869 48.2383 21.4135 49.8646C22.2267 50.6781 23.2926 51.0845 24.3586 51.0845C25.4246 51.0845 26.4904 50.6778 27.3038 49.8646L32.8537 44.3147L38.4036 49.8646C39.2171 50.6781 40.2826 51.0845 41.3488 51.0845C42.4145 51.0845 43.4805 50.6778 44.294 49.8646C45.9206 48.2383 45.9206 45.6012 44.294 43.9745L38.7433 38.4249Z" fill="#F8F3F1"/>
<path d="M87.3457 57.1301C91.6261 57.1301 95.096 53.6601 95.096 49.3797C95.096 45.0993 91.6261 41.6294 87.3457 41.6294C83.0653 41.6294 79.5953 45.0993 79.5953 49.3797C79.5953 53.6601 83.0653 57.1301 87.3457 57.1301Z" fill="#BCEA73"/>
<path d="M95.0955 49.3789C95.0955 53.661 91.6245 57.132 87.3459 57.132C85.9115 57.132 84.5657 56.7423 83.4146 56.0587C86.457 55.3574 88.7238 52.6338 88.7238 49.3789C88.7238 46.1276 86.4605 43.4005 83.4181 42.6991C84.5692 42.0191 85.9115 41.6296 87.3459 41.6296C91.6247 41.6294 95.0955 45.1004 95.0955 49.3789Z" fill="#99D53B"/>
<path d="M114.489 40.0869C117.867 40.0869 120.605 37.3485 120.605 33.9707C120.605 30.5928 117.867 27.8545 114.489 27.8545C111.111 27.8545 108.373 30.5928 108.373 33.9707C108.373 37.3485 111.111 40.0869 114.489 40.0869Z" fill="#BCEA73"/>
<path d="M120.604 33.9701C120.604 37.3492 117.866 40.0882 114.489 40.0882C113.357 40.0882 112.295 39.7807 111.387 39.2414C113.788 38.688 115.576 36.5385 115.576 33.9701C115.576 31.4042 113.79 29.2522 111.389 28.6986C112.298 28.162 113.357 27.8545 114.489 27.8545C117.866 27.8545 120.604 30.5937 120.604 33.9701Z" fill="#99D53B"/>
<path d="M100.514 22.7916L101.64 21.6649C102.454 20.8515 102.454 19.5332 101.64 18.7198C100.827 17.9066 99.5085 17.9066 98.6951 18.7198L97.5684 19.8464L96.4418 18.7198C95.6286 17.9063 94.3101 17.9063 93.4966 18.7198C92.6832 19.5329 92.6832 20.8515 93.4966 21.6649L94.6233 22.7916L93.4966 23.9182C92.6832 24.7317 92.6832 26.0499 93.4966 26.8634C93.9033 27.2701 94.4362 27.4733 94.9691 27.4733C95.5019 27.4733 96.0351 27.2698 96.4415 26.8634L97.5682 25.7367L98.6948 26.8634C99.1015 27.2701 99.6344 27.4733 100.167 27.4733C100.7 27.4733 101.233 27.2698 101.64 26.8634C102.453 26.0502 102.453 24.7317 101.64 23.9182L100.514 22.7916Z" fill="#00945D"/>
<path d="M15.5924 70.0687C14.7792 69.2555 13.4607 69.2555 12.6472 70.0687L10.6856 72.0303L8.72392 70.0687C7.91075 69.2555 6.5922 69.2555 5.77875 70.0687C4.96531 70.8819 4.96531 72.2004 5.77875 73.0139L7.7404 74.9755L5.77875 76.9371C4.96531 77.7503 4.96531 79.0689 5.77875 79.8823C6.18548 80.289 6.71834 80.4923 7.2512 80.4923C7.78407 80.4923 8.3172 80.2888 8.72365 79.8823L10.6853 77.9207L12.647 79.8823C13.0537 80.289 13.5865 80.4923 14.1194 80.4923C14.6523 80.4923 15.1854 80.2888 15.5918 79.8823C16.4053 79.0691 16.4053 77.7506 15.5918 76.9371L13.6302 74.9755L15.5918 73.0139C16.4056 72.2004 16.4056 70.8819 15.5924 70.0687Z" fill="#A6EFD4"/>
</g>
<defs>
<clipPath id="clip0_3159_46717">
<rect width="138" height="138" fill="white"/>
</clipPath>
</defs>
</svg>
