<svg width="21" height="15" viewBox="0 0 21 15" fill="none" xmlns="http://www.w3.org/2000/svg">
<path fill-rule="evenodd" clip-rule="evenodd" d="M18.8125 14.9375H2.1875C1.22106 14.9375 0.4375 14.1539 0.4375 13.1875V1.8125C0.4375 0.846062 1.22106 0.0625 2.1875 0.0625H18.8125C19.7789 0.0625 20.5625 0.846062 20.5625 1.8125V13.1875C20.5625 14.1539 19.7789 14.9375 18.8125 14.9375ZM19.6875 1.8125C19.6875 1.3295 19.2955 0.9375 18.8125 0.9375H2.1875C1.7045 0.9375 1.3125 1.3295 1.3125 1.8125V13.1875C1.3125 13.6705 1.7045 14.0625 2.1875 14.0625H18.8125C19.2955 14.0625 19.6875 13.6705 19.6875 13.1875V1.8125ZM18.0836 12.1878L15.3125 9.41669L13.7292 11L15.1878 12.4586C15.3545 12.6253 15.3545 12.8957 15.1878 13.0628C15.0207 13.2295 14.7503 13.2295 14.5836 13.0628L8.3125 6.79169L2.91637 12.1878C2.74969 12.3545 2.47931 12.3545 2.31219 12.1878C2.1455 12.0207 2.1455 11.7503 2.31219 11.5836L7.95813 5.93769C7.97213 5.91669 7.98131 5.8935 7.99969 5.87469C8.08588 5.7885 8.19963 5.74913 8.3125 5.75175C8.42537 5.74913 8.53913 5.7885 8.62531 5.87469C8.64369 5.8935 8.65244 5.91669 8.66687 5.93769L13.125 10.3958L14.9581 8.56269C14.9726 8.54213 14.9813 8.5185 14.9997 8.49969C15.0859 8.41394 15.1996 8.37412 15.3125 8.37675C15.4254 8.37412 15.5391 8.41394 15.6253 8.49969C15.6437 8.5185 15.6524 8.54213 15.6669 8.56269L18.6878 11.5836C18.8545 11.7503 18.8545 12.0207 18.6878 12.1878C18.5207 12.3545 18.2503 12.3545 18.0836 12.1878ZM12.6875 5.3125C11.7211 5.3125 10.9375 4.52894 10.9375 3.5625C10.9375 2.59606 11.7211 1.8125 12.6875 1.8125C13.6539 1.8125 14.4375 2.59606 14.4375 3.5625C14.4375 4.52894 13.6539 5.3125 12.6875 5.3125ZM12.6875 2.6875C12.2045 2.6875 11.8125 3.0795 11.8125 3.5625C11.8125 4.0455 12.2045 4.4375 12.6875 4.4375C13.1705 4.4375 13.5625 4.0455 13.5625 3.5625C13.5625 3.0795 13.1705 2.6875 12.6875 2.6875Z" fill="#979797"/>
</svg>
