<svg width="21" height="14" viewBox="0 0 21 14" fill="none" xmlns="http://www.w3.org/2000/svg">
<path d="M14.2621 13.0629H2.88711C1.48711 13.0629 0.349609 11.9254 0.349609 10.5254V2.56289C0.349609 1.16289 1.48711 0.0253906 2.88711 0.0253906H14.2621C15.6621 0.0253906 16.8871 1.16289 16.8871 2.56289V3.61289L19.9496 1.25039C20.1246 1.16289 20.2996 1.16289 20.3871 1.16289C20.5621 1.25039 20.6496 1.42539 20.6496 1.51289V11.3129C20.6496 11.4879 20.5621 11.6629 20.3871 11.6629C20.2121 11.7504 20.0371 11.7504 19.9496 11.5754L16.8871 9.21289V10.2629C16.8871 11.8379 15.7496 13.0629 14.2621 13.0629ZM2.97461 0.812891C2.01211 0.812891 1.31211 1.60039 1.31211 2.47539V10.4379C1.31211 11.4004 2.09961 12.1004 2.97461 12.1004H14.3496C15.3121 12.1004 16.0996 11.3129 16.0996 10.4379V8.51289C16.0996 8.33789 16.1871 8.16289 16.3621 8.16289C16.5371 8.07539 16.7121 8.07539 16.7996 8.25039L19.8621 10.6129V2.47539L16.7996 4.83789C16.6246 4.92539 16.4496 4.92539 16.3621 4.92539C16.1871 4.83789 16.0996 4.66289 16.0996 4.57539V2.56289C16.0996 1.60039 15.3121 0.900391 14.3496 0.900391H2.97461V0.812891Z" fill="#979797"/>
</svg>
