<svg width="24" height="24" viewBox="0 0 24 24" fill="none" xmlns="http://www.w3.org/2000/svg">
<path d="M18.4269 13.7888C19.4017 12.723 19.9883 11.3701 20.0951 9.94204C20.2019 8.51398 19.8224 7.09159 19.0167 5.89783C18.2108 4.70386 17.0239 3.80603 15.6418 3.3448C14.2599 2.88361 12.7609 2.88507 11.3798 3.34918C9.99883 3.81317 8.81379 4.71354 8.01044 5.90897C7.20713 7.10453 6.83081 8.52767 6.94054 9.95556C7.05041 11.3833 7.63994 12.7351 8.61701 13.799C9.59393 14.8627 10.9032 15.5786 12.3393 15.8342C12.7329 15.9047 13.1322 15.9404 13.5323 15.9408C14.3496 15.9412 15.1597 15.7908 15.9203 15.4975L17.2918 18.5419H17.2916C17.557 19.131 18.0771 19.573 18.7097 19.7462C18.7776 19.7651 18.8456 19.7804 18.9154 19.7918H18.9152C19.0434 19.8144 19.1731 19.8258 19.3033 19.8261C19.8893 19.8243 20.4506 19.5937 20.8629 19.185C21.2751 18.7764 21.5045 18.2235 21.5 17.6485C21.4957 17.0737 21.258 16.5241 20.8396 16.1216L18.4269 13.7888ZM12.5122 14.902C11.0412 14.6437 9.73516 13.8219 8.88276 12.6179C8.03032 11.4137 7.70125 9.92641 7.96846 8.48394C8.23556 7.04168 9.07691 5.76291 10.3067 4.93001C11.2446 4.2887 12.3603 3.94469 13.5035 3.94442C13.8444 3.94429 14.1846 3.97415 14.52 4.03387C16.4993 4.3856 18.1367 5.74635 18.8159 7.60344C19.4949 9.46072 19.1123 11.5321 17.8121 13.0376C16.5119 14.5431 14.4916 15.2537 12.5123 14.9019L12.5122 14.902ZM20.543 17.7617C20.5123 18.102 20.3366 18.4138 20.0594 18.6205C19.7821 18.8273 19.4288 18.91 19.0862 18.8481L18.9699 18.8215C18.6141 18.7241 18.3216 18.4756 18.1726 18.144L16.7895 15.0807C16.9537 14.9881 17.1148 14.8886 17.2725 14.782C17.4316 14.6742 17.5841 14.5599 17.7303 14.4396L20.1706 16.7912C20.4368 17.0435 20.5735 17.3998 20.5429 17.7617L20.543 17.7617Z" fill="#01AB6C" stroke="#01AB6C" stroke-width="0.3"/>
<path d="M6.6086 20.8607C6.69912 20.9496 6.82198 20.9995 6.94998 20.9996H13.9176C14.2778 20.9996 14.6231 20.8592 14.8778 20.6094C15.1325 20.3597 15.2755 20.021 15.2755 19.6677V17.8049C15.2755 17.5423 15.0584 17.3293 14.7905 17.3293C14.5227 17.3293 14.3056 17.5423 14.3056 17.8049V19.6619C14.3056 19.7629 14.2647 19.8597 14.192 19.9311C14.1192 20.0025 14.0206 20.0426 13.9176 20.0426H7.65973V17.0534C7.65933 16.7588 7.53971 16.4765 7.32741 16.2683C7.11511 16.06 6.82719 15.9427 6.52694 15.9423H3.4699V6.03106C3.4699 5.82096 3.6435 5.65056 3.85782 5.65056H5.94888C6.21666 5.65056 6.43383 5.43754 6.43383 5.17489C6.43383 4.91223 6.21666 4.69922 5.94888 4.69922H3.85782C3.49764 4.69922 3.15232 4.8395 2.89766 5.08927C2.643 5.33905 2.5 5.67788 2.5 6.03106V16.6405C2.5 16.7661 2.55101 16.8866 2.64153 16.9754L6.6086 20.8607ZM6.69777 17.0553L6.6979 19.6087L3.92203 16.8879H6.52713C6.62036 16.8879 6.69586 16.962 6.69586 17.0535L6.69777 17.0553Z" fill="#01AB6C" stroke="#01AB6C" stroke-width="0.3"/>
<path d="M17.5055 9.5667V7.84281C17.5055 7.58121 17.2891 7.36914 17.0224 7.36914H15.2669C14.999 7.36914 14.782 7.58202 14.782 7.84481C14.782 8.10747 14.999 8.32048 15.2669 8.32048H15.8489L14.1341 10.0082L12.6172 8.52023C12.4285 8.33535 12.1229 8.33535 11.9344 8.52023L9.65119 10.7577C9.55634 10.8456 9.50195 10.9674 9.50005 11.0954C9.49816 11.2233 9.54917 11.3465 9.64145 11.437C9.73373 11.5275 9.8593 11.5776 9.98974 11.5757C10.1203 11.574 10.2444 11.5205 10.334 11.4275L12.2738 9.52478L13.7907 11.0127C13.9793 11.1976 14.285 11.1976 14.4735 11.0127L16.5414 8.98632V9.55716C16.5414 9.81982 16.7584 10.0328 17.0264 10.0328C17.2941 10.0328 17.5113 9.81982 17.5113 9.55716L17.5055 9.5667Z" fill="#01AB6C" stroke="#01AB6C" stroke-width="0.3"/>
</svg>
