<svg width="35" height="30" viewBox="0 0 35 30" fill="none" xmlns="http://www.w3.org/2000/svg">
<path d="M29.75 5.37504H27.51L26.95 3.62504C26.587 2.59819 25.9136 1.70967 25.0231 1.08257C24.1326 0.455471 23.0691 0.12084 21.98 0.125039H13.02C11.9202 0.127097 10.8488 0.474485 9.95709 1.11817C9.06535 1.76186 8.39826 2.66934 8.05 3.71254L7.49 5.46254H5.25C3.85761 5.46254 2.52226 6.01566 1.53769 7.00023C0.553124 7.98479 0 9.32015 0 10.7125V24.7125C0 26.1049 0.553124 27.4403 1.53769 28.4248C2.52226 29.4094 3.85761 29.9625 5.25 29.9625H29.75C31.1424 29.9625 32.4777 29.4094 33.4623 28.4248C34.4469 27.4403 35 26.1049 35 24.7125V10.7125C35.0116 10.0158 34.8844 9.32366 34.6258 8.67657C34.3671 8.02948 33.9823 7.44035 33.4936 6.94353C33.0049 6.44672 32.4222 6.05217 31.7795 5.78287C31.1368 5.51358 30.4469 5.37494 29.75 5.37504ZM31.5 24.625C31.5 25.0892 31.3156 25.5343 30.9874 25.8625C30.6592 26.1907 30.2141 26.375 29.75 26.375H5.25C4.78587 26.375 4.34075 26.1907 4.01256 25.8625C3.68437 25.5343 3.5 25.0892 3.5 24.625V10.625C3.5 10.1609 3.68437 9.71579 4.01256 9.3876C4.34075 9.05941 4.78587 8.87504 5.25 8.87504H8.75C9.13161 8.89496 9.50926 8.78942 9.82526 8.57454C10.1413 8.35966 10.3782 8.04726 10.5 7.68504L11.445 4.81504C11.5624 4.46745 11.7861 4.16555 12.0844 3.95201C12.3827 3.73847 12.7406 3.62409 13.1075 3.62504H22.0675C22.4344 3.62409 22.7923 3.73847 23.0906 3.95201C23.3889 4.16555 23.6126 4.46745 23.73 4.81504L24.675 7.68504C24.7873 8.01884 24.9977 8.311 25.2787 8.52331C25.5597 8.73562 25.8982 8.8582 26.25 8.87504H29.75C30.2141 8.87504 30.6592 9.05941 30.9874 9.3876C31.3156 9.71579 31.5 10.1609 31.5 10.625V24.625ZM17.5 8.87504C16.1155 8.87504 14.7622 9.28558 13.611 10.0548C12.4599 10.8239 11.5627 11.9172 11.0328 13.1963C10.503 14.4753 10.3644 15.8828 10.6345 17.2407C10.9046 18.5985 11.5713 19.8458 12.5503 20.8248C13.5292 21.8038 14.7765 22.4704 16.1344 22.7405C17.4922 23.0106 18.8997 22.872 20.1788 22.3422C21.4579 21.8124 22.5511 20.9152 23.3203 19.764C24.0895 18.6129 24.5 17.2595 24.5 15.875C24.5 14.0185 23.7625 12.238 22.4497 10.9253C21.137 9.61254 19.3565 8.87504 17.5 8.87504ZM17.5 19.375C16.8078 19.375 16.1311 19.1698 15.5555 18.7852C14.9799 18.4006 14.5313 17.854 14.2664 17.2144C14.0015 16.5749 13.9322 15.8712 14.0673 15.1922C14.2023 14.5133 14.5356 13.8896 15.0251 13.4002C15.5146 12.9107 16.1383 12.5773 16.8172 12.4423C17.4961 12.3072 18.1998 12.3766 18.8394 12.6415C19.4789 12.9064 20.0256 13.355 20.4101 13.9305C20.7947 14.5061 21 15.1828 21 15.875C21 16.8033 20.6312 17.6935 19.9749 18.3499C19.3185 19.0063 18.4283 19.375 17.5 19.375Z" fill="white"/>
</svg>
