<svg width="62" height="62" viewBox="0 0 62 62" fill="none" xmlns="http://www.w3.org/2000/svg">
<circle cx="31" cy="31" r="28" stroke="#434343" stroke-width="5"/>
<path d="M46.3364 54.4263C51.3739 51.1285 55.2142 46.2947 57.2875 40.6419C59.3609 34.9892 59.5569 28.8187 57.8464 23.0458C56.136 17.2729 52.6103 12.2051 47.7923 8.59422C42.9743 4.9833 37.1206 3.02162 31.0997 3.00018" stroke="#F1663A" stroke-width="5" stroke-linecap="round" stroke-linejoin="round"/>
<path d="M20.886 36V34.124H16.588V32.808L21.194 26.13H22.678V32.64H24.064V34.124H22.678V36H20.886ZM20.886 32.64V28.874L18.31 32.64H20.886ZM29.5605 36V34.124H25.2625V32.808L29.8685 26.13H31.3525V32.64H32.7385V34.124H31.3525V36H29.5605ZM29.5605 32.64V28.874L26.9845 32.64H29.5605ZM37.6611 36.392L36.5131 35.72L42.2811 25.738L43.4151 26.41L37.6611 36.392ZM36.4571 32.024C35.6731 32.024 35.0617 31.7533 34.6231 31.212C34.1844 30.6707 33.9651 29.9333 33.9651 29C33.9651 28.0667 34.1844 27.334 34.6231 26.802C35.0617 26.2607 35.6731 25.99 36.4571 25.99C37.2411 25.99 37.8524 26.2607 38.2911 26.802C38.7297 27.334 38.9491 28.0667 38.9491 29C38.9491 29.9333 38.7297 30.6707 38.2911 31.212C37.8524 31.7533 37.2411 32.024 36.4571 32.024ZM36.4571 30.848C36.7931 30.848 37.0544 30.6987 37.2411 30.4C37.4277 30.092 37.5211 29.6253 37.5211 29C37.5211 28.3747 37.4277 27.9127 37.2411 27.614C37.0544 27.3153 36.7931 27.166 36.4571 27.166C36.1211 27.166 35.8597 27.3153 35.6731 27.614C35.4864 27.9033 35.3931 28.3653 35.3931 29C35.3931 29.6347 35.4864 30.1013 35.6731 30.4C35.8597 30.6987 36.1211 30.848 36.4571 30.848ZM43.4851 36.14C42.7011 36.14 42.0897 35.8693 41.6511 35.328C41.2124 34.7867 40.9931 34.0493 40.9931 33.116C40.9931 32.1827 41.2124 31.45 41.6511 30.918C42.0897 30.3767 42.7011 30.106 43.4851 30.106C44.2691 30.106 44.8804 30.3767 45.3191 30.918C45.7577 31.45 45.9771 32.1827 45.9771 33.116C45.9771 34.0493 45.7577 34.7867 45.3191 35.328C44.8804 35.8693 44.2691 36.14 43.4851 36.14ZM43.4851 34.964C43.8211 34.964 44.0824 34.8147 44.2691 34.516C44.4557 34.208 44.5491 33.7413 44.5491 33.116C44.5491 32.4907 44.4557 32.0287 44.2691 31.73C44.0824 31.4313 43.8211 31.282 43.4851 31.282C43.1491 31.282 42.8877 31.4313 42.7011 31.73C42.5144 32.0193 42.4211 32.4813 42.4211 33.116C42.4211 33.7507 42.5144 34.2173 42.7011 34.516C42.8877 34.8147 43.1491 34.964 43.4851 34.964Z" fill="white"/>
</svg>
