<svg width="531" height="395" viewBox="0 0 531 395" fill="none" xmlns="http://www.w3.org/2000/svg">
<path d="M257.003 190.588C262.071 191.119 266.823 193.648 270.447 197.743C274.071 201.838 276.345 207.246 276.879 213.046C277.416 207.246 279.69 201.837 283.315 197.743C286.94 193.648 291.692 191.119 296.762 190.588C280.381 190.588 277.967 180.053 276.879 168.123C275.792 180.077 275.173 190.588 257.003 190.588Z" fill="white" fill-opacity="0.1"/>
<path d="M193 321.589C197.612 322.073 201.934 324.374 205.232 328.099C208.529 331.824 210.599 336.744 211.087 342.02C211.573 336.746 213.639 331.827 216.934 328.102C220.229 324.377 224.549 322.075 229.158 321.589C214.256 321.589 212.065 312.002 211.077 301.152C210.093 312.002 209.531 321.589 193 321.589Z" fill="white" fill-opacity="0.1"/>
<path d="M229.609 119.791C233.978 120.251 238.073 122.431 241.197 125.96C244.321 129.489 246.281 134.15 246.744 139.149C247.207 134.15 249.167 129.489 252.291 125.96C255.415 122.431 259.51 120.251 263.879 119.791C249.757 119.791 247.681 110.711 246.744 100.432C245.808 110.711 245.266 119.791 229.609 119.791Z" fill="white" fill-opacity="0.1"/>
<path d="M14.6797 154.328C17.83 154.663 20.7818 156.238 23.0322 158.786C25.2826 161.334 26.6926 164.697 27.0221 168.303C27.3554 164.697 28.7689 161.335 31.0221 158.79C33.2754 156.244 36.2289 154.671 39.3802 154.34C29.1971 154.34 27.6985 147.782 27.0221 140.377C26.3613 147.782 25.9814 154.328 14.6797 154.328Z" fill="white" fill-opacity="0.1"/>
<path d="M0 293.114C3.15156 293.445 6.10568 295.017 8.35907 297.563C10.6125 300.109 12.0257 303.471 12.358 307.077C12.6917 303.469 14.1068 300.106 16.3621 297.56C18.6174 295.014 21.5734 293.443 24.7265 293.114C14.5435 293.114 13.0449 286.556 12.3684 279.152C11.6816 286.592 11.2966 293.114 0 293.114Z" fill="white" fill-opacity="0.1"/>
<path d="M173.147 13.9627C176.298 14.294 179.251 15.8664 181.505 18.4122C183.758 20.958 185.171 24.3198 185.505 27.9253C185.838 24.3189 187.252 20.9563 189.507 18.4105C191.761 15.8646 194.716 14.2927 197.868 13.9627C187.68 13.9627 186.181 7.40462 185.505 0C184.828 7.41655 184.443 13.9627 173.147 13.9627Z" fill="white" fill-opacity="0.1"/>
<path d="M82 261.724C89.7946 262.542 97.1012 266.429 102.677 272.724C108.252 279.018 111.752 287.332 112.58 296.249C113.405 287.328 116.903 279.009 122.479 272.71C128.055 266.411 135.363 262.52 143.161 261.701C117.966 261.701 114.256 245.496 112.58 227.152C110.91 245.52 109.953 261.724 82 261.724Z" fill="white" fill-opacity="0.1"/>
<path d="M493.002 113.909C496.783 114.306 500.327 116.193 503.031 119.247C505.735 122.302 507.432 126.335 507.832 130.662C508.231 126.337 509.925 122.304 512.627 119.249C515.328 116.195 518.87 114.308 522.65 113.909C510.431 113.909 508.635 106.048 507.824 97.1514C507.017 106.048 506.557 113.909 493.002 113.909Z" fill="white" fill-opacity="0.1"/>
<path d="M409.354 383.167C411.937 383.442 414.357 384.733 416.202 386.823C418.047 388.912 419.204 391.669 419.474 394.626C419.747 391.669 420.906 388.913 422.754 386.825C424.601 384.738 427.023 383.449 429.607 383.177C421.257 383.177 420.028 377.8 419.474 371.728C418.932 377.8 418.62 383.167 409.354 383.167Z" fill="white" fill-opacity="0.1"/>
<path d="M510.002 231.6C512.586 231.871 515.008 233.16 516.856 235.247C518.704 237.335 519.862 240.092 520.135 243.049C520.409 240.091 521.569 237.333 523.418 235.246C525.267 233.158 527.691 231.87 530.276 231.6C521.927 231.6 520.698 226.223 520.143 220.151C519.58 226.252 519.265 231.6 510.002 231.6Z" fill="white" fill-opacity="0.1"/>
</svg>
