<svg width="45" height="45" viewBox="0 0 45 45" fill="none" xmlns="http://www.w3.org/2000/svg">
<g filter="url(#filter0_b_33_2141)">
<rect x="0.435227" y="0.435227" width="44.1295" height="44.1295" rx="8.26931" stroke="#1777F2" stroke-width="0.870453"/>
</g>
<g clip-path="url(#clip0_33_2141)">
<path fill-rule="evenodd" clip-rule="evenodd" d="M31.4542 10.8003C32.9714 10.8003 34.2031 12.0321 34.2031 13.5492V30.5513C34.2031 32.0685 32.9713 33.3003 31.4542 33.3003H26.7754V24.8226H29.7022L30.259 21.1918H26.7754V18.8356C26.7754 17.8423 27.262 16.874 28.8224 16.874H30.4062V13.7829C30.4062 13.7829 28.9688 13.5376 27.5945 13.5376C24.7254 13.5376 22.8502 15.2765 22.8502 18.4245V21.1918H19.661V24.8226H22.8502V33.3003H14.4521C12.9349 33.3003 11.7031 32.0685 11.7031 30.5513V13.5492C11.7031 12.0321 12.9349 10.8003 14.4521 10.8003H31.4542V10.8003Z" fill="#1777F2"/>
</g>
<defs>
<filter id="filter0_b_33_2141" x="-76.5999" y="-76.5999" width="198.2" height="198.2" filterUnits="userSpaceOnUse" color-interpolation-filters="sRGB">
<feFlood flood-opacity="0" result="BackgroundImageFix"/>
<feGaussianBlur in="BackgroundImage" stdDeviation="38.2999"/>
<feComposite in2="SourceAlpha" operator="in" result="effect1_backgroundBlur_33_2141"/>
<feBlend mode="normal" in="SourceGraphic" in2="effect1_backgroundBlur_33_2141" result="shape"/>
</filter>
<clipPath id="clip0_33_2141">
<rect width="22.5" height="22.5" fill="white" transform="translate(11.7031 10.8003)"/>
</clipPath>
</defs>
</svg>
