<svg width="24" height="24" viewBox="0 0 24 24" fill="none" xmlns="http://www.w3.org/2000/svg">
<path d="M8.36187 8.59362H5.69823C5.42282 8.59393 5.15886 8.7035 4.96405 8.89817C4.76938 9.09283 4.6598 9.35692 4.6595 9.63235V10.6684C4.65981 10.9439 4.76938 11.2078 4.96405 11.4026C5.15887 11.5973 5.42279 11.7069 5.69823 11.7072H8.36187C8.63728 11.7069 8.9014 11.5973 9.09605 11.4026C9.29087 11.2078 9.4003 10.9439 9.4006 10.6684V9.63235C9.40029 9.35694 9.29087 9.09283 9.09605 8.89817C8.90139 8.70351 8.63731 8.59393 8.36187 8.59362ZM8.51174 10.6684H8.5119C8.51174 10.7512 8.44463 10.8183 8.36187 10.8183H5.69823C5.61547 10.8183 5.54836 10.7512 5.54836 10.6684V9.63236C5.54836 9.5496 5.61547 9.48249 5.69823 9.48234H8.36187C8.44463 9.48249 8.51174 9.5496 8.5119 9.63236L8.51174 10.6684ZM14.9656 11.7072H14.9658C15.2412 11.7069 15.5051 11.5973 15.6999 11.4026C15.8946 11.2078 16.0042 10.9439 16.0045 10.6685V9.63237C16.0042 9.35696 15.8946 9.09284 15.6999 8.89819C15.5051 8.70336 15.2412 8.59394 14.9658 8.59363H12.3021C12.0267 8.59394 11.7626 8.70336 11.5679 8.89819C11.3731 9.09285 11.2637 9.35693 11.2634 9.63237V10.6685C11.2637 10.9439 11.3731 11.2078 11.5679 11.4026C11.7626 11.5973 12.0267 11.7069 12.3021 11.7072H14.9656ZM12.1519 10.6684L12.1521 9.63236C12.1523 9.5496 12.2194 9.48249 12.3021 9.48234H14.9658C15.0485 9.48249 15.1156 9.5496 15.1156 9.63236V10.6684C15.1156 10.7512 15.0485 10.8183 14.9658 10.8183H12.3021C12.2194 10.8183 12.1523 10.7512 12.1521 10.6684H12.1519ZM8.362 12.9962H5.69836C5.42295 12.9965 5.15899 13.1059 4.96434 13.3006C4.76952 13.4953 4.65994 13.7594 4.65963 14.0346V15.071C4.65994 15.3463 4.76952 15.6104 4.96434 15.8051C5.159 15.9997 5.42296 16.1092 5.69836 16.1095H8.362C8.63741 16.1092 8.90137 15.9997 9.09618 15.8051C9.29085 15.6104 9.40043 15.3463 9.40074 15.071V14.0346C9.40043 13.7594 9.29085 13.4953 9.09618 13.3006C8.90136 13.106 8.63744 12.9965 8.362 12.9962ZM8.51187 15.071H8.51203C8.51187 15.1537 8.44476 15.2206 8.362 15.2208H5.69836C5.6156 15.2206 5.54865 15.1537 5.54849 15.071V14.0346C5.54865 13.952 5.6156 13.8851 5.69836 13.8849H8.362C8.44476 13.8851 8.51187 13.952 8.51203 14.0346L8.51187 15.071ZM18.6644 12.4776V5.06597C18.6637 4.64238 18.495 4.23649 18.1953 3.9372C17.8957 3.63776 17.4895 3.46961 17.0659 3.46945H15.5118V3.45504C15.5123 3.06927 15.3595 2.69915 15.0868 2.42621C14.8142 2.15343 14.4444 2 14.0586 2C13.6729 2 13.3029 2.15344 13.0304 2.42621C12.7578 2.69914 12.6048 3.06926 12.6053 3.45504V3.46914H8.05912V3.45504C8.05958 3.06927 7.90661 2.69915 7.63398 2.42621C7.36151 2.15343 6.99157 2 6.60579 2C6.22002 2 5.85022 2.15344 5.5776 2.42621C5.30497 2.69914 5.15214 3.06926 5.15262 3.45504V3.46929L3.59855 3.46945C3.17496 3.4696 2.76874 3.63777 2.46914 3.9372C2.16939 4.23649 2.00075 4.64238 2 5.06597V17.0675C2.00046 17.4914 2.16909 17.8976 2.46867 18.1974C2.76841 18.497 3.17464 18.6656 3.59855 18.666H12.4759C13.0141 20.2703 14.344 21.482 15.9913 21.8692C17.6387 22.2563 19.369 21.7639 20.5657 20.5674C21.7622 19.3707 22.2546 17.6404 21.8675 15.993C21.4803 14.3456 20.2686 13.0159 18.6643 12.4776L18.6644 12.4776ZM13.4941 3.45509C13.4938 3.30521 13.5532 3.16139 13.659 3.05522C13.7649 2.94921 13.9087 2.88954 14.0586 2.88954C14.2084 2.88954 14.3523 2.94921 14.4581 3.05522C14.564 3.16139 14.6233 3.30522 14.623 3.45509V4.3723C14.6224 4.68367 14.3699 4.93567 14.0585 4.93567C13.7472 4.93567 13.4947 4.68366 13.4941 4.3723L13.4941 3.45509ZM6.04118 3.45509C6.04087 3.30521 6.10024 3.16139 6.20609 3.05522C6.31195 2.94921 6.45578 2.88954 6.60564 2.88954C6.75551 2.88954 6.89934 2.94921 7.00518 3.05522C7.11104 3.16139 7.1704 3.30522 7.17009 3.45509V4.3723C7.16947 4.68367 6.91699 4.93567 6.60561 4.93567C6.29423 4.93567 6.04176 4.68366 6.04112 4.3723L6.04118 3.45509ZM3.59843 17.7773C3.41027 17.777 3.22986 17.7023 3.09671 17.5691C2.96356 17.436 2.88887 17.2556 2.88856 17.0674V5.06593C2.88903 4.87793 2.96404 4.69783 3.09718 4.56517C3.23016 4.43249 3.41041 4.3581 3.59842 4.3581H5.15249V4.3722C5.15311 4.89094 5.43023 5.37 5.87953 5.62933C6.32899 5.88847 6.88244 5.88847 7.33179 5.62933C7.78109 5.37003 8.05823 4.89098 8.05899 4.3722V4.35794H12.6052V4.3722C12.606 4.89094 12.8831 5.37 13.3324 5.62933C13.7817 5.88847 14.3351 5.88847 14.7846 5.62933C15.2339 5.37003 15.5111 4.89098 15.5117 4.3722V4.3581H17.0657C17.2538 4.3581 17.434 4.43249 17.567 4.56517C17.7001 4.69799 17.7751 4.87793 17.7756 5.06593V12.2693C16.2598 12.0582 14.7327 12.5701 13.6508 13.6524C12.5685 14.7345 12.0566 16.2616 12.2677 17.7772L3.59843 17.7773ZM17.1089 21.1102C16.0481 21.1102 15.0308 20.6888 14.2808 19.9388C13.5308 19.1887 13.1094 18.1715 13.1094 17.1107C13.1094 16.05 13.5308 15.0326 14.2808 14.2827C15.0308 13.5327 16.0481 13.1113 17.1089 13.1113C18.1696 13.1113 19.1868 13.5327 19.9369 14.2827C20.6869 15.0326 21.1083 16.05 21.1083 17.1107C21.1071 18.171 20.6852 19.1876 19.9355 19.9374C19.1857 20.6871 18.1691 21.1089 17.1088 21.1102L17.1089 21.1102ZM18.9205 19.0301C19.0515 19.2232 19.0011 19.4857 18.808 19.6167C18.6149 19.7477 18.3523 19.6973 18.2214 19.5042L16.7584 17.3469C16.6502 17.1876 16.6637 16.9751 16.7911 16.8306L18.2119 15.2194C18.3663 15.0449 18.6329 15.0283 18.8076 15.1823C18.9824 15.3364 18.9993 15.603 18.8455 15.778L17.6414 17.1437L18.9205 19.0301Z" fill="white"/>
</svg>
