<svg width="45" height="45" viewBox="0 0 45 45" fill="none" xmlns="http://www.w3.org/2000/svg">
<g filter="url(#filter0_b_33_2126)">
<rect x="0.435227" y="0.435227" width="44.1295" height="44.1295" rx="8.26931" stroke="#8A9CFE" stroke-width="0.870453"/>
</g>
<path d="M33.9305 12.1289V35.5639C30.6396 32.6557 31.6921 33.6184 27.8692 30.0644L28.1184 32.481H13.7482C12.2721 32.481 11.0703 31.2794 11.0703 29.79V12.1289C11.0703 10.6398 12.272 9.43799 13.7482 9.43799H31.2525C32.7287 9.43799 33.9305 10.6398 33.9305 12.1289Z" fill="#8A9CFE"/>
<path d="M28.3257 16.8976C26.4446 15.4868 24.655 15.526 24.655 15.526L24.4721 15.735C26.6928 16.4143 27.7248 17.394 27.7248 17.394C24.6217 15.6933 20.9767 15.6931 17.9667 17.0152C17.4833 17.2373 17.196 17.394 17.196 17.394C17.196 17.394 18.2803 16.362 20.6316 15.6828L20.501 15.526C20.501 15.526 18.7113 15.4868 16.8303 16.8976C16.8303 16.8976 14.9492 20.3071 14.9492 24.5133C14.9492 24.5133 16.0466 26.4074 18.9334 26.4989C18.9334 26.4989 19.4168 25.9112 19.8086 25.4146C18.1496 24.9182 17.5227 23.8733 17.5227 23.8733C17.7148 24.0077 18.0317 24.1822 18.0582 24.1998C20.2631 25.4347 23.395 25.8392 26.2095 24.657C26.6666 24.4872 27.1762 24.239 27.7118 23.8863C27.7118 23.8863 27.0586 24.9575 25.3473 25.4408C25.7393 25.9372 26.2095 26.4988 26.2095 26.4988C29.0965 26.4074 30.2067 24.5132 30.2067 24.5132C30.2067 20.3071 28.3257 16.8976 28.3257 16.8976ZM20.1352 23.2985C19.4037 23.2985 18.8027 22.6454 18.8027 21.8485C18.8027 21.0516 19.3906 20.3985 20.1352 20.3985C20.8798 20.3985 21.4807 21.0516 21.4676 21.8485C21.4676 22.6454 20.8798 23.2985 20.1352 23.2985ZM24.9032 23.2985C24.1717 23.2985 23.5708 22.6454 23.5708 21.8485C23.5708 21.0516 24.1586 20.3985 24.9032 20.3985C25.6478 20.3985 26.2357 21.0516 26.2357 21.8485C26.2357 22.6454 25.6478 23.2985 24.9032 23.2985Z" fill="#FDFDFD"/>
<defs>
<filter id="filter0_b_33_2126" x="-76.5999" y="-76.5999" width="198.2" height="198.2" filterUnits="userSpaceOnUse" color-interpolation-filters="sRGB">
<feFlood flood-opacity="0" result="BackgroundImageFix"/>
<feGaussianBlur in="BackgroundImage" stdDeviation="38.2999"/>
<feComposite in2="SourceAlpha" operator="in" result="effect1_backgroundBlur_33_2126"/>
<feBlend mode="normal" in="SourceGraphic" in2="effect1_backgroundBlur_33_2126" result="shape"/>
</filter>
</defs>
</svg>
