<svg width="45" height="45" viewBox="0 0 45 45" fill="none" xmlns="http://www.w3.org/2000/svg">
<g filter="url(#filter0_b_33_2146)">
<rect x="0.435227" y="0.435227" width="44.1295" height="44.1295" rx="8.26931" stroke="#25D366" stroke-width="0.870453"/>
</g>
<path fill-rule="evenodd" clip-rule="evenodd" d="M30.1555 14.8582C28.1264 12.8257 25.423 11.7064 22.5461 11.7031C16.619 11.7031 11.7915 16.5273 11.7915 22.4578C11.7915 24.3527 12.2857 26.2052 13.2283 27.8351L11.7031 33.4088L17.4045 31.9131C18.9754 32.7706 20.7428 33.2222 22.5429 33.2222H22.5461C28.4733 33.2222 33.2975 28.398 33.3008 22.4676C33.304 19.594 32.188 16.8906 30.1555 14.8582ZM22.5494 31.4058H22.5461C20.9424 31.4058 19.3682 30.9738 17.9968 30.1588L17.6696 29.9657L14.2854 30.8527L15.1887 27.5536L14.976 27.2165C14.0825 25.7928 13.6079 24.1498 13.6079 22.4578C13.6112 17.5288 17.6205 13.5196 22.5527 13.5196C24.9419 13.5196 27.1838 14.4523 28.8726 16.1411C30.5614 17.8299 31.4909 20.0784 31.4876 22.4643C31.4876 27.3965 27.4751 31.4058 22.5494 31.4058ZM27.4522 24.7095C27.1838 24.5753 25.8615 23.924 25.6161 23.8356C25.3706 23.7473 25.1906 23.7014 25.0106 23.9698C24.8306 24.2382 24.3167 24.8437 24.1596 25.0237C24.0026 25.2037 23.8455 25.2266 23.5771 25.0924C23.3087 24.9582 22.4414 24.6735 21.417 23.7571C20.6184 23.0436 20.0784 22.1632 19.9213 21.8948C19.7642 21.6265 19.9049 21.4792 20.0391 21.345C20.1602 21.2239 20.3075 21.0308 20.4417 20.8737C20.5759 20.7166 20.6217 20.6053 20.71 20.4253C20.7984 20.2453 20.7559 20.0882 20.6871 19.954C20.6184 19.8198 20.0817 18.4976 19.8591 17.9576C19.6398 17.4339 19.4205 17.5059 19.2536 17.4961C19.0965 17.4895 18.9165 17.4863 18.7398 17.4863C18.5598 17.4863 18.2685 17.555 18.023 17.8234C17.7776 18.0918 17.0837 18.7431 17.0837 20.0653C17.0837 21.3875 18.0459 22.6672 18.1801 22.844C18.3143 23.024 20.0751 25.7372 22.772 26.9023C23.4134 27.1805 23.9142 27.3441 24.3037 27.4685C24.9484 27.6747 25.5343 27.6452 25.9957 27.5765C26.5128 27.498 27.5863 26.9252 27.8089 26.3001C28.0314 25.6717 28.0314 25.135 27.966 25.0237C27.9005 24.9124 27.7205 24.8469 27.4522 24.7095Z" fill="#25D366"/>
<defs>
<filter id="filter0_b_33_2146" x="-76.5999" y="-76.5999" width="198.2" height="198.2" filterUnits="userSpaceOnUse" color-interpolation-filters="sRGB">
<feFlood flood-opacity="0" result="BackgroundImageFix"/>
<feGaussianBlur in="BackgroundImage" stdDeviation="38.2999"/>
<feComposite in2="SourceAlpha" operator="in" result="effect1_backgroundBlur_33_2146"/>
<feBlend mode="normal" in="SourceGraphic" in2="effect1_backgroundBlur_33_2146" result="shape"/>
</filter>
</defs>
</svg>
