<svg width="15" height="8" viewBox="0 0 15 8" fill="none" xmlns="http://www.w3.org/2000/svg">
<path d="M14.7125 1.58121C14.8985 1.409 15 1.18982 15 0.931506C15 0.414872 14.5603 -1.59614e-07 14.0023 -1.35221e-07C13.7232 -1.23024e-07 13.4696 0.109589 13.2751 0.289628L7.49154 5.76908L1.72492 0.289628C1.53044 0.109589 1.26832 4.21397e-07 0.997745 4.33224e-07C0.439684 4.57618e-07 -3.31556e-07 0.414873 -3.08974e-07 0.931507C-2.97682e-07 1.18982 0.101465 1.409 0.287486 1.58121L6.71364 7.67123C6.93348 7.89041 7.20406 7.99217 7.5 8C7.79594 8 8.04961 7.89041 8.2779 7.67123L14.7125 1.58121Z" fill="#BFBFC3"/>
</svg>
