<svg width="231" height="132" viewBox="0 0 231 132" fill="none" xmlns="http://www.w3.org/2000/svg">
<path d="M70.0985 89.8964C69.5373 89.9315 69.1251 90.0016 68.862 90.1069C68.6165 90.2121 68.4499 90.4138 68.3622 90.7119C68.2745 91.0101 68.2306 91.4924 68.2306 92.1589V105.207C68.2306 105.874 68.2745 106.356 68.3622 106.654C68.4674 106.953 68.6428 107.154 68.8883 107.259C69.1339 107.365 69.5373 107.435 70.0985 107.47V107.996C69.0286 107.943 67.4765 107.917 65.442 107.917C63.3199 107.917 61.7589 107.943 60.7593 107.996V107.47C61.3906 107.435 61.8466 107.365 62.1273 107.259C62.4254 107.154 62.6271 106.953 62.7323 106.654C62.8376 106.356 62.8902 105.874 62.8902 105.207V91.7642L56.55 107.97H56.1291L48.7103 91.0802V102.84C48.7103 104.138 48.7629 105.076 48.8682 105.655C48.9734 106.216 49.2014 106.628 49.5522 106.891C49.9205 107.154 50.5256 107.347 51.3674 107.47V107.996C50.6483 107.943 49.6662 107.917 48.4209 107.917C47.4914 107.917 46.7636 107.943 46.2374 107.996V107.47C46.7811 107.347 47.1845 107.163 47.4476 106.917C47.7106 106.654 47.886 106.26 47.9737 105.734C48.0614 105.207 48.1053 104.418 48.1053 103.366V92.1589C48.1053 91.4924 48.0526 91.0101 47.9474 90.7119C47.8597 90.4138 47.6931 90.2121 47.4476 90.1069C47.202 90.0016 46.7986 89.9315 46.2374 89.8964V89.3702C46.7636 89.4229 47.4914 89.4492 48.4209 89.4492C50.5256 89.4492 52.3408 89.4229 53.8666 89.3702L58.8388 100.551L63.1533 89.4492H65.442C67.4765 89.4492 69.0286 89.4229 70.0985 89.3702V89.8964ZM77.8938 93.9741C80.051 93.9741 81.7172 94.5441 82.8922 95.6841C84.0673 96.8066 84.6549 98.6393 84.6549 101.182C84.6549 103.725 84.0673 105.558 82.8922 106.681C81.7172 107.803 80.051 108.364 77.8938 108.364C75.7365 108.364 74.0704 107.803 72.8953 106.681C71.7202 105.558 71.1327 103.725 71.1327 101.182C71.1327 98.6393 71.7202 96.8066 72.8953 95.6841C74.0704 94.5441 75.7365 93.9741 77.8938 93.9741ZM77.8938 94.5002C77.3325 94.5002 76.8853 95.0527 76.5521 96.1576C76.2189 97.2626 76.0522 98.9375 76.0522 101.182C76.0522 103.427 76.2189 105.102 76.5521 106.207C76.8853 107.295 77.3325 107.838 77.8938 107.838C78.455 107.838 78.9022 107.295 79.2355 106.207C79.5687 105.102 79.7353 103.427 79.7353 101.182C79.7353 98.9375 79.5687 97.2626 79.2355 96.1576C78.9022 95.0527 78.455 94.5002 77.8938 94.5002ZM93.0515 93.9741C95.2088 93.9741 96.8749 94.5441 98.05 95.6841C99.2251 96.8066 99.8126 98.6393 99.8126 101.182C99.8126 103.725 99.2251 105.558 98.05 106.681C96.8749 107.803 95.2088 108.364 93.0515 108.364C90.8943 108.364 89.2281 107.803 88.0531 106.681C86.878 105.558 86.2905 103.725 86.2905 101.182C86.2905 98.6393 86.878 96.8066 88.0531 95.6841C89.2281 94.5441 90.8943 93.9741 93.0515 93.9741ZM93.0515 94.5002C92.4903 94.5002 92.0431 95.0527 91.7098 96.1576C91.3766 97.2626 91.21 98.9375 91.21 101.182C91.21 103.427 91.3766 105.102 91.7098 106.207C92.0431 107.295 92.4903 107.838 93.0515 107.838C93.6128 107.838 94.06 107.295 94.3932 106.207C94.7265 105.102 94.8931 103.427 94.8931 101.182C94.8931 98.9375 94.7265 97.2626 94.3932 96.1576C94.06 95.0527 93.6128 94.5002 93.0515 94.5002ZM111.577 93.9741C112.98 93.9741 113.971 94.3249 114.549 95.0264C114.813 95.3421 115.005 95.7718 115.128 96.3155C115.251 96.8416 115.312 97.5432 115.312 98.4201V105.549C115.312 106.269 115.418 106.768 115.628 107.049C115.856 107.312 116.242 107.444 116.786 107.444V107.996C114.891 107.926 113.664 107.891 113.103 107.891C112.506 107.891 111.261 107.926 109.367 107.996V107.444C109.823 107.444 110.139 107.312 110.314 107.049C110.489 106.768 110.577 106.269 110.577 105.549V96.9995C110.577 96.4382 110.472 96.0261 110.261 95.763C110.068 95.4824 109.744 95.3421 109.288 95.3421C108.779 95.3421 108.332 95.5262 107.946 95.8946C107.578 96.2453 107.394 96.6926 107.394 97.2362V105.549C107.394 106.269 107.481 106.768 107.657 107.049C107.832 107.312 108.148 107.444 108.604 107.444V107.996C106.85 107.926 105.693 107.891 105.131 107.891C104.535 107.891 103.22 107.926 101.185 107.996V107.444C101.729 107.444 102.106 107.312 102.316 107.049C102.544 106.768 102.658 106.269 102.658 105.549V97.2099C102.658 96.4032 102.544 95.8156 102.316 95.4473C102.106 95.079 101.729 94.8949 101.185 94.8949V94.3424C101.746 94.395 102.29 94.4213 102.816 94.4213C104.64 94.4213 106.166 94.2986 107.394 94.053V95.9472C108.183 94.6318 109.577 93.9741 111.577 93.9741ZM136.701 106.944C136.174 107.47 135.596 107.838 134.964 108.049C134.333 108.259 133.596 108.364 132.754 108.364C131.544 108.364 130.606 108.154 129.939 107.733C129.273 107.295 128.861 106.558 128.703 105.523L128.308 102.892C128.133 101.665 127.887 100.735 127.572 100.104C127.274 99.4724 126.818 99.1567 126.204 99.1567H125.02V105.207C125.02 105.874 125.064 106.356 125.151 106.654C125.257 106.953 125.432 107.154 125.678 107.259C125.923 107.365 126.327 107.435 126.888 107.47V107.996C125.871 107.943 124.406 107.917 122.494 107.917C120.372 107.917 118.811 107.943 117.812 107.996V107.47C118.373 107.435 118.776 107.365 119.022 107.259C119.285 107.154 119.46 106.953 119.548 106.654C119.636 106.356 119.679 105.874 119.679 105.207V92.1589C119.679 91.4924 119.627 91.0101 119.522 90.7119C119.434 90.4138 119.267 90.2121 119.022 90.1069C118.776 90.0016 118.373 89.9315 117.812 89.8964V89.3702C118.811 89.4229 120.32 89.4492 122.337 89.4492L125.362 89.4229C125.713 89.4053 126.116 89.3966 126.572 89.3966C129.238 89.3966 131.22 89.7736 132.518 90.5278C133.833 91.2819 134.491 92.4307 134.491 93.9741C134.491 95.2895 134 96.4119 133.017 97.3415C132.035 98.271 130.387 98.841 128.072 99.0515C129.861 99.1742 131.211 99.5162 132.123 100.077C133.035 100.621 133.596 101.428 133.807 102.498L134.359 105.234C134.482 105.883 134.631 106.33 134.806 106.575C134.982 106.821 135.227 106.944 135.543 106.944C135.859 106.944 136.131 106.83 136.359 106.602L136.701 106.944ZM126.441 89.8964C126.037 89.8964 125.73 89.9578 125.52 90.0806C125.327 90.2033 125.195 90.4226 125.125 90.7382C125.055 91.0539 125.02 91.5275 125.02 92.1589V98.6306H125.73C126.975 98.6306 127.826 98.2535 128.282 97.4993C128.738 96.7276 128.966 95.649 128.966 94.2635C128.966 92.8253 128.764 91.7379 128.361 91.0013C127.975 90.2647 127.335 89.8964 126.441 89.8964ZM140.271 87.4235C141.183 87.4235 141.884 87.6164 142.375 88.0022C142.884 88.3881 143.138 88.9493 143.138 89.6859C143.138 90.4226 142.884 90.9838 142.375 91.3696C141.884 91.7555 141.183 91.9484 140.271 91.9484C139.341 91.9484 138.631 91.7555 138.14 91.3696C137.649 90.9838 137.403 90.4226 137.403 89.6859C137.403 88.9493 137.649 88.3881 138.14 88.0022C138.631 87.6164 139.341 87.4235 140.271 87.4235ZM142.796 105.549C142.796 106.269 142.901 106.768 143.112 107.049C143.34 107.312 143.726 107.444 144.269 107.444V107.996C142.375 107.926 141.13 107.891 140.534 107.891C139.937 107.891 138.622 107.926 136.587 107.996V107.444C137.131 107.444 137.508 107.312 137.719 107.049C137.947 106.768 138.061 106.269 138.061 105.549V97.2099C138.061 96.4032 137.947 95.8156 137.719 95.4473C137.508 95.079 137.131 94.8949 136.587 94.8949V94.3424C137.149 94.395 137.692 94.4213 138.219 94.4213C140.043 94.4213 141.568 94.2986 142.796 94.053V105.549ZM158.846 105.102C158.846 105.909 158.951 106.497 159.162 106.865C159.39 107.233 159.775 107.417 160.319 107.417V107.97C159.775 107.917 159.232 107.891 158.688 107.891C156.864 107.891 155.338 108.014 154.11 108.259V106.391C153.742 107.075 153.304 107.575 152.795 107.891C152.304 108.207 151.673 108.364 150.901 108.364C149.287 108.364 147.99 107.768 147.007 106.575C146.025 105.365 145.534 103.533 145.534 101.077C145.534 98.7446 146.052 96.9819 147.086 95.7893C148.139 94.5792 149.568 93.9741 151.374 93.9741C152.497 93.9741 153.409 94.1933 154.11 94.6318V90.5804C154.11 89.7736 153.996 89.1861 153.768 88.8178C153.558 88.4495 153.181 88.2653 152.637 88.2653V87.7129C153.181 87.7655 153.725 87.7918 154.268 87.7918C156.092 87.7918 157.618 87.669 158.846 87.4235V105.102ZM152.216 106.996C152.725 106.996 153.163 106.821 153.532 106.47C153.918 106.102 154.11 105.646 154.11 105.102V95.1842C153.725 94.9562 153.312 94.8422 152.874 94.8422C152.05 94.8422 151.436 95.3684 151.032 96.4207C150.647 97.4555 150.454 99.0339 150.454 101.156C150.454 103.313 150.612 104.83 150.927 105.707C151.243 106.567 151.673 106.996 152.216 106.996ZM169.51 105.497C170.791 105.497 171.852 104.909 172.694 103.734L173.141 103.892C172.755 105.12 172.097 106.172 171.168 107.049C170.256 107.926 169.081 108.364 167.642 108.364C165.801 108.364 164.328 107.794 163.223 106.654C162.118 105.514 161.565 103.69 161.565 101.182C161.565 98.7796 162.179 96.9819 163.407 95.7893C164.652 94.5792 166.292 93.9741 168.326 93.9741C171.641 93.9741 173.299 95.9384 173.299 99.867H166.511C166.494 100.077 166.485 100.393 166.485 100.814C166.485 102.498 166.774 103.699 167.353 104.418C167.949 105.137 168.668 105.497 169.51 105.497ZM168.142 94.5792C167.16 94.5792 166.581 96.1752 166.406 99.3672H169.458C169.475 97.9641 169.37 96.8153 169.142 95.9209C168.932 95.0264 168.598 94.5792 168.142 94.5792ZM183.879 93.9741C184.738 93.9741 185.352 94.2372 185.72 94.7633C186.106 95.2895 186.299 95.9121 186.299 96.6312C186.299 97.4204 186.071 98.0518 185.615 98.5253C185.176 98.9813 184.598 99.2093 183.879 99.2093C183.124 99.2093 182.546 99.0427 182.142 98.7095C181.739 98.3587 181.537 97.8939 181.537 97.3152C181.537 96.2804 181.984 95.4649 182.879 94.8686C182.563 94.8686 182.283 94.9299 182.037 95.0527C181.599 95.2456 181.23 95.5613 180.932 95.9998C180.634 96.4207 180.485 96.8855 180.485 97.3941V105.286C180.485 106.111 180.652 106.681 180.985 106.996C181.336 107.295 181.923 107.444 182.747 107.444V107.996C182.519 107.996 182.326 107.987 182.169 107.97C180.327 107.917 179.099 107.891 178.486 107.891C177.942 107.891 176.723 107.917 174.829 107.97C174.688 107.987 174.504 107.996 174.276 107.996V107.444C174.82 107.444 175.197 107.312 175.408 107.049C175.636 106.768 175.75 106.269 175.75 105.549V97.2099C175.75 96.4032 175.636 95.8156 175.408 95.4473C175.197 95.079 174.82 94.8949 174.276 94.8949V94.3424C174.838 94.395 175.381 94.4213 175.907 94.4213C177.731 94.4213 179.257 94.2986 180.485 94.053V95.9472C181.151 94.6318 182.283 93.9741 183.879 93.9741Z" fill="#01AB6C"/>
<g clip-path="url(#clip0_2347_59572)">
<path d="M118.13 6.42812C117.78 6.22425 117.383 6.11683 116.978 6.11683C116.573 6.11683 116.175 6.22425 115.826 6.42812C111.65 8.88209 108.252 12.4656 106.023 16.766C103.794 21.0664 102.825 25.9088 103.228 30.7357L103.565 34.6767L98.3404 37.8704C96.9603 38.537 95.868 39.6804 95.2652 41.0895C94.6625 42.4987 94.5899 44.0783 95.061 45.5368L97.8077 55.3944C97.9039 55.7397 98.08 56.0576 98.3217 56.3223C98.5634 56.587 98.864 56.7911 99.1992 56.9181C99.5344 57.0452 99.8948 57.0916 100.251 57.0536C100.608 57.0156 100.95 56.8943 101.251 56.6994L107.281 52.7983C108.141 54.4994 109.157 56.1166 110.317 57.6289C110.531 57.9063 110.805 58.131 111.119 58.2856C111.433 58.4402 111.779 58.5206 112.129 58.5206L122.148 58.5206C122.448 58.5207 122.746 58.4617 123.023 58.3469C123.3 58.2321 123.552 58.0638 123.764 57.8515C123.811 57.805 123.855 57.7561 123.898 57.7048C125.142 56.2159 126.226 54.6011 127.133 52.8866L133.026 56.6995C133.327 56.8942 133.67 57.0153 134.026 57.0532C134.382 57.0911 134.743 57.0447 135.078 56.9176C135.413 56.7906 135.714 56.5866 135.955 56.322C136.197 56.0574 136.373 55.7396 136.47 55.3944L139.221 45.5242C139.57 44.0962 139.456 42.5945 138.895 41.2357C138.335 39.8768 137.358 38.7309 136.104 37.9634L130.565 34.5856L130.726 30.7483C131.145 25.9178 130.183 21.0678 127.953 16.7624C125.723 12.4571 122.317 8.87332 118.13 6.42812ZM101.376 51.1745L99.4308 44.2001C99.2842 43.7411 99.3188 43.2435 99.5274 42.8092C99.7361 42.3749 100.103 42.0369 100.553 41.8645L104.001 39.7618L104.198 42.0594C104.395 44.2487 104.834 46.4096 105.505 48.503L101.376 51.1745ZM134.814 44.3098L132.901 51.1737L128.967 48.6283C129.673 46.5197 130.103 44.3292 130.25 42.1106L130.346 39.8043L133.688 41.8423C134.105 42.0899 134.436 42.4589 134.637 42.8999C134.839 43.3408 134.9 43.8328 134.814 44.3098ZM126.167 30.4454L125.685 41.8716C125.366 46.2666 123.755 50.4692 121.053 53.9505L113.283 53.9505C110.705 50.3292 109.14 46.0857 108.75 41.6579L108.242 35.7256C108.24 35.6331 108.232 35.5409 108.218 35.4494L107.784 30.3775C107.473 26.638 108.161 22.8831 109.776 19.4961C111.391 16.1092 113.876 13.2117 116.978 11.0993C120.099 13.2079 122.598 16.1149 124.214 19.5174C125.831 22.92 126.505 26.6936 126.167 30.4454ZM114.715 21.9764C114.236 22.4558 113.909 23.0666 113.777 23.7316C113.645 24.3966 113.712 25.0858 113.972 25.7122C114.231 26.3386 114.671 26.874 115.235 27.2506C115.798 27.6273 116.461 27.8284 117.139 27.8284C117.817 27.8284 118.48 27.6273 119.044 27.2506C119.607 26.874 120.047 26.3386 120.306 25.7122C120.566 25.0858 120.633 24.3966 120.501 23.7316C120.369 23.0666 120.042 22.4558 119.563 21.9764C119.245 21.658 118.867 21.4055 118.451 21.2332C118.035 21.0609 117.589 20.9722 117.139 20.9722C116.689 20.9722 116.243 21.0609 115.827 21.2332C115.411 21.4055 115.033 21.658 114.715 21.9764Z" fill="#01AB6C"/>
</g>
<defs>
<clipPath id="clip0_2347_59572">
<rect width="54.8482" height="54.8482" fill="white" transform="translate(78.2754 39.6191) rotate(-45)"/>
</clipPath>
</defs>
</svg>
