<svg width="391" height="358" viewBox="0 0 391 358" fill="none" xmlns="http://www.w3.org/2000/svg">
<path d="M25.9473 269.529C32.7801 270.155 39.1847 273.13 44.0705 277.947C48.9563 282.765 52.0211 289.127 52.7429 295.95C53.4644 289.128 56.5279 282.767 61.4118 277.95C66.2958 273.133 72.6983 270.157 79.5295 269.529C57.4495 269.529 54.2005 257.138 52.7339 243.104C51.2763 257.138 50.437 269.529 25.9473 269.529Z" fill="white" fill-opacity="0.2"/>
<path d="M288.787 159.281C293.183 159.683 297.304 161.597 300.447 164.697C303.59 167.796 305.561 171.89 306.025 176.28C306.49 171.889 308.462 167.796 311.606 164.696C314.75 161.597 318.871 159.683 323.268 159.281C309.062 159.281 306.968 151.307 306.025 142.277C305.082 151.325 304.545 159.281 288.787 159.281Z" fill="white" fill-opacity="0.2"/>
<path d="M235.666 246.336C239.665 246.703 243.414 248.444 246.274 251.264C249.134 254.084 250.928 257.807 251.352 261.801C251.773 257.809 253.565 254.086 256.423 251.266C259.28 248.447 263.026 246.704 267.024 246.336C254.1 246.336 252.2 239.08 251.343 230.867C250.49 239.08 250.002 246.336 235.666 246.336Z" fill="white" fill-opacity="0.2"/>
<path d="M125.648 48.5524C132.552 49.185 139.024 52.191 143.96 57.0586C148.897 61.9262 151.994 68.3545 152.724 75.2488C153.454 68.3545 156.551 61.9262 161.487 57.0586C166.424 52.191 172.895 49.185 179.799 48.5524C157.489 48.5524 154.204 36.0301 152.724 21.8516C151.244 36.0165 150.395 48.5524 125.648 48.5524Z" fill="white" fill-opacity="0.2"/>
<path d="M360.435 105.693C364.223 106.041 367.775 107.692 370.484 110.363C373.193 113.034 374.893 116.562 375.294 120.346C375.696 116.562 377.396 113.034 380.105 110.363C382.814 107.692 386.365 106.041 390.154 105.693C377.907 105.693 376.107 98.8207 375.294 91.041C374.482 98.8207 374.013 105.693 360.435 105.693Z" fill="white" fill-opacity="0.2"/>
<path d="M296.367 340.089C300.964 340.511 305.272 342.512 308.559 345.753C311.846 348.994 313.908 353.274 314.395 357.864C314.882 353.27 316.948 348.988 320.239 345.747C323.531 342.505 327.845 340.506 332.445 340.089C317.59 340.089 315.406 331.754 314.395 322.318C313.407 331.754 312.843 340.089 296.367 340.089Z" fill="white" fill-opacity="0.2"/>
<path d="M78.6406 131.837C81.3727 132.09 83.9326 133.283 85.8842 135.211C87.8359 137.14 89.0587 139.685 89.3444 142.414C89.6335 139.685 90.8594 137.141 92.8134 135.214C94.7675 133.287 97.3289 132.097 100.062 131.846C91.2307 131.846 89.9311 126.882 89.3444 121.277C88.7713 126.882 88.4419 131.837 78.6406 131.837Z" fill="white" fill-opacity="0.2"/>
<path d="M161.16 242.746C163.893 242.996 166.455 244.186 168.409 246.113C170.364 248.04 171.589 250.585 171.878 253.315C172.167 250.584 173.394 248.039 175.35 246.111C177.306 244.184 179.869 242.995 182.604 242.746C173.773 242.746 172.473 237.782 171.887 232.178C171.291 237.809 170.957 242.746 161.16 242.746Z" fill="white" fill-opacity="0.2"/>
<path d="M216.071 25.5919C218.804 25.8427 221.366 27.0329 223.32 28.9598C225.274 30.8867 226.5 33.4313 226.789 36.1603C227.078 33.4306 228.304 30.8854 230.259 28.9584C232.214 27.0314 234.777 25.8417 237.51 25.5919C228.675 25.5919 227.375 20.6281 226.789 15.0234C226.202 20.6371 225.868 25.5919 216.071 25.5919Z" fill="white" fill-opacity="0.2"/>
<path d="M0 26.1684C6.75981 26.7875 13.0963 29.7295 17.9315 34.4939C22.7667 39.2583 25.8017 45.5508 26.5204 52.3007C27.2359 45.5478 30.2696 39.2516 35.1049 34.4837C39.9403 29.7158 46.2785 26.771 53.0408 26.1504C31.1909 26.1504 27.9734 13.8852 26.5204 0C25.0718 13.9032 24.2415 26.1684 0 26.1684Z" fill="white" fill-opacity="0.2"/>
</svg>
