<svg width="250" height="229" viewBox="0 0 250 229" fill="none" xmlns="http://www.w3.org/2000/svg">
<path d="M16.5957 172.373C20.9655 172.773 25.0614 174.675 28.186 177.756C31.3106 180.837 33.2706 184.906 33.7323 189.27C34.1937 184.907 36.1528 180.839 39.2763 177.758C42.3997 174.677 46.4943 172.774 50.863 172.373C36.7423 172.373 34.6644 164.448 33.7265 155.473C32.7943 164.448 32.2575 172.373 16.5957 172.373Z" fill="white" fill-opacity="0.2"/>
<path d="M184.686 101.864C187.497 102.122 190.132 103.346 192.142 105.328C194.152 107.31 195.413 109.928 195.71 112.736C196.007 109.928 197.268 107.31 199.279 105.328C201.29 103.346 203.925 102.122 206.737 101.864C197.652 101.864 196.313 96.7649 195.71 90.9902C195.107 96.7765 194.763 101.864 184.686 101.864Z" fill="white" fill-opacity="0.2"/>
<path d="M150.716 157.539C153.273 157.774 155.671 158.888 157.5 160.691C159.329 162.494 160.476 164.875 160.747 167.429C161.017 164.876 162.163 162.495 163.99 160.692C165.818 158.889 168.214 157.775 170.77 157.539C162.505 157.539 161.29 152.899 160.741 147.646C160.196 152.899 159.884 157.539 150.716 157.539Z" fill="white" fill-opacity="0.2"/>
<path d="M80.3564 31.0506C84.7717 31.4551 88.9103 33.3775 92.0674 36.4905C95.2246 39.6034 97.2052 43.7145 97.6719 48.1236C98.1387 43.7145 100.119 39.6034 103.276 36.4905C106.434 33.3775 110.572 31.4551 114.987 31.0506C100.719 31.0506 98.6185 23.0421 97.6719 13.9746C96.7253 23.0335 96.1828 31.0506 80.3564 31.0506Z" fill="white" fill-opacity="0.2"/>
<path d="M230.508 67.5952C232.931 67.8178 235.202 68.8731 236.935 70.5815C238.667 72.29 239.754 74.546 240.011 76.9657C240.268 74.546 241.355 72.29 243.088 70.5815C244.82 68.8731 247.091 67.8178 249.514 67.5952C241.682 67.5952 240.531 63.1999 240.011 58.2246C239.492 63.1999 239.192 67.5952 230.508 67.5952Z" fill="white" fill-opacity="0.2"/>
<path d="M189.536 217.496C192.476 217.765 195.231 219.046 197.333 221.118C199.435 223.191 200.754 225.928 201.065 228.863C201.377 225.925 202.698 223.187 204.803 221.114C206.908 219.041 209.667 217.762 212.609 217.496C203.109 217.496 201.712 212.165 201.065 206.131C200.433 212.165 200.073 217.496 189.536 217.496Z" fill="white" fill-opacity="0.2"/>
<path d="M50.291 84.3116C52.0383 84.4736 53.6754 85.2363 54.9235 86.4697C56.1716 87.7031 56.9537 89.331 57.1364 91.0762C57.3212 89.3309 58.1052 87.7036 59.3549 86.4713C60.6046 85.2389 62.2427 84.4778 63.9904 84.3174C58.3427 84.3174 57.5116 81.1429 57.1364 77.5586C56.7699 81.1429 56.5592 84.3116 50.291 84.3116Z" fill="white" fill-opacity="0.2"/>
<path d="M103.065 155.243C104.813 155.403 106.452 156.164 107.702 157.396C108.951 158.629 109.735 160.256 109.919 162.002C110.105 160.256 110.889 158.628 112.14 157.395C113.391 156.163 115.031 155.402 116.779 155.243C111.132 155.243 110.3 152.069 109.925 148.484C109.544 152.086 109.331 155.243 103.065 155.243Z" fill="white" fill-opacity="0.2"/>
<path d="M138.185 16.3662C139.932 16.5266 141.57 17.2878 142.82 18.5201C144.07 19.7524 144.854 21.3797 145.039 23.125C145.224 21.3793 146.008 19.7516 147.258 18.5192C148.508 17.2869 150.147 16.526 151.896 16.3662C146.245 16.3662 145.414 13.1917 145.039 9.60742C144.663 13.1975 144.45 16.3662 138.185 16.3662Z" fill="white" fill-opacity="0.2"/>
<path d="M0 16.7354C4.32308 17.1313 8.37547 19.0128 11.4677 22.0598C14.5599 25.1067 16.5009 29.1309 16.9605 33.4477C17.4181 29.1291 19.3582 25.1025 22.4506 22.0533C25.5429 19.0041 29.5964 17.1208 33.921 16.7239C19.9474 16.7239 17.8898 8.87995 16.9605 0C16.0341 8.8915 15.5031 16.7354 0 16.7354Z" fill="white" fill-opacity="0.2"/>
</svg>
