<svg id="Layer_1" data-name="Layer 1" xmlns="http://www.w3.org/2000/svg" viewBox="0 0 1440 1024"><defs><style>.cls-1{fill:#fff;fill-opacity:0.2;}</style></defs><title>star-background</title><rect x="0.5" y="0.5" width="1439" height="1023"/><path d="M1439,1V1023H1V1H1439m1-1H0V1024H1440V0Z"/><path class="cls-1" d="M550.37,611.23a29.64,29.64,0,0,1,26.79,26.42A29.67,29.67,0,0,1,604,611.23c-22.08,0-25.33-12.39-26.8-26.43C575.69,598.84,574.86,611.23,550.37,611.23Z"/><path class="cls-1" d="M813.21,501a19.05,19.05,0,0,1,17.23,17,19.07,19.07,0,0,1,17.25-17c-14.21,0-16.3-8-17.25-17C829.5,493,829,501,813.21,501Z"/><path class="cls-1" d="M760.08,588a17.38,17.38,0,0,1,15.69,15.47A17.36,17.36,0,0,1,791.44,588c-12.92,0-14.82-7.25-15.68-15.47C774.91,580.78,774.42,588,760.08,588Z"/><path class="cls-1" d="M650.07,390.25A30,30,0,0,1,677.14,417a30,30,0,0,1,27.08-26.7c-22.31,0-25.6-12.52-27.08-26.7C675.66,377.71,674.81,390.25,650.07,390.25Z"/><path class="cls-1" d="M884.85,447.39A16.46,16.46,0,0,1,899.71,462a16.46,16.46,0,0,1,14.86-14.65c-12.24,0-14-6.87-14.86-14.65C898.9,440.52,898.43,447.39,884.85,447.39Z"/><path class="cls-1" d="M820.79,681.79a19.94,19.94,0,0,1,18,17.77,20,20,0,0,1,18.05-17.77c-14.85,0-17-8.34-18.05-17.77C837.83,673.45,837.26,681.79,820.79,681.79Z"/><path class="cls-1" d="M603.06,473.53a11.88,11.88,0,0,1,10.7,10.58,11.87,11.87,0,0,1,10.72-10.57c-8.83,0-10.13-5-10.72-10.57C613.19,468.58,612.86,473.53,603.06,473.53Z"/><path class="cls-1" d="M685.58,584.44A11.87,11.87,0,0,1,696.3,595,11.87,11.87,0,0,1,707,584.44c-8.83,0-10.13-5-10.71-10.56C695.71,579.51,695.38,584.44,685.58,584.44Z"/><path class="cls-1" d="M740.49,367.29a11.87,11.87,0,0,1,10.72,10.57,11.87,11.87,0,0,1,10.72-10.57c-8.84,0-10.14-5-10.72-10.57C750.62,362.33,750.29,367.29,740.49,367.29Z"/><path class="cls-1" d="M524.42,367.87A29.35,29.35,0,0,1,550.94,394a29.35,29.35,0,0,1,26.52-26.15c-21.85,0-25.07-12.27-26.52-26.15C549.49,355.6,548.66,367.87,524.42,367.87Z"/></svg>