<svg width="124" height="20" viewBox="0 0 124 20" fill="none" xmlns="http://www.w3.org/2000/svg">
<path d="M21.3159 3.09983C20.8229 3.13064 20.4608 3.19227 20.2297 3.28472C20.014 3.37716 19.8676 3.55434 19.7906 3.81626C19.7136 4.07818 19.675 4.50188 19.675 5.08735V16.5503C19.675 17.1357 19.7136 17.5594 19.7906 17.8214C19.883 18.0833 20.0371 18.2605 20.2528 18.3529C20.4685 18.4453 20.8229 18.507 21.3159 18.5378V19C20.3761 18.9538 19.0125 18.9307 17.2253 18.9307C15.361 18.9307 13.9898 18.9538 13.1116 19V18.5378C13.6663 18.507 14.0668 18.4453 14.3134 18.3529C14.5753 18.2605 14.7525 18.0833 14.8449 17.8214C14.9374 17.5594 14.9836 17.1357 14.9836 16.5503V4.74069L9.41389 18.9769H9.04412L2.5269 4.13981V14.4703C2.5269 15.6104 2.57312 16.4347 2.66556 16.9431C2.75801 17.4362 2.9583 17.7982 3.26644 18.0294C3.58999 18.2605 4.12154 18.4299 4.86108 18.5378V19C4.22939 18.9538 3.36659 18.9307 2.27268 18.9307C1.4561 18.9307 0.816707 18.9538 0.354492 19V18.5378C0.832114 18.4299 1.18648 18.2682 1.41759 18.0525C1.64869 17.8214 1.80276 17.4747 1.8798 17.0125C1.95683 16.5503 1.99535 15.8569 1.99535 14.9325V5.08735C1.99535 4.50188 1.94913 4.07818 1.85669 3.81626C1.77965 3.55434 1.63328 3.37716 1.41759 3.28472C1.20189 3.19227 0.847521 3.13064 0.354492 3.09983V2.63762C0.816707 2.68384 1.4561 2.70695 2.27268 2.70695C4.12154 2.70695 5.71618 2.68384 7.0566 2.63762L11.4245 12.4597L15.2147 2.70695H17.2253C19.0125 2.70695 20.3761 2.68384 21.3159 2.63762V3.09983ZM28.1639 6.68199C30.059 6.68199 31.5227 7.18272 32.5549 8.18419C33.5872 9.17024 34.1034 10.7803 34.1034 13.0143C34.1034 15.2484 33.5872 16.8584 32.5549 17.8445C31.5227 18.8305 30.059 19.3235 28.1639 19.3235C26.2688 19.3235 24.8051 18.8305 23.7729 17.8445C22.7406 16.8584 22.2244 15.2484 22.2244 13.0143C22.2244 10.7803 22.7406 9.17024 23.7729 8.18419C24.8051 7.18272 26.2688 6.68199 28.1639 6.68199ZM28.1639 7.14421C27.6709 7.14421 27.278 7.62953 26.9853 8.60018C26.6925 9.57083 26.5461 11.0422 26.5461 13.0143C26.5461 14.9864 26.6925 16.4578 26.9853 17.4285C27.278 18.3837 27.6709 18.8613 28.1639 18.8613C28.6569 18.8613 29.0498 18.3837 29.3425 17.4285C29.6353 16.4578 29.7816 14.9864 29.7816 13.0143C29.7816 11.0422 29.6353 9.57083 29.3425 8.60018C29.0498 7.62953 28.6569 7.14421 28.1639 7.14421ZM41.4796 6.68199C43.3747 6.68199 44.8384 7.18272 45.8707 8.18419C46.903 9.17024 47.4191 10.7803 47.4191 13.0143C47.4191 15.2484 46.903 16.8584 45.8707 17.8445C44.8384 18.8305 43.3747 19.3235 41.4796 19.3235C39.5846 19.3235 38.1209 18.8305 37.0886 17.8445C36.0563 16.8584 35.5402 15.2484 35.5402 13.0143C35.5402 10.7803 36.0563 9.17024 37.0886 8.18419C38.1209 7.18272 39.5846 6.68199 41.4796 6.68199ZM41.4796 7.14421C40.9866 7.14421 40.5937 7.62953 40.301 8.60018C40.0083 9.57083 39.8619 11.0422 39.8619 13.0143C39.8619 14.9864 40.0083 16.4578 40.301 17.4285C40.5937 18.3837 40.9866 18.8613 41.4796 18.8613C41.9727 18.8613 42.3656 18.3837 42.6583 17.4285C42.951 16.4578 43.0974 14.9864 43.0974 13.0143C43.0974 11.0422 42.951 9.57083 42.6583 8.60018C42.3656 7.62953 41.9727 7.14421 41.4796 7.14421ZM57.7536 6.68199C58.9861 6.68199 59.8566 6.99013 60.3651 7.60642C60.5962 7.88375 60.7656 8.26122 60.8735 8.73884C60.9813 9.20106 61.0353 9.81734 61.0353 10.5877V16.8507C61.0353 17.4824 61.1277 17.9215 61.3126 18.168C61.5129 18.3991 61.8519 18.5147 62.3295 18.5147V19C60.6655 18.9384 59.587 18.9076 59.094 18.9076C58.5701 18.9076 57.4762 18.9384 55.8123 19V18.5147C56.2128 18.5147 56.4902 18.3991 56.6442 18.168C56.7983 17.9215 56.8753 17.4824 56.8753 16.8507V9.33972C56.8753 8.84669 56.7829 8.48463 56.598 8.25352C56.4285 8.007 56.1435 7.88375 55.7429 7.88375C55.2961 7.88375 54.9032 8.04552 54.5643 8.36907C54.2407 8.67722 54.0789 9.0701 54.0789 9.54772V16.8507C54.0789 17.4824 54.156 17.9215 54.3101 18.168C54.4641 18.3991 54.7415 18.5147 55.142 18.5147V19C53.6013 18.9384 52.5845 18.9076 52.0914 18.9076C51.5676 18.9076 50.412 18.9384 48.6248 19V18.5147C49.1024 18.5147 49.4337 18.3991 49.6186 18.168C49.8189 17.9215 49.919 17.4824 49.919 16.8507V9.52461C49.919 8.81588 49.8189 8.29974 49.6186 7.97619C49.4337 7.65264 49.1024 7.49087 48.6248 7.49087V7.00554C49.1178 7.05176 49.5955 7.07487 50.0577 7.07487C51.66 7.07487 53.0004 6.96702 54.0789 6.75132V8.41529C54.7723 7.25976 55.9971 6.68199 57.7536 6.68199ZM79.8243 18.0756C79.3621 18.5378 78.8536 18.8613 78.299 19.0462C77.7443 19.2311 77.0972 19.3235 76.3577 19.3235C75.2946 19.3235 74.4703 19.1387 73.8848 18.7689C73.2994 18.3837 72.9373 17.7366 72.7986 16.8276L72.452 14.5165C72.2979 13.438 72.0822 12.6214 71.8049 12.0668C71.5429 11.5121 71.1424 11.2348 70.6031 11.2348H69.5631V16.5503C69.5631 17.1357 69.6016 17.5594 69.6787 17.8214C69.7711 18.0833 69.9252 18.2605 70.1409 18.3529C70.3566 18.4453 70.711 18.507 71.204 18.5378V19C70.3104 18.9538 69.0239 18.9307 67.3445 18.9307C65.4802 18.9307 64.109 18.9538 63.2308 19V18.5378C63.7238 18.507 64.0782 18.4453 64.2939 18.3529C64.525 18.2605 64.6791 18.0833 64.7561 17.8214C64.8331 17.5594 64.8717 17.1357 64.8717 16.5503V5.08735C64.8717 4.50188 64.8254 4.07818 64.733 3.81626C64.656 3.55434 64.5096 3.37716 64.2939 3.28472C64.0782 3.19227 63.7238 3.13064 63.2308 3.09983V2.63762C64.109 2.68384 65.434 2.70695 67.2058 2.70695L69.8636 2.68384C70.1717 2.66843 70.5261 2.66073 70.9267 2.66073C73.2685 2.66073 75.0096 2.99198 76.1497 3.65449C77.3052 4.31699 77.883 5.32616 77.883 6.68199C77.883 7.83753 77.4516 8.82358 76.5888 9.64016C75.726 10.4567 74.2777 10.9575 72.244 11.1424C73.8155 11.2502 75.0019 11.5506 75.803 12.0437C76.6042 12.5213 77.0972 13.23 77.2821 14.1699L77.7674 16.5734C77.8753 17.1434 78.0062 17.5363 78.1603 17.752C78.3144 17.9677 78.5301 18.0756 78.8074 18.0756C79.0847 18.0756 79.3236 17.9754 79.5238 17.7751L79.8243 18.0756ZM70.8111 3.09983C70.4567 3.09983 70.1871 3.15376 70.0022 3.26161C69.8328 3.36946 69.7172 3.56205 69.6556 3.83937C69.5939 4.1167 69.5631 4.53269 69.5631 5.08735V10.7726H70.1871C71.281 10.7726 72.0283 10.4413 72.4289 9.77883C72.8294 9.10091 73.0297 8.15337 73.0297 6.93621C73.0297 5.67282 72.8526 4.71758 72.4982 4.07048C72.1592 3.42338 71.5969 3.09983 70.8111 3.09983ZM82.9605 0.927423C83.7617 0.927423 84.3779 1.0969 84.8093 1.43586C85.2561 1.77482 85.4795 2.26785 85.4795 2.91494C85.4795 3.56204 85.2561 4.05507 84.8093 4.39403C84.3779 4.73299 83.7617 4.90247 82.9605 4.90247C82.1439 4.90247 81.5199 4.73299 81.0885 4.39403C80.6571 4.05507 80.4414 3.56204 80.4414 2.91494C80.4414 2.26785 80.6571 1.77482 81.0885 1.43586C81.5199 1.0969 82.1439 0.927423 82.9605 0.927423ZM85.1791 16.8507C85.1791 17.4824 85.2716 17.9215 85.4564 18.168C85.6567 18.3991 85.9957 18.5147 86.4733 18.5147V19C84.8093 18.9384 83.7154 18.9076 83.1916 18.9076C82.6677 18.9076 81.5122 18.9384 79.725 19V18.5147C80.2026 18.5147 80.5339 18.3991 80.7187 18.168C80.919 17.9215 81.0192 17.4824 81.0192 16.8507V9.52461C81.0192 8.81588 80.919 8.29974 80.7187 7.97619C80.5339 7.65264 80.2026 7.49087 79.725 7.49087V7.00554C80.218 7.05176 80.6956 7.07487 81.1578 7.07487C82.7602 7.07487 84.1006 6.96702 85.1791 6.75132V16.8507ZM99.2784 16.4578C99.2784 17.1666 99.3709 17.6827 99.5558 18.0062C99.7561 18.3298 100.095 18.4916 100.573 18.4916V18.9769C100.095 18.9307 99.6174 18.9076 99.1398 18.9076C97.5374 18.9076 96.197 19.0154 95.1185 19.2311V17.5902C94.795 18.1911 94.4098 18.6302 93.963 18.9076C93.5316 19.1849 92.9769 19.3235 92.299 19.3235C90.8815 19.3235 89.7414 18.7997 88.8786 17.752C88.0158 16.6889 87.5844 15.0789 87.5844 12.9219C87.5844 10.8727 88.0389 9.32432 88.948 8.27663C89.8724 7.21354 91.1281 6.68199 92.715 6.68199C93.7011 6.68199 94.5022 6.87458 95.1185 7.25976V3.70071C95.1185 2.99198 95.0184 2.47584 94.8181 2.15229C94.6332 1.82874 94.3019 1.66697 93.8243 1.66697V1.18164C94.3019 1.22786 94.7796 1.25097 95.2572 1.25097C96.8595 1.25097 98.1999 1.14312 99.2784 0.927423V16.4578ZM93.4545 18.1218C93.9013 18.1218 94.2865 17.9677 94.6101 17.6596C94.949 17.336 95.1185 16.9354 95.1185 16.4578V7.74508C94.7796 7.54479 94.4175 7.44464 94.0323 7.44464C93.3082 7.44464 92.7689 7.90686 92.4146 8.83129C92.0756 9.74031 91.9061 11.127 91.9061 12.9912C91.9061 14.8863 92.0448 16.219 92.3221 16.9894C92.5994 17.7443 92.9769 18.1218 93.4545 18.1218ZM108.647 16.8045C109.772 16.8045 110.704 16.2883 111.443 15.2561L111.836 15.3947C111.497 16.4732 110.92 17.3977 110.103 18.168C109.302 18.9384 108.269 19.3235 107.006 19.3235C105.388 19.3235 104.094 18.8228 103.123 17.8214C102.153 16.8199 101.668 15.2175 101.668 13.0143C101.668 10.9035 102.207 9.32432 103.285 8.27663C104.379 7.21354 105.82 6.68199 107.607 6.68199C110.519 6.68199 111.975 8.40759 111.975 11.8588H106.012C105.997 12.0437 105.989 12.321 105.989 12.6908C105.989 14.1699 106.243 15.2253 106.752 15.8569C107.276 16.4886 107.907 16.8045 108.647 16.8045ZM107.445 7.21354C106.582 7.21354 106.074 8.61559 105.92 11.4197H108.601C108.616 10.1871 108.524 9.17795 108.323 8.39218C108.139 7.60642 107.846 7.21354 107.445 7.21354ZM121.269 6.68199C122.024 6.68199 122.563 6.9131 122.887 7.37531C123.226 7.83753 123.395 8.38448 123.395 9.01617C123.395 9.70949 123.195 10.2642 122.794 10.6801C122.409 11.0807 121.901 11.281 121.269 11.281C120.607 11.281 120.098 11.1347 119.744 10.8419C119.39 10.5338 119.212 10.1255 119.212 9.61705C119.212 8.70803 119.605 7.9916 120.391 7.46776C120.114 7.46776 119.867 7.52168 119.651 7.62953C119.266 7.79901 118.943 8.07634 118.681 8.46152C118.419 8.83129 118.288 9.23958 118.288 9.68638V16.6196C118.288 17.3437 118.434 17.8445 118.727 18.1218C119.035 18.3837 119.551 18.5147 120.275 18.5147V19C120.075 19 119.906 18.9923 119.767 18.9769C118.149 18.9307 117.071 18.9076 116.531 18.9076C116.054 18.9076 114.983 18.9307 113.319 18.9769C113.196 18.9923 113.034 19 112.834 19V18.5147C113.311 18.5147 113.643 18.3991 113.828 18.168C114.028 17.9215 114.128 17.4824 114.128 16.8507V9.52461C114.128 8.81588 114.028 8.29974 113.828 7.97619C113.643 7.65264 113.311 7.49087 112.834 7.49087V7.00554C113.327 7.05176 113.804 7.07487 114.267 7.07487C115.869 7.07487 117.209 6.96702 118.288 6.75132V8.41529C118.873 7.25976 119.867 6.68199 121.269 6.68199Z" fill="#01AB6C"/>
</svg>
