<svg width="23" height="27" viewBox="0 0 23 27" fill="none" xmlns="http://www.w3.org/2000/svg">
<path d="M22.9305 3.12845V26.5634C19.6396 23.6552 20.6921 24.6179 16.8692 21.0639L17.1184 23.4806H2.74817C1.27208 23.4806 0.0703125 22.2789 0.0703125 20.7895V3.12845C0.0703125 1.63927 1.27202 0.4375 2.74817 0.4375H20.2525C21.7287 0.4375 22.9305 1.63927 22.9305 3.12845Z" fill="#8A9CFE"/>
<path d="M17.3257 7.89712C15.4446 6.48635 13.655 6.5255 13.655 6.5255L13.4721 6.73456C15.6928 7.4138 16.7248 8.39353 16.7248 8.39353C13.6217 6.69284 9.9767 6.6926 6.96673 8.01474C6.48334 8.23677 6.19599 8.39353 6.19599 8.39353C6.19599 8.39353 7.28026 7.36156 9.63162 6.68232L9.50103 6.5255C9.50103 6.5255 7.71135 6.48635 5.83028 7.89712C5.83028 7.89712 3.94922 11.3066 3.94922 15.5128C3.94922 15.5128 5.04658 17.4069 7.93337 17.4984C7.93337 17.4984 8.41676 16.9107 8.80864 16.4141C7.14961 15.9177 6.52267 14.8728 6.52267 14.8728C6.71481 15.0072 7.03169 15.1817 7.05823 15.1993C9.2631 16.4342 12.395 16.8387 15.2095 15.6565C15.6666 15.4868 16.1762 15.2385 16.7118 14.8858C16.7118 14.8858 16.0586 15.9571 14.3473 16.4403C14.7393 16.9367 15.2095 17.4983 15.2095 17.4983C18.0965 17.4069 19.2067 15.5128 19.2067 15.5128C19.2067 11.3066 17.3257 7.89712 17.3257 7.89712ZM9.1352 14.298C8.40367 14.298 7.80273 13.6449 7.80273 12.848C7.80273 12.0511 8.39058 11.398 9.1352 11.398C9.87976 11.398 10.4807 12.0511 10.4676 12.848C10.4676 13.6449 9.87976 14.298 9.1352 14.298ZM13.9032 14.298C13.1717 14.298 12.5708 13.6449 12.5708 12.848C12.5708 12.0511 13.1586 11.398 13.9032 11.398C14.6478 11.398 15.2357 12.0511 15.2357 12.848C15.2357 13.6449 14.6478 14.298 13.9032 14.298Z" fill="#FDFDFD"/>
</svg>
