<svg width="24" height="24" viewBox="0 0 24 24" fill="none" xmlns="http://www.w3.org/2000/svg">
<path d="M23 12.0039C23 18.079 18.0751 23.0039 12 23.0039C5.92486 23.0039 1 18.079 1 12.0039C1 5.92877 5.92486 1.00391 12 1.00391" stroke="white" stroke-width="1.74091" stroke-linecap="round"/>
<path d="M12 1.00003C18.0751 1.00003 23 5.92489 23 12C23 18.0751 18.0751 23 12 23C5.92486 23 1 18.0751 1 12" stroke="white" stroke-width="1.74091" stroke-linecap="round"/>
<circle cx="12" cy="12.0039" r="11" fill="black"/>
<path d="M17.0369 9.13109C17.2626 8.90533 17.2626 8.52906 17.0369 8.31488L15.6823 6.96033C15.4682 6.73458 15.0919 6.73458 14.8661 6.96033L13.801 8.01966L15.9718 10.1904L17.0369 9.13109ZM6.78516 15.0413V17.2121H8.95591L15.3582 10.804L13.1874 8.63326L6.78516 15.0413Z" fill="white"/>
</svg>
