<svg width="24" height="24" viewBox="0 0 24 24" fill="none" xmlns="http://www.w3.org/2000/svg">
<path fill-rule="evenodd" clip-rule="evenodd" d="M20.4542 0.800781C21.9714 0.800781 23.2031 2.03257 23.2031 3.54974V20.5518C23.2031 22.069 21.9713 23.3008 20.4542 23.3008H15.7754V14.8231H18.7022L19.259 11.1923H15.7754V8.83605C15.7754 7.84275 16.262 6.87451 17.8224 6.87451H19.4062V3.78339C19.4062 3.78339 17.9688 3.53809 16.5945 3.53809C13.7254 3.53809 11.8502 5.27696 11.8502 8.42499V11.1923H8.66096V14.8231H11.8502V23.3008H3.45208C1.93491 23.3008 0.703125 22.069 0.703125 20.5518V3.54974C0.703125 2.03257 1.93487 0.800781 3.45208 0.800781H20.4542V0.800781Z" fill="#1777F2"/>
</svg>
