<svg width="32" height="32" viewBox="0 0 32 32" fill="none" xmlns="http://www.w3.org/2000/svg">
<circle cx="16" cy="16" r="15.5" stroke="#BFBFC3"/>
<path d="M16.053 21.632C16.803 21.554 17.376 21.311 17.772 20.903C18.168 20.489 18.366 19.961 18.366 19.319C18.366 19.037 18.312 18.794 18.204 18.59C18.102 18.386 17.961 18.209 17.781 18.059C17.601 17.903 17.388 17.771 17.142 17.663C16.902 17.555 16.644 17.456 16.368 17.366L16.053 21.632ZM15.693 11.471C15.315 11.507 14.988 11.582 14.712 11.696C14.442 11.81 14.217 11.951 14.037 12.119C13.863 12.287 13.734 12.479 13.65 12.695C13.566 12.911 13.524 13.136 13.524 13.37C13.524 13.64 13.572 13.877 13.668 14.081C13.764 14.285 13.896 14.465 14.064 14.621C14.238 14.771 14.439 14.903 14.667 15.017C14.901 15.131 15.15 15.236 15.414 15.332L15.693 11.471ZM16.485 15.683C16.917 15.815 17.343 15.962 17.763 16.124C18.189 16.28 18.57 16.481 18.906 16.727C19.242 16.973 19.512 17.282 19.716 17.654C19.926 18.02 20.031 18.482 20.031 19.04C20.031 19.58 19.938 20.09 19.752 20.57C19.572 21.05 19.308 21.473 18.96 21.839C18.612 22.205 18.183 22.502 17.673 22.73C17.169 22.958 16.593 23.093 15.945 23.135L15.837 24.638C15.831 24.758 15.783 24.866 15.693 24.962C15.603 25.058 15.489 25.106 15.351 25.106H14.703L14.847 23.108C14.133 23.03 13.473 22.847 12.867 22.559C12.261 22.265 11.742 21.896 11.31 21.452L11.841 20.642C11.895 20.57 11.961 20.51 12.039 20.462C12.117 20.414 12.204 20.39 12.3 20.39C12.42 20.39 12.552 20.444 12.696 20.552C12.846 20.66 13.023 20.786 13.227 20.93C13.431 21.068 13.671 21.206 13.947 21.344C14.229 21.476 14.565 21.569 14.955 21.623L15.288 17.042C14.868 16.916 14.454 16.775 14.046 16.619C13.638 16.457 13.272 16.247 12.948 15.989C12.624 15.725 12.363 15.398 12.165 15.008C11.967 14.618 11.868 14.129 11.868 13.541C11.868 13.097 11.955 12.665 12.129 12.245C12.303 11.825 12.555 11.45 12.885 11.12C13.221 10.79 13.632 10.52 14.118 10.31C14.61 10.1 15.171 9.983 15.801 9.959L15.891 8.699C15.897 8.579 15.945 8.471 16.035 8.375C16.125 8.279 16.239 8.231 16.377 8.231H17.025L16.899 10.004C17.529 10.088 18.072 10.256 18.528 10.508C18.99 10.754 19.395 11.051 19.743 11.399L19.32 12.047C19.194 12.245 19.047 12.344 18.879 12.344C18.795 12.344 18.69 12.308 18.564 12.236C18.444 12.164 18.297 12.083 18.123 11.993C17.955 11.897 17.76 11.801 17.538 11.705C17.316 11.609 17.067 11.537 16.791 11.489L16.485 15.683Z" fill="#BFBFC3"/>
</svg>
