<svg width="23" height="23" viewBox="0 0 23 23" fill="none" xmlns="http://www.w3.org/2000/svg">
<path fill-rule="evenodd" clip-rule="evenodd" d="M19.1555 3.85817C17.1264 1.82572 14.423 0.706398 11.5461 0.703125C5.61897 0.703125 0.791492 5.52733 0.791492 11.4578C0.791492 13.3527 1.28569 15.2052 2.22828 16.8351L0.703125 22.4088L6.40446 20.9131C7.97543 21.7706 9.74278 22.2222 11.5429 22.2222H11.5461C17.4733 22.2222 22.2975 17.398 22.3008 11.4676C22.304 8.594 21.188 5.89061 19.1555 3.85817ZM11.5494 20.4058H11.5461C9.94242 20.4058 8.36817 19.9738 6.99684 19.1588L6.66956 18.9657L3.28542 19.8527L4.18873 16.5536L3.97599 16.2165C3.0825 14.7928 2.60793 13.1498 2.60793 11.4578C2.61121 6.52882 6.62046 2.51956 11.5527 2.51956C13.9419 2.51956 16.1838 3.45233 17.8726 5.14113C19.5614 6.82993 20.4909 9.07838 20.4876 11.4643C20.4876 16.3965 16.4751 20.4058 11.5494 20.4058ZM16.4522 13.7095C16.1838 13.5753 14.8615 12.924 14.6161 12.8356C14.3706 12.7473 14.1906 12.7014 14.0106 12.9698C13.8306 13.2382 13.3167 13.8437 13.1596 14.0237C13.0026 14.2037 12.8455 14.2266 12.5771 14.0924C12.3087 13.9582 11.4414 13.6735 10.417 12.7571C9.61841 12.0436 9.07839 11.1632 8.92129 10.8948C8.76419 10.6265 8.90492 10.4792 9.03911 10.345C9.16021 10.2239 9.30749 10.0308 9.44167 9.87369C9.57586 9.71659 9.62168 9.60532 9.71005 9.42531C9.79842 9.2453 9.75587 9.0882 9.68714 8.95402C9.61841 8.81983 9.08166 7.49759 8.8591 6.95757C8.63982 6.43391 8.42054 6.50591 8.25362 6.49609C8.09653 6.48955 7.91652 6.48628 7.73978 6.48628C7.55978 6.48628 7.26849 6.55501 7.02303 6.82338C6.77756 7.09176 6.08371 7.74306 6.08371 9.06529C6.08371 10.3875 7.04594 11.6672 7.18012 11.844C7.31431 12.024 9.07511 14.7372 11.772 15.9023C12.4134 16.1805 12.9142 16.3441 13.3037 16.4685C13.9484 16.6747 14.5343 16.6452 14.9957 16.5765C15.5128 16.498 16.5863 15.9252 16.8089 15.3001C17.0314 14.6717 17.0314 14.135 16.966 14.0237C16.9005 13.9124 16.7205 13.8469 16.4522 13.7095Z" fill="#25D366"/>
</svg>
