<svg width="20" height="20" viewBox="0 0 20 20" fill="none" xmlns="http://www.w3.org/2000/svg">
<path d="M18.0541 5.63442C18.0353 5.59348 18.0125 5.55461 17.9862 5.51828L14.9155 1.58733C14.6263 1.21871 14.1974 0.993314 13.7361 0.967173C13.2747 0.941048 12.8241 1.11676 12.4968 1.45035L11.6596 2.30676L10.2541 0.593005C9.96083 0.236805 9.53538 0.0223931 9.08077 0.00167616C8.62604 -0.0191924 8.18359 0.15556 7.86046 0.483548L6.91998 1.4446H2.55807C1.88064 1.4481 1.23199 1.72497 0.75298 2.215C0.273931 2.70503 0.00342862 3.3685 0 4.06145V16.4316C0.000934378 17.3777 0.368776 18.2848 1.02268 18.9539C1.67675 19.6228 2.56349 19.9991 3.48842 20H16.5116C17.4365 19.999 18.3232 19.6228 18.9773 18.9539C19.6312 18.2848 19.9991 17.3778 20 16.4316V8.81941C19.9978 8.15577 19.8145 7.50596 19.4707 6.9433C19.1268 6.38048 18.6361 5.92728 18.054 5.63447L18.0541 5.63442ZM13.4793 2.46286C13.5279 2.41761 13.5914 2.39308 13.657 2.39435C13.723 2.39738 13.7845 2.42972 13.8253 2.48277L15.99 5.25096H10.7546L13.4793 2.46286ZM9.01412 1.4266C9.08062 1.42963 9.14291 1.46053 9.1862 1.51215L10.6654 3.32007L8.78071 5.25098H5.17316L8.84677 1.49225C8.89084 1.44685 8.95173 1.42295 9.01418 1.42661L9.01412 1.4266ZM1.74625 3.21747C1.95976 2.99429 2.253 2.86956 2.55823 2.87194H5.52478L3.19922 5.2508L2.55823 5.25096C2.25003 5.25048 1.95459 5.12495 1.7366 4.90193C1.51873 4.67907 1.39601 4.3767 1.39554 4.06147C1.3943 3.74286 1.52106 3.43763 1.74625 3.2175L1.74625 3.21747ZM16.512 18.5728H3.48886C2.93382 18.5724 2.40167 18.3466 2.00941 17.9452C1.61696 17.5439 1.39629 16.9995 1.39581 16.4318V6.37965C1.75431 6.57305 2.15314 6.67563 2.55851 6.6785H16.5122C17.0672 6.67898 17.5994 6.90471 17.9916 7.30617C18.3841 7.70745 18.6048 8.2518 18.6052 8.81952V10.009H15.8145V10.0089C14.8175 10.0089 13.8962 10.5531 13.3977 11.4362C12.8992 12.3195 12.8992 13.4077 13.3977 14.2909C13.8962 15.1742 14.8175 15.7182 15.8145 15.7182H18.6052V16.4319C18.6048 16.9997 18.3841 17.544 17.9916 17.9453C17.5993 18.3467 17.0672 18.5724 16.5122 18.5729L16.512 18.5728ZM18.6051 14.2908H15.8143C15.3158 14.2908 14.8552 14.0189 14.606 13.5771C14.3567 13.1356 14.3567 12.5915 14.606 12.1498C14.8552 11.7082 15.3158 11.4361 15.8143 11.4361H18.6051V14.2908Z" fill="#979797"/>
</svg>
