<svg width="78" height="79" viewBox="0 0 78 65" fill="none" xmlns="http://www.w3.org/2000/svg">
<g clip-path="url(#clip0_2347_59574)">
<path d="M40.1278 6.42812C39.7781 6.22425 39.3806 6.11683 38.9758 6.11683C38.571 6.11683 38.1735 6.22425 37.8238 6.42812C33.6478 8.88209 30.2498 12.4656 28.021 16.766C25.7922 21.0664 24.8233 25.9088 25.2258 30.7357L25.5634 34.6767L20.3384 37.8704C18.9583 38.537 17.8661 39.6804 17.2633 41.0895C16.6605 42.4987 16.588 44.0783 17.0591 45.5368L19.8058 55.3944C19.9019 55.7397 20.078 56.0576 20.3197 56.3223C20.5615 56.587 20.8621 56.7911 21.1973 56.9181C21.5325 57.0452 21.8928 57.0916 22.2493 57.0536C22.6057 57.0156 22.9482 56.8943 23.2491 56.6994L29.2791 52.7983C30.1389 54.4994 31.1554 56.1166 32.3154 57.6289C32.5289 57.9063 32.8033 58.131 33.1174 58.2856C33.4315 58.4402 33.7769 58.5206 34.127 58.5206L44.1464 58.5206C44.4465 58.5207 44.7437 58.4617 45.021 58.3469C45.2983 58.2321 45.5502 58.0638 45.7624 57.8515C45.809 57.805 45.8531 57.7561 45.8965 57.7048C47.1398 56.2159 48.2238 54.6011 49.131 52.8866L55.0243 56.6995C55.3252 56.8942 55.6677 57.0153 56.0241 57.0532C56.3805 57.0911 56.7409 57.0447 57.076 56.9176C57.4111 56.7906 57.7117 56.5866 57.9535 56.322C58.1952 56.0574 58.3714 55.7396 58.4677 55.3944L61.2191 45.5242C61.5677 44.0962 61.4536 42.5945 60.8934 41.2357C60.3333 39.8768 59.3559 38.7309 58.1024 37.9634L52.5633 34.5856L52.7242 30.7483C53.1427 25.9178 52.181 21.0678 49.9511 16.7624C47.7212 12.4571 44.3147 8.87332 40.1278 6.42812ZM23.3739 51.1745L21.4289 44.2001C21.2823 43.7411 21.3169 43.2435 21.5255 42.8092C21.7341 42.3749 22.101 42.0369 22.5509 41.8645L25.9988 39.7618L26.1956 42.0594C26.3933 44.2487 26.8316 46.4096 27.5026 48.503L23.3739 51.1745ZM56.8124 44.3098L54.8988 51.1737L50.9653 48.6283C51.6706 46.5197 52.1015 44.3292 52.2476 42.1106L52.3444 39.8043L55.6863 41.8423C56.103 42.0899 56.4342 42.4589 56.6354 42.8999C56.8366 43.3408 56.8984 43.8328 56.8124 44.3098ZM48.1652 30.4454L47.6831 41.8716C47.3644 46.2666 45.7529 50.4692 43.0513 53.9505L35.2807 53.9505C32.7031 50.3292 31.1383 46.0857 30.7477 41.6579L30.2397 35.7256C30.2376 35.6331 30.2297 35.5409 30.2161 35.4494L29.7818 30.3775C29.4713 26.638 30.1588 22.8831 31.7741 19.4961C33.3893 16.1092 35.8745 13.2117 38.9758 11.0993C42.0973 13.2079 44.5963 16.1149 46.2125 19.5174C47.8287 22.92 48.503 26.6936 48.1652 30.4454ZM36.7131 21.9764C36.2337 22.4558 35.9072 23.0666 35.7749 23.7316C35.6427 24.3966 35.7105 25.0858 35.97 25.7122C36.2295 26.3386 36.6688 26.874 37.2326 27.2506C37.7963 27.6273 38.4591 27.8284 39.1371 27.8284C39.8151 27.8284 40.4778 27.6273 41.0416 27.2506C41.6053 26.874 42.0447 26.3386 42.3041 25.7122C42.5636 25.0858 42.6315 24.3966 42.4992 23.7316C42.3669 23.0666 42.0405 22.4558 41.561 21.9764C41.2427 21.658 40.8648 21.4055 40.4489 21.2332C40.033 21.0609 39.5872 20.9722 39.137 20.9722C38.6868 20.9722 38.241 21.0609 37.8251 21.2332C37.4092 21.4055 37.0314 21.658 36.7131 21.9764Z" fill="#01AB6C"/>
</g>
<defs>
<clipPath id="clip0_2347_59574">
<rect width="54.8482" height="54.8482" fill="white" transform="translate(0.273438 39.6191) rotate(-45)"/>
</clipPath>
</defs>
</svg>
