<svg width="27" height="27" viewBox="0 0 31 32" fill="none" xmlns="http://www.w3.org/2000/svg">
<path fill-rule="evenodd" clip-rule="evenodd" d="M3.1 16C3.1 8.93075 8.65167 3.2 15.5 3.2C22.3484 3.2 27.9 8.93075 27.9 16C27.9 22.5274 23.1668 27.9136 17.05 28.701V19.2H20.15C21.0061 19.2 21.7 18.4837 21.7 17.6C21.7 16.7163 21.0061 16 20.15 16H17.05V12.8C17.05 11.9164 17.7439 11.2 18.6 11.2H19.375C20.2311 11.2 20.925 10.4836 20.925 9.6C20.925 8.71635 20.2311 8 19.375 8H18.6C16.0318 8 13.95 10.149 13.95 12.8V16H10.85C9.99397 16 9.3 16.7163 9.3 17.6C9.3 18.4837 9.99397 19.2 10.85 19.2H13.95V28.701C7.83322 27.9136 3.1 22.5274 3.1 16ZM15.5 32C24.0603 32 31 24.8365 31 16C31 7.16344 24.0603 0 15.5 0C6.93958 0 0 7.16344 0 16C0 24.8365 6.93958 32 15.5 32Z" fill="#01AB6C"/>
</svg>
