<svg width="30" height="27" viewBox="0 0 30 27" fill="none" xmlns="http://www.w3.org/2000/svg">
<path fill-rule="evenodd" clip-rule="evenodd" d="M23.3954 4.74787C22.8381 3.94067 21.3477 2.8078 18.9332 3.29561C17.5254 3.58005 16.683 4.28208 16.1478 5.20568C15.5774 6.18945 15.3019 7.52836 15.3019 9.08705C15.3019 9.96414 14.595 10.6752 13.723 10.6752C9.98704 10.6752 6.43139 9.55931 3.43926 6.53924C3.2452 7.62566 3.10981 8.91656 3.17402 10.2551C3.25676 11.9799 3.6668 13.7104 4.63772 15.1922C5.59207 16.6487 7.16399 17.9829 9.79051 18.8204C10.3142 18.9873 10.714 19.4161 10.8461 19.9524C10.9781 20.4888 10.8235 21.0558 10.4378 21.4493C9.50472 22.4013 8.56626 23.1153 7.60199 23.6806C9.2769 23.8548 10.8902 23.8675 12.3864 23.7314C15.4173 23.4557 17.832 22.5831 19.3421 21.3505C22.5199 18.7567 24.2217 14.8915 23.9043 8.41542C23.8522 7.34971 24.8725 6.20232 25.3653 5.33101C24.6218 5.47085 23.8765 5.44466 23.3954 4.74787ZM2.51646 1.56323C3.09932 1.49489 3.67179 1.7573 4.00289 2.24461C6.33244 5.67321 9.13046 7.09951 12.2351 7.42401C12.3875 6.08803 12.7459 4.76801 13.4196 3.60583C14.4079 1.90067 16.0153 0.645298 18.3114 0.181418C21.4841 -0.459576 23.8999 0.696152 25.3017 2.11156L28.1309 1.57958C28.7353 1.46596 29.3501 1.71547 29.707 2.21905C30.0637 2.72264 30.0974 3.38873 29.7933 3.92619L27.0783 8.72583C27.3259 15.6526 25.4122 20.4866 21.3321 23.817C19.1676 25.5835 16.0705 26.5855 12.6709 26.8949C9.2447 27.2067 5.37181 26.8296 1.52183 25.6988C0.846385 25.5005 0.382964 24.8765 0.385459 24.1688C0.387938 23.4609 0.855717 22.8403 1.53253 22.6467C3.46867 22.0928 4.9423 21.614 6.27438 20.7778C4.38208 19.7673 2.98777 18.4462 2.00094 16.9401C0.629359 14.8467 0.120764 12.513 0.0197905 10.4082C-0.0811674 8.30359 0.221201 6.35431 0.539659 4.94744C0.720938 4.14658 0.932675 3.34198 1.22453 2.57338C1.4365 2.01942 1.9336 1.63158 2.51646 1.56323Z" fill="#01AB6C"/>
</svg>
